SplineFontDB: 3.2
FontName: TDAText
FullName: TDAText
FamilyName: TDAText
Weight: Regular
Copyright: Copyright (c) 2024-2025 Dmitry Tretyakov\n\nBased on Philips SAA52XX/SAA55XX/TDA93XX IC character set:\nCopyright (c) 1985-2001 NXP Semiconductors N.V.

StartChar: exclam
Encoding: 33 33 4
Width: 525
Flags: HW
HStem: 0 100<262 338> 680 20G<262 338>
VStem: 262 75<0 100 200 700>
LayerCount: 2
Back
Fore
SplineSet
262 700 m 29
 338 700 l 25
 338 200 l 25
 262 200 l 25
 262 700 l 29
338 0 m 25
 262 0 l 1
 262 100 l 25
 338 100 l 1
 338 0 l 25
EndSplineSet
EndChar

StartChar: asterisk
Encoding: 42 42 5
Width: 525
Flags: HW
HStem: 0 21G<262 338> 100 100<112 150 450 488> 300 100<225 262 338 375> 500 100<112 150 450 488> 680 20G<262 338>
VStem: 112 75<100 200 500 600> 150 75<200 300 400 500> 262 75<0 300 400 700> 375 75<200 300 400 500> 412 75<100 200 500 600>
LayerCount: 2
Back
Fore
SplineSet
112 600 m 29xfd
 188 600 l 25
 188 500 l 25xfd
 224 500 l 25
 225 400 l 25
 262 400 l 25
 262 700 l 25
 338 700 l 25
 338 400 l 25
 375 400 l 25
 375 500 l 25xfb80
 412 500 l 25
 412 600 l 25
 488 600 l 25
 488 500 l 25xf940
 450 500 l 25
 450 400 l 25xf980
 412 400 l 25
 412 300 l 25xf940
 450 300 l 25
 450 200 l 25xf980
 488 200 l 25
 488 100 l 25
 412 100 l 25
 412 200 l 25xf940
 375 200 l 25
 375 300 l 25
 338 300 l 25
 338 0 l 25
 262 0 l 25
 262 300 l 25
 225 300 l 25
 225 200 l 25xfb80
 188 200 l 25
 188 100 l 25
 112 100 l 25
 112 200 l 25xfd
 150 200 l 25
 150 300 l 25xfb
 188 300 l 25
 188 400 l 25xfd
 150 400 l 25
 150 500 l 25xfb
 112 500 l 25
 112 600 l 29xfd
EndSplineSet
EndChar

StartChar: plus
Encoding: 43 43 6
Width: 525
Flags: HW
HStem: 250 100<150 262 338 450>
VStem: 262 75<50 250 350 550>
LayerCount: 2
Back
Fore
SplineSet
262 550 m 29
 338 550 l 25
 338 350 l 25
 450 350 l 25
 450 250 l 25
 338 250 l 25
 338 50 l 25
 262 50 l 25
 262 250 l 25
 150 250 l 25
 150 350 l 25
 262 350 l 25
 262 550 l 29
EndSplineSet
EndChar

StartChar: comma
Encoding: 44 44 7
Width: 518
Flags: HW
HStem: -200 100<218 255> 0 100<218 255>
VStem: 218 75<-200 -100> 255 75<-100 0>
LayerCount: 2
Back
Fore
SplineSet
218 -100 m 5xe0
 255 -100 l 29
 255 0 l 5xd0
 218 0 l 29
 218 100 l 29xe0
 330 100 l 29
 330 -100 l 29xd0
 293 -100 l 29
 293 -200 l 29
 218 -200 l 29
 218 -100 l 5xe0
EndSplineSet
EndChar

StartChar: hyphen
Encoding: 45 45 8
Width: 525
Flags: HW
HStem: 250 100<150 450>
LayerCount: 2
Back
Fore
SplineSet
150 250 m 29
 150 350 l 25
 450 350 l 25
 450 250 l 25
 150 250 l 29
EndSplineSet
EndChar

StartChar: period
Encoding: 46 46 9
Width: 525
Flags: HW
HStem: 0 100<262 338>
VStem: 262 75<0 100>
LayerCount: 2
Back
Fore
SplineSet
338 0 m 29
 262 0 l 29
 262 100 l 29
 338 100 l 29
 338 0 l 29
EndSplineSet
EndChar

StartChar: slash
Encoding: 47 47 10
Width: 525
Flags: HW
HStem: 0 100<150 188> 600 100<412 450>
VStem: 150 75<0 100> 188 75<100 200> 225 75<200 300> 262 75<300 400> 300 75<400 500> 338 75<500 600> 375 75<600 700>
LayerCount: 2
Back
Fore
SplineSet
375 700 m 29xc080
 450 700 l 25
 450 600 l 25xc080
 412 600 l 25
 412 500 l 25xc1
 375 500 l 25
 375 400 l 25xc2
 338 400 l 25
 338 300 l 25xc4
 300 300 l 25
 300 200 l 25xc8
 262 200 l 25
 262 100 l 25xd0
 225 100 l 25
 225 0 l 25
 150 0 l 25
 150 100 l 25xe0
 188 100 l 25
 188 200 l 25xd0
 225 200 l 25
 225 300 l 25xc8
 262 300 l 25
 262 400 l 25xc4
 300 400 l 25
 300 500 l 25xc2
 338 500 l 25
 338 600 l 25xc1
 375 600 l 25
 375 700 l 29xc080
EndSplineSet
EndChar

StartChar: zero
Encoding: 48 48 11
Width: 531
Flags: HW
HStem: 0 100<269 381> 600 100<269 381>
VStem: 156 112<100 600> 381 112<100 600>
LayerCount: 2
Back
Fore
SplineSet
381 600 m 29
 269 600 l 25
 269 100 l 25
 381 100 l 25
 381 600 l 29
194 700 m 25
 456 700 l 25
 456 600 l 25
 494 600 l 25
 494 100 l 25
 456 100 l 25
 456 0 l 25
 194 0 l 25
 194 100 l 25
 156 100 l 25
 156 600 l 25
 194 600 l 25
 194 700 l 25
EndSplineSet
EndChar

StartChar: one
Encoding: 49 49 12
Width: 531
Flags: HW
HStem: 0 21G<306 419> 500 100<231 306> 680 20G<306 419>
VStem: 306 112<0 500 600 700>
LayerCount: 2
Back
Fore
SplineSet
231 500 m 29
 231 600 l 29
 306 600 l 29
 306 700 l 29
 419 700 l 29
 419 0 l 29
 306 0 l 29
 306 500 l 29
 231 500 l 29
EndSplineSet
EndChar

StartChar: two
Encoding: 50 50 13
Width: 531
Flags: HW
HStem: 0 100<156 194 344 494> 500 100<156 194> 600 100<231 381>
VStem: 156 75<500 600> 344 112<300 400> 381 112<400 600>
LayerCount: 2
Back
Fore
SplineSet
231 500 m 29xd4
 156 500 l 1
 156 600 l 25
 194 600 l 25xd4
 194 700 l 25
 456 700 l 25
 456 600 l 25xb8
 494 600 l 25
 494 400 l 25xb4
 456 400 l 25
 456 300 l 25
 419 300 l 25
 419 200 l 25
 344 200 l 25
 344 100 l 25xb8
 494 100 l 25
 494 0 l 25xb4
 156 0 l 25
 156 100 l 25
 194 100 l 25
 194 200 l 25
 269 200 l 25
 269 300 l 25
 344 300 l 25
 344 400 l 25xb8
 381 400 l 25
 381 600 l 25
 231 600 l 1xb4
 231 500 l 29xd4
EndSplineSet
EndChar

StartChar: three
Encoding: 51 51 14
Width: 531
Flags: HW
HStem: 0 100<156 419> 300 100<269 344> 600 100<156 381 456 494>
VStem: 344 75<400 500> 381 75<500 600> 419 75<100 300>
CounterMasks: 1 e0
LayerCount: 2
Back
Fore
SplineSet
156 700 m 29xe8
 494 700 l 25
 494 600 l 25xe4
 456 600 l 25
 456 500 l 25xe8
 419 500 l 25
 419 400 l 25xf0
 494 400 l 25
 494 100 l 25xe4
 456 100 l 25
 456 0 l 25xe8
 156 0 l 25
 156 100 l 25
 419 100 l 25
 419 300 l 25xe4
 269 300 l 25
 269 400 l 25
 344 400 l 25
 344 500 l 25xf0
 381 500 l 25
 381 600 l 25
 156 601 l 25
 156 700 l 29xe8
EndSplineSet
EndChar

StartChar: four
Encoding: 52 52 15
Width: 531
Flags: HW
HStem: 0 21G<381 494> 100 100<269 381> 600 100<456 494>
VStem: 156 112<200 300> 194 112<300 400> 269 112<400 500> 381 112<0 100 200 300 600 700>
LayerCount: 2
Back
Fore
SplineSet
381 700 m 29xea
 494 700 l 25
 494 600 l 25xea
 456 600 l 25
 456 500 l 25
 381 500 l 25
 381 400 l 25xe4
 306 400 l 25
 306 300 l 25xe8
 269 300 l 25
 269 200 l 25
 381 200 l 25
 381 300 l 25
 494 300 l 25
 494 0 l 25
 381 0 l 25
 381 100 l 25
 156 100 l 25
 156 300 l 25xf2
 194 300 l 25
 194 400 l 25xe8
 269 400 l 25
 269 500 l 25xe4
 306 500 l 25
 306 600 l 25
 381 600 l 25
 381 700 l 29xea
EndSplineSet
EndChar

StartChar: five
Encoding: 53 53 16
Width: 531
Flags: HW
HStem: 0 100<231 381> 100 100<156 194> 300 100<231 381> 600 100<231 456>
VStem: 156 75<100 200 400 600> 381 112<100 300>
LayerCount: 2
Back
Fore
SplineSet
456 700 m 29xbc
 456 600 l 25
 231 600 l 25
 231 400 l 25
 456 400 l 25
 456 300 l 25
 494 300 l 25
 494 100 l 25
 456 100 l 25x7c
 456 0 l 25
 194 0 l 25xbc
 194 100 l 25
 156 100 l 25
 156 200 l 25
 231 200 l 25x7c
 231 100 l 25
 381 100 l 25
 381 300 l 25
 156 300 l 25
 156 700 l 25
 456 700 l 29xbc
EndSplineSet
EndChar

StartChar: six
Encoding: 54 54 17
Width: 531
Flags: HW
HStem: 0 100<268 419> 300 100<306 419> 600 100<344 381>
VStem: 156 112<100 300> 194 112<400 500> 231 112<500 600> 269 112<600 700> 419 75<100 300>
CounterMasks: 1 e0
LayerCount: 2
Back
Fore
SplineSet
419 300 m 29xf1
 268 300 l 25
 268 100 l 25
 419 100 l 25
 419 300 l 29xf1
381 700 m 25xe3
 381 600 l 25xe3
 344 600 l 25
 344 500 l 25xe5
 306 500 l 25
 306 400 l 25
 456 400 l 25
 456 300 l 25
 494 300 l 25
 494 100 l 25
 456 100 l 25
 456 0 l 25
 194 0 l 25
 194 100 l 25xe9
 156 100 l 25
 156 400 l 25xf1
 194 400 l 25
 194 500 l 25xe9
 231 500 l 25
 231 600 l 25xe5
 269 600 l 25
 269 700 l 25
 381 700 l 25xe3
EndSplineSet
EndChar

StartChar: seven
Encoding: 55 55 18
Width: 525
Flags: HW
HStem: 0 100<150 188> 600 100<112 338 450 488>
VStem: 150 112<0 100> 188 112<100 200> 225 112<200 300> 262 112<300 400> 300 112<400 500> 338 112<500 600>
LayerCount: 2
Back
Fore
SplineSet
112 700 m 1xc1
 488 700 l 25
 488 600 l 25
 450 600 l 25
 450 500 l 25xc1
 412 500 l 25
 412 400 l 25xc2
 375 400 l 25
 375 300 l 25xc4
 338 300 l 25
 338 200 l 25xc8
 300 200 l 25
 300 100 l 25xd0
 262 100 l 25
 262 0 l 25
 150 0 l 25
 150 100 l 25xe0
 188 100 l 25
 188 200 l 25xd0
 225 200 l 25
 225 300 l 25xc8
 262 300 l 25
 262 400 l 25xc4
 300 400 l 25
 300 500 l 25xc2
 338 500 l 25
 338 600 l 1
 112 600 l 25
 112 700 l 1xc1
EndSplineSet
EndChar

StartChar: eight
Encoding: 56 56 19
Width: 531
Flags: HW
HStem: 0 100<269 381> 300 100<269 381> 600 100<269 381>
VStem: 156 112<100 300 400 600> 381 112<100 300 400 600>
CounterMasks: 1 e0
LayerCount: 2
Back
Fore
SplineSet
269 100 m 29
 381 100 l 25
 381 300 l 25
 269 300 l 25
 269 100 l 29
269 600 m 25
 269 400 l 25
 381 400 l 25
 381 600 l 25
 269 600 l 25
194 700 m 25
 456 700 l 25
 456 600 l 25
 494 600 l 25
 494 400 l 25
 419 400 l 25
 419 300 l 25
 494 300 l 25
 494 100 l 25
 456 100 l 25
 456 0 l 25
 194 0 l 25
 194 100 l 25
 156 100 l 25
 156 300 l 25
 231 300 l 25
 231 400 l 25
 156 400 l 25
 156 600 l 25
 194 600 l 25
 194 700 l 25
EndSplineSet
EndChar

StartChar: nine
Encoding: 57 57 20
Width: 531
Flags: HW
HStem: 0 100<269 306> 300 100<231 344> 600 100<231 381>
VStem: 156 75<400 600> 269 112<0 100> 306 112<100 200> 344 112<200 300> 381 112<400 600>
CounterMasks: 1 e0
LayerCount: 2
Back
Fore
SplineSet
231 600 m 29xf1
 231 400 l 25
 381 400 l 25
 381 600 l 25
 231 600 l 29xf1
194 600 m 25
 194 700 l 25
 456 700 l 25
 456 600 l 25xf2
 494 600 l 25
 494 300 l 25xf1
 456 300 l 25
 456 200 l 25xf2
 419 200 l 25
 419 100 l 25xf4
 381 100 l 25
 381 0 l 25
 269 0 l 25
 269 100 l 25xf8
 306 100 l 25
 306 200 l 25xf4
 344 200 l 25
 344 300 l 25xf2
 194 300 l 25
 194 400 l 25
 156 400 l 25
 156 600 l 25
 194 600 l 25
EndSplineSet
EndChar

StartChar: colon
Encoding: 58 58 21
Width: 525
Flags: HW
HStem: 0 21G<262 338> 480 20G<262 337>
VStem: 262 75<0 200 300 500>
LayerCount: 2
Back
Fore
SplineSet
262 200 m 29
 338 200 l 25
 338 0 l 25
 262 0 l 25
 262 200 l 29
262 500 m 25
 337 500 l 25
 338 300 l 25
 262 300 l 25
 262 500 l 25
EndSplineSet
EndChar

StartChar: semicolon
Encoding: 59 59 22
Width: 518
Flags: HW
HStem: -200 100<219 256> 480 20G<256 331>
VStem: 219 75<-200 -100> 256 75<-100 100 300 500>
LayerCount: 2
Back
Fore
SplineSet
256 100 m 1xd0
 331 100 l 25
 331 -100 l 1xd0
 294 -100 l 25
 294 -200 l 25
 219 -200 l 25
 219 -100 l 25xe0
 256 -100 l 25
 256 100 l 1xd0
256 500 m 25
 331 500 l 25
 331 300 l 25
 256 300 l 25
 256 500 l 25
EndSplineSet
EndChar

StartChar: less
Encoding: 60 60 23
Width: 531
Flags: HW
HStem: 0 100<419 494> 100 100<344 381> 200 100<269 306> 300 100<156 231> 400 100<269 306> 500 100<344 381> 600 100<419 494>
VStem: 156 112<300 400> 231 112<200 300 400 500> 306 112<100 200 500 600> 381 112<0 100 600 700>
LayerCount: 2
Back
Fore
SplineSet
381 700 m 29x0220
 494 700 l 25
 494 600 l 25x0220
 419 600 l 25x0240
 419 500 l 25x0440
 344 500 l 25x0480
 344 400 l 25x0880
 269 400 l 25
 269 300 l 25x29
 344 300 l 25
 344 200 l 25x5080
 419 200 l 25
 419 100 l 25xa040
 494 100 l 25
 494 0 l 25
 381 0 l 25xa020
 381 100 l 25x4020
 306 100 l 25x4040
 306 200 l 25x2040
 231 200 l 25x2080
 231 300 l 25x1080
 156 300 l 25
 156 400 l 25x11
 231 400 l 25
 231 500 l 25x1480
 306 500 l 25
 306 600 l 25x0a40
 381 600 l 25x0420
 381 700 l 29x0220
EndSplineSet
EndChar

StartChar: equal
Encoding: 61 61 24
Width: 525
Flags: HW
HStem: 200 100<150 450> 400 100<150 450>
LayerCount: 2
Back
Fore
SplineSet
150 500 m 29
 450 500 l 25
 450 400 l 25
 150 400 l 25
 150 500 l 29
150 300 m 25
 450 300 l 25
 450 200 l 25
 150 200 l 25
 150 300 l 25
EndSplineSet
EndChar

StartChar: greater
Encoding: 62 62 25
Width: 531
Flags: HW
HStem: 0 100<156 231> 100 100<269 306> 200 100<344 381> 300 100<419 494> 400 100<344 381> 500 100<269 306> 600 100<156 231>
VStem: 156 112<0 100 600 700> 231 112<100 200 500 600> 306 112<200 300 400 500> 381 112<300 400>
LayerCount: 2
Back
Fore
SplineSet
156 600 m 29x03
 156 700 l 25
 269 700 l 25x03
 269 600 l 25x05
 344 600 l 25
 344 500 l 25x0a80
 419 500 l 25
 419 400 l 25x1440
 494 400 l 25
 494 300 l 25x1420
 419 300 l 25x1440
 419 200 l 25x2040
 344 200 l 25x2080
 344 100 l 25x4080
 269 100 l 25x41
 269 0 l 25
 156 0 l 25
 156 100 l 25x81
 231 100 l 25
 231 200 l 25xa080
 306 200 l 25
 306 300 l 25x5040
 381 300 l 25
 381 400 l 25x2820
 306 400 l 25x2840
 306 500 l 25x0440
 231 500 l 25x0480
 231 600 l 25x0280
 156 600 l 29x03
EndSplineSet
EndChar

StartChar: question
Encoding: 63 63 26
Width: 531
Flags: HW
HStem: 0 100<306 381> 200 100<306 381> 300 100<381 419> 600 100<231 419>
VStem: 156 75<400 600> 306 75<0 100 200 300> 381 75<300 400> 419 75<400 600>
LayerCount: 2
Back
Fore
SplineSet
306 300 m 1xdc
 381 300 l 1
 381 200 l 1
 306 200 l 1
 306 300 l 1xdc
381 0 m 25
 306 0 l 1
 306 100 l 25
 381 100 l 1
 381 0 l 25
156 600 m 25
 194 600 l 25
 194 700 l 25
 456 700 l 25
 456 600 l 25xba
 494 600 l 25
 494 400 l 25xb9
 456 400 l 25
 456 300 l 25xba
 381 300 l 25xdc
 381 400 l 25xba
 419 400 l 25
 419 600 l 25
 231 600 l 25
 231 400 l 25
 156 400 l 25xb9
 156 600 l 25
EndSplineSet
EndChar

StartChar: at
Encoding: 64 64 27
Width: 525
Flags: HW
HStem: -100 100<225 450> 100 100<338 412> 400 100<338 412> 600 100<225 412>
VStem: 112 75<100 500> 150 75<0 100 500 600> 262 75<200 400> 300 188<100 200 400 500> 412 75<200 400 500 600>
LayerCount: 2
Back
Fore
SplineSet
338 400 m 29xf280
 338 200 l 25
 412 200 l 25
 412 400 l 25
 338 400 l 29xf280
188 600 m 25xf8
 188 700 l 25
 450 700 l 25
 450 600 l 25
 488 600 l 25xf880
 488 100 l 25
 300 100 l 25
 300 200 l 25xf1
 262 200 l 25
 262 400 l 25xf2
 300 400 l 25
 300 500 l 25xf1
 412 500 l 25
 412 600 l 25
 225 600 l 25
 225 500 l 25xf480
 188 500 l 25
 188 100 l 25xf8
 225 100 l 25
 225 0 l 25xf4
 450 0 l 25
 450 -100 l 25
 188 -100 l 25
 188 0 l 25xf8
 150 0 l 25
 150 100 l 25xf4
 112 100 l 25
 112 500 l 25xf8
 150 500 l 25
 150 600 l 25xf4
 188 600 l 25xf8
EndSplineSet
EndChar

StartChar: A
Encoding: 65 65 28
Width: 525
Flags: HW
HStem: 0 21G<112 188 412 488> 200 100<188 412> 600 100<262 338>
VStem: 112 75<0 200 300 400> 150 75<400 500> 188 75<500 600> 338 75<500 600> 375 75<400 500> 412 75<0 200 300 400>
LayerCount: 2
Back
Fore
SplineSet
188 400 m 29xf0
 188 300 l 25
 412 300 l 25
 412 400 l 25xf080
 375 400 l 25
 375 500 l 25xe1
 338 500 l 25
 338 600 l 25
 262 600 l 25
 262 500 l 25xe6
 225 500 l 25
 225 400 l 25xe8
 188 400 l 29xf0
188 0 m 25
 112 0 l 25
 112 400 l 25xf080
 150 400 l 25
 150 500 l 25xe8
 188 500 l 25
 188 600 l 25xe4
 225 600 l 25
 225 700 l 25
 374 700 l 25
 375 600 l 25xe9
 412 600 l 25
 412 500 l 25xe2
 450 500 l 25
 450 400 l 25xe1
 488 400 l 25
 488 0 l 25
 412 0 l 25
 412 200 l 25
 188 200 l 25
 188 0 l 25
EndSplineSet
EndChar

StartChar: B
Encoding: 66 66 29
Width: 531
Flags: HW
HStem: 0 100<231 419> 300 100<231 419> 600 100<231 419>
VStem: 156 300<0 100 300 400 600 700> 156 75<100 300 400 600> 419 75<100 300 400 600>
CounterMasks: 1 e0
LayerCount: 2
Back
Fore
SplineSet
231 600 m 29xec
 231 400 l 25
 419 400 l 25
 419 600 l 25
 231 600 l 29xec
231 300 m 25
 231 100 l 25
 419 100 l 25
 419 300 l 25
 231 300 l 25
156 0 m 25xf0
 156 700 l 25
 456 700 l 25
 456 600 l 25xf0
 494 600 l 25
 494 400 l 25xe4
 456 400 l 25
 456 300 l 25xf0
 494 300 l 25
 494 100 l 25xe4
 456 100 l 25
 456 0 l 25
 156 0 l 25xf0
EndSplineSet
EndChar

StartChar: C
Encoding: 67 67 30
Width: 531
Flags: HW
HStem: 0 100<269 419> 100 100<456 494> 500 100<456 494> 600 100<269 419>
VStem: 156 75<200 500> 194 75<100 200 500 600> 231 225<0 100 600 700> 419 75<100 200 500 600>
LayerCount: 2
Back
Fore
SplineSet
231 700 m 29x12
 456 700 l 25x12
 456 600 l 25x22
 494 600 l 25
 494 500 l 25
 419 500 l 25x21
 419 600 l 25
 269 600 l 25x15
 269 500 l 25x25
 231 500 l 25
 231 200 l 25x68
 269 200 l 25x64
 269 100 l 25
 419 100 l 25x85
 419 200 l 25
 494 200 l 25
 494 100 l 25x45
 456 100 l 25x42
 456 0 l 25
 231 0 l 25x82
 231 100 l 25x42
 194 100 l 25
 194 200 l 25x44
 156 200 l 25
 156 500 l 25x68
 194 500 l 25x64
 194 600 l 25x14
 231 600 l 25
 231 700 l 29x12
EndSplineSet
EndChar

StartChar: D
Encoding: 68 68 31
Width: 531
Flags: HW
HStem: 0 100<231 381> 600 100<231 381>
VStem: 156 75<100 600> 381 75<100 200 500 600> 419 75<200 500>
LayerCount: 2
Back
Fore
SplineSet
231 600 m 29xf0
 231 100 l 25
 381 100 l 25
 381 200 l 25xf0
 419 200 l 25
 419 500 l 25xe8
 381 500 l 25
 381 600 l 25
 231 600 l 29xf0
156 700 m 25
 419 700 l 25
 419 600 l 25xe8
 456 600 l 25
 456 500 l 25xf0
 494 500 l 25
 494 200 l 25xe8
 456 200 l 25
 456 100 l 25xf0
 419 100 l 25
 419 0 l 25xe8
 156 0 l 25
 156 700 l 25
EndSplineSet
EndChar

StartChar: E
Encoding: 69 69 32
Width: 531
Flags: HW
HStem: 0 100<231 494> 300 100<231 419> 600 100<231 494>
VStem: 156 75<100 300 400 600>
CounterMasks: 1 e0
LayerCount: 2
Back
Fore
SplineSet
494 600 m 29
 231 600 l 25
 231 400 l 25
 419 400 l 25
 419 300 l 25
 231 300 l 25
 231 100 l 25
 494 100 l 25
 494 0 l 25
 156 0 l 25
 156 700 l 25
 494 700 l 25
 494 600 l 29
EndSplineSet
EndChar

StartChar: F
Encoding: 70 70 33
Width: 531
Flags: HW
HStem: 0 21G<156 231> 300 100<231 419> 600 100<231 494>
VStem: 156 75<0 300 400 600>
LayerCount: 2
Back
Fore
SplineSet
231 0 m 29
 156 0 l 25
 156 700 l 25
 494 700 l 25
 494 600 l 25
 231 600 l 25
 231 400 l 25
 419 400 l 25
 419 300 l 25
 231 300 l 25
 231 0 l 29
EndSplineSet
EndChar

StartChar: G
Encoding: 71 71 34
Width: 531
Flags: HW
HStem: 0 100<231 419> 200 100<306 419> 500 100<456 494> 600 100<231 419>
VStem: 156 75<100 600> 419 75<100 200 500 600>
LayerCount: 2
Back
Fore
SplineSet
419 600 m 29xdc
 231 600 l 25
 231 100 l 25
 419 100 l 25
 419 200 l 25
 306 200 l 25
 306 300 l 25
 494 300 l 25
 494 100 l 25
 456 100 l 25
 456 0 l 25
 194 0 l 25
 194 100 l 25
 156 100 l 25
 156 600 l 25
 194 600 l 25
 194 700 l 25
 456 700 l 25xdc
 456 600 l 25
 494 600 l 25
 494 500 l 25
 419 500 l 25xec
 419 600 l 29xdc
EndSplineSet
EndChar

StartChar: H
Encoding: 72 72 35
Width: 531
Flags: HW
HStem: 0 21G<156 231 419 494> 300 100<231 419> 680 20G<156 231 419 494>
VStem: 156 75<0 300 400 700> 419 75<0 300 400 700>
LayerCount: 2
Back
Fore
SplineSet
156 700 m 29
 231 700 l 25
 231 400 l 25
 419 400 l 25
 419 700 l 25
 494 700 l 25
 494 0 l 25
 419 0 l 25
 419 300 l 25
 231 300 l 25
 231 0 l 25
 156 0 l 25
 156 700 l 29
EndSplineSet
EndChar

StartChar: I
Encoding: 73 73 36
Width: 525
Flags: HW
HStem: 0 100<150 262 338 450> 600 100<150 262 338 450>
VStem: 262 75<100 600>
LayerCount: 2
Back
Fore
SplineSet
150 700 m 29
 450 700 l 25
 450 600 l 25
 338 600 l 25
 338 100 l 25
 450 100 l 25
 450 0 l 25
 150 0 l 25
 150 100 l 25
 262 100 l 25
 262 600 l 25
 150 600 l 25
 150 700 l 29
EndSplineSet
EndChar

StartChar: J
Encoding: 74 74 37
Width: 531
Flags: HW
HStem: 0 100<231 419> 100 100<156 194> 680 20G<419 494>
VStem: 156 75<100 200> 419 75<100 700>
LayerCount: 2
Back
Fore
SplineSet
419 700 m 29xb8
 494 700 l 25
 494 100 l 25
 456 100 l 25x78
 456 0 l 25
 194 0 l 25xb8
 194 100 l 25
 156 100 l 25
 156 200 l 25
 231 200 l 25x78
 231 100 l 25
 419 100 l 25
 419 700 l 29xb8
EndSplineSet
EndChar

StartChar: K
Encoding: 75 75 38
Width: 531
Flags: HW
HStem: 0 100<419 494> 200 100<306 344> 300 100<231 269> 400 100<306 344> 600 100<419 494>
VStem: 156 75<0 300 400 700> 269 112<200 300 400 500> 344 75<100 200 500 600> 381 112<0 100 600 700>
LayerCount: 2
Back
Fore
SplineSet
156 700 m 29xae
 231 700 l 25
 231 400 l 25
 269 400 l 25xae
 269 500 l 25x9e
 344 500 l 25
 344 600 l 25x9d
 381 600 l 25
 381 700 l 25
 494 700 l 25
 494 600 l 25x9c80
 419 600 l 25
 419 500 l 25x9d
 381 500 l 25
 381 400 l 25
 306 400 l 25
 306 300 l 25xde
 381 300 l 25xae
 381 200 l 25xce
 419 200 l 25
 419 100 l 25xcd
 494 100 l 25
 494 0 l 25
 381 0 l 25
 381 100 l 25xcc80
 344 100 l 25
 344 200 l 25xcd
 269 200 l 25xce
 269 300 l 25
 231 300 l 25
 231 0 l 25
 156 0 l 25
 156 700 l 29xae
EndSplineSet
EndChar

StartChar: L
Encoding: 76 76 39
Width: 531
Flags: HW
HStem: 0 100<231 494> 680 20G<156 231>
VStem: 156 75<100 700>
LayerCount: 2
Back
Fore
SplineSet
156 700 m 29
 231 700 l 25
 231 100 l 25
 494 100 l 25
 494 0 l 25
 156 0 l 25
 156 700 l 29
EndSplineSet
EndChar

StartChar: M
Encoding: 77 77 40
Width: 525
Flags: HW
HStem: 0 21G<112 188 412 488> 680 20G<112 225 375 488>
VStem: 112 112<600 700> 112 75<0 500> 262 75<300 400> 375 112<600 700> 412 75<0 500>
LayerCount: 2
Back
Fore
SplineSet
188 0 m 29xd8
 112 0 l 25xd8
 112 700 l 25
 225 700 l 25
 225 600 l 25
 262 600 l 25
 262 500 l 25
 338 500 l 25
 338 600 l 25
 375 600 l 25
 375 700 l 25
 488 700 l 25xec
 488 0 l 25
 412 0 l 25
 412 500 l 25xca
 375 500 l 25
 375 400 l 25
 338 400 l 25
 338 300 l 25
 262 300 l 25
 262 400 l 25
 225 400 l 25
 225 500 l 25xec
 188 500 l 25
 188 0 l 29xd8
EndSplineSet
EndChar

StartChar: N
Encoding: 78 78 41
Width: 525
Flags: HW
HStem: 0 21G<112 188 375 488> 680 20G<112 225 412 488>
VStem: 112 112<600 700> 112 75<0 500> 225 75<400 500> 262 75<300 400> 300 75<200 300> 375 112<0 100> 412 75<200 700>
LayerCount: 2
Back
Fore
SplineSet
112 700 m 29xe0
 225 700 l 25
 225 600 l 25
 262 600 l 25
 262 500 l 25xe4
 300 500 l 25
 300 400 l 25xc8
 338 400 l 25
 338 300 l 25xc4
 375 300 l 25
 375 200 l 25
 412 200 l 25
 412 700 l 25
 488 700 l 25xc280
 488 0 l 25
 375 0 l 25
 375 100 l 25
 338 100 l 25
 338 200 l 25xc5
 300 200 l 25
 300 300 l 25xc2
 262 300 l 25
 262 400 l 25xc4
 225 400 l 25
 225 500 l 25
 188 500 l 25
 188 0 l 25
 112 0 l 25xd8
 112 700 l 29xe0
EndSplineSet
EndChar

StartChar: O
Encoding: 79 79 42
Width: 525
Flags: HW
HStem: 0 100<225 375> 600 100<225 375>
VStem: 112 75<200 500> 150 75<100 200 500 600> 188 225<0 100 600 700> 375 75<100 200 500 600> 412 75<200 500>
LayerCount: 2
Back
Fore
SplineSet
375 100 m 29xd4
 375 200 l 25xd4
 412 200 l 25
 412 500 l 25xc2
 375 500 l 25
 375 600 l 25
 225 600 l 25
 225 500 l 25xd4
 188 500 l 25
 188 200 l 25xe0
 225 200 l 25
 225 100 l 25
 375 100 l 29xd4
412 0 m 25xc8
 188 0 l 25
 188 100 l 25xc8
 150 100 l 25
 150 200 l 25xd0
 112 200 l 25
 112 500 l 25xe0
 150 500 l 25
 150 600 l 25xd0
 188 600 l 25
 188 700 l 25
 412 700 l 25
 412 600 l 25xc8
 450 600 l 25
 450 500 l 25xc4
 488 500 l 25
 488 200 l 25xc2
 450 200 l 25
 450 100 l 25xc4
 412 100 l 25
 412 0 l 25xc8
EndSplineSet
EndChar

StartChar: P
Encoding: 80 80 43
Width: 531
Flags: HW
HStem: 0 21G<156 231> 300 100<231 419> 600 100<231 419>
VStem: 156 75<0 300 400 600> 419 75<400 600>
LayerCount: 2
Back
Fore
SplineSet
231 600 m 29
 231 400 l 25
 419 400 l 25
 419 600 l 25
 231 600 l 29
156 700 m 25
 456 700 l 25
 456 650 l 25
 494 650 l 25
 494 400 l 25
 456 400 l 25
 456 300 l 25
 231 300 l 25
 231 0 l 25
 156 0 l 25
 156 700 l 25
EndSplineSet
EndChar

StartChar: Q
Encoding: 81 81 44
Width: 525
Flags: HW
HStem: -200 100<412 488> 0 100<188 300> 600 100<188 412>
VStem: 112 75<100 600> 300 75<100 200> 338 75<-100 0> 375 112<-200 -100> 412 75<100 600>
LayerCount: 2
Back
Fore
SplineSet
188 600 m 29xf9
 188 100 l 25
 300 100 l 25
 300 200 l 25
 375 200 l 25
 375 100 l 25
 412 100 l 25
 412 600 l 25
 188 600 l 29xf9
150 700 m 25
 450 700 l 25
 450 600 l 25
 488 600 l 25
 488 100 l 25xf1
 450 100 l 25
 450 0 l 25
 412 0 l 25
 412 -100 l 25xf4
 488 -100 l 25
 488 -200 l 25
 375 -200 l 25
 375 -100 l 25xf2
 338 -100 l 25
 338 0 l 25xf4
 150 0 l 25
 150 100 l 25
 112 100 l 25
 112 600 l 25
 150 600 l 25
 150 700 l 25
EndSplineSet
EndChar

StartChar: R
Encoding: 82 82 45
Width: 531
Flags: HW
HStem: 0 100<419 494> 300 100<231 306 381 419> 600 100<231 419>
VStem: 156 75<0 300 400 600> 306 75<200 300> 344 75<100 200> 381 112<0 100> 419 75<400 600>
CounterMasks: 1 e0
LayerCount: 2
Back
Fore
SplineSet
231 600 m 29xf1
 231 400 l 25
 419 400 l 25
 419 600 l 25
 231 600 l 29xf1
156 700 m 25
 456 700 l 25
 456 650 l 25
 494 650 l 25
 494 400 l 25
 456 400 l 25
 456 300 l 25
 381 300 l 25
 381 200 l 25xf9
 419 200 l 25
 419 100 l 25xf4
 494 100 l 25
 494 0 l 25
 381 0 l 25
 381 100 l 25xf2
 344 100 l 25
 344 200 l 25xf4
 306 200 l 25
 306 300 l 25xf8
 231 300 l 25
 231 0 l 25
 156 0 l 25
 156 700 l 25
EndSplineSet
EndChar

StartChar: S
Encoding: 83 83 46
Width: 531
Flags: HW
HStem: 0 100<194 419> 300 100<231 419> 600 100<231 456>
VStem: 156 75<400 600> 194 262<0 100 300 400 600 700> 419 75<100 300>
CounterMasks: 1 e0
LayerCount: 2
Back
Fore
SplineSet
194 600 m 29xe8
 194 700 l 25
 456 700 l 25
 456 600 l 25xe8
 231 600 l 25
 231 400 l 25xf0
 456 400 l 25
 456 300 l 25xe8
 494 300 l 25
 494 100 l 25xe4
 456 100 l 25
 456 0 l 25
 194 0 l 25
 194 100 l 25xe8
 419 100 l 25
 419 300 l 25xe4
 194 300 l 25
 194 400 l 25xe8
 156 400 l 25
 156 600 l 25xf0
 194 600 l 29xe8
EndSplineSet
EndChar

StartChar: T
Encoding: 84 84 47
Width: 525
Flags: HW
HStem: 0 21G<262 338> 600 100<112 262 338 488>
VStem: 262 75<0 600>
LayerCount: 2
Back
Fore
SplineSet
112 700 m 1
 488 700 l 5
 488 600 l 1
 338 600 l 1
 338 0 l 25
 262 0 l 25
 262 600 l 1
 112 600 l 1
 112 700 l 1
EndSplineSet
EndChar

StartChar: U
Encoding: 85 85 48
Width: 531
Flags: HW
HStem: 0 100<231 419> 680 20G<156 231 419 494>
VStem: 156 75<100 700> 419 75<100 700>
LayerCount: 2
Back
Fore
SplineSet
156 700 m 29
 231 700 l 25
 231 100 l 25
 419 100 l 25
 419 700 l 25
 494 700 l 25
 494 100 l 25
 456 100 l 25
 456 0 l 25
 194 0 l 25
 194 100 l 25
 156 100 l 25
 156 700 l 29
EndSplineSet
EndChar

StartChar: V
Encoding: 86 86 49
Width: 537
Flags: HW
HStem: 0 21G<312 388> 680 20G<162 238 462 538>
VStem: 162 75<500 700> 200 75<300 500> 238 75<200 300> 312 75<0 100> 388 75<200 300> 425 75<300 500> 462 75<500 700>
LayerCount: 2
Back
Fore
SplineSet
162 700 m 29xe0
 238 700 l 25
 238 500 l 25xe0
 275 500 l 25
 275 300 l 25xd0
 312 300 l 25
 312 200 l 25
 388 200 l 25
 388 300 l 25xca
 425 300 l 25
 425 500 l 25xc1
 462 500 l 25
 462 700 l 25
 538 700 l 25
 538 500 l 25xc080
 500 500 l 25
 500 300 l 25xc1
 462 300 l 25
 462 200 l 25xc2
 425 200 l 25
 425 100 l 25
 388 100 l 25
 388 0 l 25
 312 0 l 25
 312 100 l 25
 275 100 l 25
 275 200 l 25xd5
 238 200 l 25
 238 300 l 25xc8
 200 300 l 25
 200 500 l 25xd0
 162 500 l 25
 162 700 l 29xe0
EndSplineSet
EndChar

StartChar: W
Encoding: 87 87 50
Width: 525
Flags: HW
HStem: 0 21G<150 225 375 450> 680 20G<112 188 412 488>
VStem: 112 75<200 700> 150 112<100 200> 150 75<0 100> 262 75<300 400> 338 112<100 200> 375 75<0 100> 412 75<200 700>
LayerCount: 2
Back
Fore
SplineSet
112 700 m 29xe0
 188 700 l 25
 188 200 l 25xe0
 225 200 l 25
 225 300 l 25
 262 300 l 25
 262 400 l 25
 338 400 l 25
 338 300 l 25
 375 300 l 25
 375 200 l 25xcd
 412 200 l 25
 412 700 l 25
 488 700 l 25
 488 200 l 25xc080
 450 200 l 25xc2
 450 0 l 25
 375 0 l 25
 375 100 l 25xc1
 338 100 l 25
 338 200 l 25
 262 200 l 25
 262 100 l 25xd2
 225 100 l 25
 225 0 l 25
 150 0 l 25xc8
 150 200 l 25xd0
 112 200 l 25
 112 700 l 29xe0
EndSplineSet
EndChar

StartChar: X
Encoding: 88 88 51
Width: 525
Flags: HW
HStem: 0 100<150 188 412 450> 600 100<150 188 412 450>
VStem: 150 75<0 100 600 700> 188 75<100 200 500 600> 225 150<200 300 400 500> 338 75<100 200 500 600> 375 75<0 100 600 700>
LayerCount: 2
Back
Fore
SplineSet
150 700 m 29xe0
 225 700 l 25
 225 600 l 25xe0
 262 600 l 25
 262 500 l 25
 338 500 l 25
 338 600 l 25xd4
 375 600 l 25
 375 700 l 25
 450 700 l 25
 450 600 l 25xc2
 412 600 l 25
 412 500 l 25xc4
 375 500 l 25
 375 400 l 25xc8
 338 400 l 25
 338 300 l 25xc4
 375 300 l 25
 375 200 l 25xc8
 412 200 l 25
 412 100 l 25xc4
 450 100 l 25
 450 0 l 25
 375 0 l 25
 375 100 l 25xc2
 338 100 l 25
 338 200 l 25
 262 200 l 25
 262 100 l 25xd4
 225 100 l 25
 225 0 l 25
 150 0 l 25
 150 100 l 25xe0
 188 100 l 25
 188 200 l 25xd0
 225 200 l 25
 225 300 l 25xc8
 262 300 l 25
 262 400 l 25xd0
 225 400 l 25
 225 500 l 25xc8
 188 500 l 25
 188 600 l 25xd0
 150 600 l 25
 150 700 l 29xe0
EndSplineSet
EndChar

StartChar: Y
Encoding: 89 89 52
Width: 525
Flags: HW
HStem: 0 21G<262 338> 600 100<112 150 450 488>
VStem: 112 75<600 700> 150 75<500 600> 188 75<400 500> 262 75<0 300> 338 75<400 500> 375 75<500 600> 412 75<600 700>
LayerCount: 2
Back
Fore
SplineSet
112 700 m 29xe0
 188 700 l 25
 188 600 l 25xe0
 225 600 l 25
 225 500 l 25xd0
 262 500 l 25
 262 400 l 25
 338 400 l 25
 338 500 l 25xca
 375 500 l 25
 375 600 l 25xc1
 412 600 l 25
 412 700 l 25
 488 700 l 25
 488 600 l 25xc080
 450 600 l 25
 450 500 l 25xc1
 412 500 l 25
 412 400 l 25xc2
 375 400 l 25
 375 300 l 25
 338 300 l 25
 338 0 l 25
 262 0 l 25
 262 300 l 25
 225 300 l 25
 225 400 l 25xd5
 188 400 l 25
 188 500 l 25xc8
 150 500 l 25
 150 600 l 25xd0
 112 600 l 25
 112 700 l 29xe0
EndSplineSet
EndChar

StartChar: Z
Encoding: 90 90 53
Width: 525
Flags: HW
HStem: 0 100<150 188 262 450> 600 100<150 338 412 450>
VStem: 188 75<100 200> 225 75<200 300> 262 75<300 400> 300 75<400 500> 338 75<500 600>
LayerCount: 2
Back
Fore
SplineSet
150 700 m 29xc2
 450 700 l 25
 450 600 l 25
 412 600 l 25
 412 500 l 25xc2
 375 500 l 25
 375 400 l 25xc4
 338 400 l 25
 338 300 l 25xc8
 300 300 l 25
 300 200 l 25xd0
 262 200 l 25
 262 100 l 25
 450 100 l 25
 450 0 l 25
 150 0 l 25
 150 100 l 25
 188 100 l 25
 188 200 l 25xe0
 225 200 l 25
 225 300 l 25xd0
 262 300 l 25
 262 400 l 25xc8
 300 400 l 25
 300 500 l 25xc4
 338 500 l 25
 338 600 l 25
 150 600 l 25
 150 700 l 29xc2
EndSplineSet
EndChar

StartChar: a
Encoding: 97 97 54
Width: 525
Flags: HW
HStem: 0 100<188 375 450 487> 100 100<112 150> 200 100<188 375> 400 100<150 375>
VStem: 112 75<100 200> 375 75<100 200 300 400>
LayerCount: 2
Back
Fore
SplineSet
188 200 m 29xbc
 188 100 l 25
 375 100 l 25
 375 200 l 25
 188 200 l 29xbc
150 500 m 25
 412 500 l 25
 412 400 l 25
 450 400 l 25
 450 100 l 25
 487 100 l 25
 488 0 l 25
 150 0 l 25xbc
 150 100 l 25
 112 100 l 25
 112 200 l 25
 150 200 l 25x5c
 150 300 l 25
 375 300 l 25
 375 400 l 25
 150 400 l 25
 150 500 l 25
EndSplineSet
EndChar

StartChar: b
Encoding: 98 98 55
Width: 531
Flags: HW
HStem: 0 100<231 419> 300 100<231 269> 400 100<269 419> 680 20G<156 231>
VStem: 156 112<300 400> 156 75<100 300 400 700> 419 75<100 400>
LayerCount: 2
Back
Fore
SplineSet
419 400 m 29xb6
 269 400 l 25
 269 300 l 25xda
 231 300 l 25xd6
 231 100 l 25
 419 100 l 25
 419 400 l 29xb6
156 700 m 25xb6
 231 700 l 25
 231 400 l 25xd6
 269 400 l 25xda
 269 500 l 25xba
 456 500 l 25
 456 400 l 25
 494 400 l 25
 494 100 l 25
 456 100 l 25
 456 0 l 25
 156 0 l 25
 156 700 l 25xb6
EndSplineSet
EndChar

StartChar: c
Encoding: 99 99 56
Width: 531
Flags: HW
HStem: 0 100<269 494> 200 100<156 194> 400 100<269 494>
VStem: 156 75<200 300> 194 75<100 200 300 400>
CounterMasks: 1 e0
LayerCount: 2
Back
Fore
SplineSet
231 500 m 29xf0
 494 500 l 25
 494 400 l 25
 269 400 l 25
 269 300 l 25xe8
 231 300 l 25
 231 200 l 25xf0
 269 200 l 25
 269 100 l 25xe8
 494 100 l 25
 494 0 l 25
 231 0 l 25
 231 100 l 25xf0
 194 100 l 25
 194 200 l 25xe8
 156 200 l 25
 156 300 l 25xf0
 194 300 l 25
 194 400 l 25xe8
 231 400 l 25
 231 500 l 29xf0
EndSplineSet
EndChar

StartChar: d
Encoding: 100 100 57
Width: 531
Flags: HW
HStem: 0 100<231 419> 300 100<381 419> 400 100<231 381> 680 20G<419 494>
VStem: 156 75<100 400> 381 112<300 400> 419 75<100 300 400 700>
LayerCount: 2
Back
Fore
SplineSet
231 100 m 29xbc
 419 100 l 25
 419 300 l 25xda
 381 300 l 25
 381 400 l 25xdc
 231 400 l 25
 231 100 l 29xbc
419 700 m 25
 494 700 l 25
 494 0 l 25xda
 194 0 l 25
 194 100 l 25
 156 100 l 25
 156 400 l 25
 194 400 l 25
 194 500 l 25
 381 500 l 25xbc
 381 400 l 25xdc
 419 400 l 25
 419 700 l 25
EndSplineSet
EndChar

StartChar: e
Encoding: 101 101 58
Width: 531
Flags: HW
HStem: 0 100<231 456> 200 100<231 419> 400 100<231 419>
VStem: 156 75<100 200 300 400> 419 75<300 400>
CounterMasks: 1 e0
LayerCount: 2
Back
Fore
SplineSet
231 400 m 1
 231 300 l 1
 419 300 l 1
 419 400 l 1
 231 400 l 1
194 400 m 1
 194 500 l 1
 456 500 l 1
 456 400 l 25
 494 400 l 25
 494 200 l 1
 231 200 l 1
 231 100 l 1
 456 100 l 1
 456 0 l 1
 194 0 l 1
 194 100 l 1
 156 100 l 1
 156 400 l 5
 194 400 l 1
EndSplineSet
EndChar

StartChar: f
Encoding: 102 102 59
Width: 531
Flags: HW
HStem: 0 21G<231 306> 300 100<156 231 306 419> 600 100<306 494>
VStem: 231 75<0 300 400 600>
LayerCount: 2
Back
Fore
SplineSet
269 600 m 29
 269 700 l 25
 494 700 l 25
 494 600 l 25
 306 600 l 25
 306 400 l 25
 419 400 l 25
 419 300 l 25
 306 300 l 25
 306 0 l 25
 231 0 l 25
 231 300 l 25
 156 300 l 25
 156 400 l 25
 231 400 l 25
 231 600 l 25
 269 600 l 29
EndSplineSet
EndChar

StartChar: g
Encoding: 103 103 60
Width: 531
Flags: HW
HStem: -200 100<194 419> 0 100<231 381> 100 100<381 419> 300 100<381 419> 400 100<231 381>
VStem: 156 75<100 400> 194 188<0 100 400 498> 381 112<100 200 300 400> 419 75<-100 100 200 300 400 500>
LayerCount: 2
Back
Fore
SplineSet
231 400 m 29x8c
 231 100 l 25xcc
 381 100 l 25xca
 381 200 l 25xa1
 419 200 l 25
 419 300 l 25xb080
 381 300 l 25xb1
 381 400 l 25xb2
 231 400 l 29x8c
194 400 m 25xaa
 194 498 l 25xaa
 381 500 l 25xa9
 381 400 l 25
 419 400 l 25x9280
 419 500 l 25
 494 500 l 25
 494 -100 l 25
 456 -100 l 25
 456 -200 l 25
 194 -200 l 25
 194 -100 l 25
 419 -100 l 25
 419 100 l 25xaa80
 381 100 l 25
 381 0 l 25
 194 0 l 25xc280
 194 100 l 25xa280
 156 100 l 25
 156 400 l 25xac
 194 400 l 25xaa
EndSplineSet
EndChar

StartChar: h
Encoding: 104 104 61
Width: 531
Flags: HW
HStem: 0 21G<156 231 419 494> 300 100<231 269> 400 100<269 419> 680 20G<156 231>
VStem: 156 112<300 400> 156 75<0 300 400 700> 419 75<0 400>
LayerCount: 2
Back
Fore
SplineSet
156 700 m 29xd6
 231 700 l 25
 231 400 l 25xd6
 269 400 l 25xda
 269 500 l 25
 456 500 l 25
 456 400 l 25
 494 400 l 25
 494 0 l 25
 419 0 l 25
 419 400 l 25xba
 269 400 l 25
 269 300 l 25xda
 231 300 l 25
 231 0 l 25
 156 0 l 25
 156 700 l 29xd6
EndSplineSet
EndChar

StartChar: i
Encoding: 105 105 62
Width: 525
Flags: HW
HStem: 0 100<188 262 337 412> 400 100<225 262> 600 100<225 338>
VStem: 225 112<400 500 600 700> 262 75<100 400>
LayerCount: 2
Back
Fore
SplineSet
225 500 m 1xf0
 338 500 l 25xf0
 337 100 l 25
 412 100 l 25
 412 0 l 25
 188 0 l 25
 188 100 l 25
 262 100 l 25
 262 400 l 1xe8
 225 400 l 29
 225 500 l 1xf0
225 700 m 25
 338 700 l 25
 338 600 l 25
 225 600 l 25
 225 700 l 25
EndSplineSet
EndChar

StartChar: j
Encoding: 106 106 63
Width: 531
Flags: HW
HStem: -200 100<231 419> -100 100<156 194> 400 100<381 419> 600 100<381 493>
VStem: 156 75<-100 0> 381 112<400 500 600 700> 419 75<-100 400>
LayerCount: 2
Back
Fore
SplineSet
381 400 m 29xbc
 381 500 l 25
 494 500 l 25xbc
 494 -100 l 25
 456 -100 l 25x7a
 456 -200 l 25
 194 -200 l 25xba
 194 -100 l 25
 156 -100 l 25
 156 0 l 25
 231 0 l 25x7a
 231 -100 l 25
 419 -100 l 25
 419 400 l 25xba
 381 400 l 29xbc
381 700 m 25
 493 700 l 25
 494 600 l 25
 381 600 l 25
 381 700 l 25
EndSplineSet
EndChar

StartChar: k
Encoding: 107 107 64
Width: 525
Flags: HW
HStem: 0 100<375 450> 200 100<225 300> 400 100<375 450> 680 20G<150 225>
VStem: 150 75<0 200 300 700> 300 75<100 200 300 400> 338 112<0 100 400 500>
LayerCount: 2
Back
Fore
SplineSet
150 700 m 29xfc
 225 700 l 25
 225 300 l 25
 300 300 l 25
 300 400 l 25xfc
 338 400 l 25
 338 500 l 25
 450 500 l 25
 450 400 l 25xfa
 375 400 l 25
 375 300 l 25xfc
 338 300 l 25
 338 200 l 25xfa
 375 200 l 25
 375 100 l 25xfc
 450 100 l 25
 450 0 l 25
 338 0 l 25
 338 100 l 25xfa
 300 100 l 25
 300 200 l 25
 225 200 l 25
 225 0 l 25
 150 0 l 25
 150 700 l 29xfc
EndSplineSet
EndChar

StartChar: l
Encoding: 108 108 65
Width: 525
Flags: HW
HStem: 0 100<150 262 338 450> 650 100<188 262>
VStem: 262 75<100 650>
LayerCount: 2
Back
Fore
SplineSet
188 750 m 29
 338 750 l 25
 338 100 l 25
 450 100 l 25
 450 0 l 25
 150 0 l 25
 150 100 l 25
 262 100 l 25
 262 650 l 25
 188 650 l 25
 188 750 l 29
EndSplineSet
EndChar

StartChar: m
Encoding: 109 109 66
Width: 525
Flags: HW
HStem: 0 21G<112 188 262 338 412 488> 400 100<188 262 338 412>
VStem: 112 75<0 400> 262 75<0 400> 412 75<0 400>
CounterMasks: 1 38
LayerCount: 2
Back
Fore
SplineSet
112 0 m 29
 112 500 l 25
 449 500 l 25
 450 400 l 25
 488 400 l 25
 488 0 l 25
 412 0 l 25
 412 400 l 25
 338 400 l 25
 338 0 l 25
 262 0 l 25
 262 400 l 25
 188 400 l 25
 188 0 l 25
 112 0 l 29
EndSplineSet
EndChar

StartChar: n
Encoding: 110 110 67
Width: 531
Flags: HW
HStem: 0 21G<156 231 419 494> 300 100<231 269> 400 100<269 419>
VStem: 156 112<300 400> 156 75<0 300 400 500> 419 75<0 400>
LayerCount: 2
Back
Fore
SplineSet
156 0 m 29xcc
 156 500 l 25
 231 500 l 25xac
 231 400 l 25xcc
 269 400 l 25xd4
 269 500 l 25
 456 500 l 25
 456 400 l 25
 494 400 l 25
 494 0 l 25
 419 0 l 25
 419 400 l 25xb4
 269 400 l 25
 269 300 l 25xd4
 231 300 l 25
 231 0 l 25
 156 0 l 29xcc
EndSplineSet
EndChar

StartChar: o
Encoding: 111 111 68
Width: 531
Flags: HW
HStem: 0 100<231 419> 400 100<231 419>
VStem: 156 75<100 400> 419 75<100 400>
LayerCount: 2
Back
Fore
SplineSet
231 400 m 29
 231 100 l 25
 419 100 l 25
 419 400 l 25
 231 400 l 29
194 500 m 25
 456 500 l 25
 456 400 l 25
 494 400 l 25
 494 100 l 25
 456 100 l 25
 456 0 l 25
 194 0 l 25
 194 100 l 25
 156 100 l 25
 156 400 l 25
 194 400 l 25
 194 500 l 25
EndSplineSet
EndChar

StartChar: p
Encoding: 112 112 69
Width: 531
Flags: HW
HStem: -200 21G<156 231> 0 100<269 419> 100 100<231 269> 300 100<231 269> 400 100<269 419>
VStem: 156 112<100 200 300 400> 156 75<-200 100 200 300 400 500> 269 188<0 100 400 500> 419 75<100 400>
LayerCount: 2
Back
Fore
SplineSet
269 300 m 29x9480
 231 300 l 25
 231 200 l 25xb2
 269 200 l 25xb4
 269 100 l 25
 419 100 l 25
 419 400 l 25xcc80
 269 400 l 25
 269 300 l 29x9480
156 500 m 25xaa
 231 500 l 25xaa
 231 400 l 25x92
 269 400 l 25x94
 269 500 l 25
 456 500 l 25
 456 400 l 25x89
 494 400 l 25
 494 100 l 25xa880
 456 100 l 25xa9
 456 0 l 25
 269 0 l 25xc1
 269 100 l 25xc4
 231 100 l 25
 231 -200 l 25
 156 -200 l 25
 156 500 l 25xaa
EndSplineSet
EndChar

StartChar: q
Encoding: 113 113 70
Width: 531
Flags: HW
HStem: -200 21G<419 494> 0 100<231 381> 100 100<381 419> 300 100<381 419> 400 100<231 381>
VStem: 156 75<100 400> 194 188<0 100 400 500> 381 112<100 200 300 400> 419 75<-200 100 200 300 400 500>
LayerCount: 2
Back
Fore
SplineSet
231 400 m 29x8c
 231 100 l 25xcc
 381 100 l 25xca
 381 200 l 25xa1
 419 200 l 25
 419 300 l 25xb080
 381 300 l 25xb1
 381 400 l 25xb2
 231 400 l 29x8c
194 500 m 25xaa
 381 500 l 25xaa
 381 400 l 25
 419 400 l 25x9280
 419 500 l 25
 494 500 l 25
 494 -200 l 25
 419 -200 l 25
 419 100 l 25xaa80
 381 100 l 25
 381 0 l 25
 194 0 l 25xc280
 194 100 l 25xa280
 156 100 l 25
 156 400 l 25xac
 194 400 l 25
 194 500 l 25xaa
EndSplineSet
EndChar

StartChar: r
Encoding: 114 114 71
Width: 531
Flags: HW
HStem: 0 21G<156 231> 300 100<231 306> 400 100<306 494>
VStem: 156 75<0 300 400 500>
LayerCount: 2
Back
Fore
SplineSet
156 0 m 29xd0
 156 500 l 25
 231 500 l 25xb0
 231 400 l 25
 306 400 l 25xd0
 306 500 l 25
 494 500 l 25
 494 400 l 25xb0
 306 400 l 25
 306 300 l 25
 231 300 l 25
 231 0 l 25
 156 0 l 29xd0
EndSplineSet
EndChar

StartChar: s
Encoding: 115 115 72
Width: 531
Flags: HW
HStem: 0 100<194 419> 100 100<456 494> 200 100<231 419> 300 100<156 194> 400 100<231 456>
VStem: 156 75<300 400> 194 262<0 100 200 300 400 500> 419 75<100 200>
LayerCount: 2
Back
Fore
SplineSet
456 400 m 1x0a
 231 400 l 1
 231 300 l 1x2c
 456 300 l 1
 456 200 l 25x52
 494 200 l 25
 494 100 l 25x51
 456 100 l 25x52
 456 0 l 1
 194 0 l 5
 194 100 l 1x82
 419 100 l 1
 419 200 l 1xa1
 194 200 l 1xa2
 194 300 l 1x12
 156 300 l 1
 156 400 l 1x14
 194 400 l 1x12
 194 500 l 1
 456 500 l 1
 456 400 l 1x0a
EndSplineSet
EndChar

StartChar: t
Encoding: 116 116 73
Width: 531
Flags: HW
HStem: 0 100<306 494> 400 100<156 231 306 419> 680 20G<231 306>
VStem: 231 75<100 400 500 700>
LayerCount: 2
Back
Fore
SplineSet
231 700 m 25
 306 700 l 25
 306 500 l 1
 419 500 l 5
 419 400 l 1
 306 400 l 1
 306 100 l 25
 494 100 l 25
 494 0 l 25
 269 0 l 25
 269 100 l 25
 231 100 l 25
 231 400 l 25
 156 400 l 25
 156 500 l 25
 231 500 l 25
 231 700 l 25
EndSplineSet
EndChar

StartChar: u
Encoding: 117 117 74
Width: 531
Flags: HW
HStem: 0 100<231 381> 100 100<381 419> 480 20G<156 231 419 494>
VStem: 156 75<100 500> 381 112<100 200> 419 75<0 100 200 500>
LayerCount: 2
Back
Fore
SplineSet
156 500 m 29x78
 231 500 l 25
 231 100 l 25
 381 100 l 25xb8
 381 200 l 25x78
 419 200 l 25x74
 419 500 l 25
 494 500 l 25
 494 0 l 25
 419 0 l 25xb4
 419 100 l 25x74
 381 100 l 25
 381 0 l 25
 194 0 l 25xb8
 194 100 l 25
 156 100 l 25
 156 500 l 29x78
EndSplineSet
EndChar

StartChar: v
Encoding: 118 118 75
Width: 525
Flags: HW
HStem: 0 21G<262 338> 400 100<112 150 450 488>
VStem: 112 75<400 500> 150 75<300 400> 188 75<200 300> 262 75<0 100> 338 75<200 300> 375 75<300 400> 412 75<400 500>
LayerCount: 2
Back
Fore
SplineSet
112 500 m 29xe0
 188 500 l 25
 188 400 l 25xe0
 225 400 l 25
 225 300 l 25xd0
 262 300 l 25
 262 200 l 25
 338 200 l 25
 338 300 l 25xca
 375 300 l 25
 375 400 l 25xc1
 412 400 l 25
 412 500 l 25
 488 500 l 25
 488 400 l 25xc080
 450 400 l 25
 450 300 l 25xc1
 412 300 l 25
 412 200 l 25xc2
 375 200 l 25
 375 100 l 25
 338 100 l 25
 338 0 l 25
 262 0 l 25
 262 100 l 25
 225 100 l 25
 225 200 l 25xd5
 188 200 l 25
 188 300 l 25xc8
 150 300 l 25
 150 400 l 25xd0
 112 400 l 25
 112 500 l 29xe0
EndSplineSet
EndChar

StartChar: w
Encoding: 119 119 76
Width: 525
Flags: HW
HStem: 0 100<225 262 338 375> 480 20G<112 188 412 488>
VStem: 112 75<200 500> 150 75<100 200> 262 75<100 400> 375 75<100 200> 412 75<200 500>
LayerCount: 2
Back
Fore
SplineSet
412 500 m 29xca
 488 500 l 25
 488 200 l 25xca
 450 200 l 25
 450 100 l 25xcc
 412 100 l 25
 412 0 l 25
 338 0 l 25
 338 100 l 25
 262 100 l 25
 262 0 l 25
 188 0 l 25
 188 100 l 25xea
 150 100 l 25
 150 200 l 25xd8
 112 200 l 25
 112 500 l 25
 188 500 l 25
 188 200 l 25xe8
 225 200 l 25
 225 100 l 25
 262 100 l 25
 262 400 l 25
 338 400 l 25
 338 100 l 25
 375 100 l 25
 375 200 l 25xdc
 412 200 l 25
 412 500 l 29xca
EndSplineSet
EndChar

StartChar: x
Encoding: 120 120 77
Width: 525
Flags: HW
HStem: 0 100<112 188 412 488> 200 100<262 338> 400 100<112 188 412 488>
VStem: 112 112<0 100 400 500> 188 75<100 200 300 400> 338 75<100 200 300 400> 375 112<0 100 400 500>
CounterMasks: 1 e0
LayerCount: 2
Back
Fore
SplineSet
112 500 m 29xf0
 225 500 l 25
 225 400 l 25xf0
 262 400 l 25
 262 300 l 25
 338 300 l 25
 338 400 l 25xec
 375 400 l 25
 375 500 l 25
 488 500 l 25
 488 400 l 25xe2
 412 400 l 25
 412 300 l 25xe4
 375 300 l 25
 375 200 l 25xe2
 412 200 l 25
 412 100 l 25xe4
 488 100 l 25
 488 0 l 25
 375 0 l 25
 375 100 l 25xe2
 338 100 l 25
 338 200 l 25
 262 200 l 25
 262 100 l 25xec
 225 100 l 25
 225 0 l 25
 112 0 l 25
 112 100 l 25xf0
 188 100 l 25
 188 200 l 25xe8
 225 200 l 25
 225 300 l 25xf0
 188 300 l 25
 188 400 l 25xe8
 112 400 l 25
 112 500 l 29xf0
EndSplineSet
EndChar

StartChar: y
Encoding: 121 121 78
Width: 531
Flags: HW
HStem: -200 100<156 231> 400 100<156 194 456 494>
VStem: 156 75<400 500> 194 75<300 400> 231 75<-100 0 200 300> 269 112<100 200> 269 75<0 100> 344 75<200 300> 381 75<300 400> 419 75<400 500>
LayerCount: 2
Back
Fore
SplineSet
156 500 m 29xe0
 231 500 l 25
 231 400 l 25xe0
 269 400 l 25
 269 300 l 25xd0
 306 300 l 25
 306 200 l 25
 344 200 l 25
 344 300 l 25xc9
 381 300 l 25
 381 400 l 25xc080
 419 400 l 25
 419 500 l 25
 494 500 l 25
 494 400 l 25xc040
 456 400 l 25
 456 300 l 25xc080
 419 300 l 25
 419 200 l 25xc1
 381 200 l 25
 381 100 l 25xc4
 344 100 l 25
 344 0 l 25xc2
 306 0 l 25
 306 -100 l 25xc8
 269 -100 l 25
 269 -200 l 25
 156 -200 l 25
 156 -100 l 25xe2
 231 -100 l 25
 231 0 l 25xc8
 269 0 l 25xc2
 269 200 l 25xc4
 231 200 l 25
 231 300 l 25xc8
 194 300 l 25
 194 400 l 25xd0
 156 400 l 25
 156 500 l 29xe0
EndSplineSet
EndChar

StartChar: z
Encoding: 122 122 79
Width: 525
Flags: HW
HStem: 0 100<150 225 300 450> 400 100<150 300 375 450>
VStem: 225 75<100 200> 262 75<200 300> 300 75<300 400>
LayerCount: 2
Back
Fore
SplineSet
150 500 m 29xc8
 450 500 l 25
 450 400 l 25
 375 400 l 25
 375 300 l 25xc8
 338 300 l 25
 338 200 l 25xd0
 300 200 l 25
 300 100 l 25
 450 100 l 25
 450 0 l 25
 150 0 l 25
 150 100 l 25
 225 100 l 25
 225 200 l 25xe0
 262 200 l 25
 262 300 l 25xd0
 300 300 l 25
 300 400 l 25
 150 400 l 25
 150 500 l 29xc8
EndSplineSet
EndChar

StartChar: edieresis
Encoding: 235 235 82
Width: 531
Flags: HW
HStem: 0 100<231 456> 200 100<231 419> 400 100<231 419> 600 100<194 269 381 456>
VStem: 156 75<100 200 300 400> 194 75<600 700> 381 75<600 700> 419 75<300 400>
LayerCount: 2
Back
Fore
SplineSet
381 700 m 25xf2
 456 700 l 25
 456 600 l 25
 381 600 l 25
 381 700 l 25xf2
194 700 m 25xf4
 269 700 l 25
 269 600 l 25
 194 600 l 25
 194 700 l 25xf4
231 400 m 1xf9
 231 300 l 1
 419 300 l 1
 419 400 l 1
 231 400 l 1xf9
194 400 m 1xf4
 194 500 l 1
 456 500 l 1
 456 400 l 25xf6
 494 400 l 25
 494 200 l 1
 231 200 l 1
 231 100 l 1xf9
 456 100 l 1
 456 0 l 1
 194 0 l 1
 194 100 l 1xf6
 156 100 l 1
 156 400 l 5xf8
 194 400 l 1xf4
EndSplineSet
EndChar

StartChar: uni0401
Encoding: 1025 1025 97
Width: 531
Flags: HW
HStem: 0 100<231 494> 300 100<231 419> 500 100<231 494> 700 100<194 269 381 456>
VStem: 156 75<100 300 400 500> 194 75<700 800> 381 75<700 800>
LayerCount: 2
Back
Fore
SplineSet
381 700 m 25xf2
 381 800 l 25
 456 800 l 25
 456 700 l 25
 381 700 l 25xf2
194 700 m 25xf6
 194 800 l 25
 269 800 l 25
 269 700 l 25
 194 700 l 25xf6
494 500 m 1
 231 500 l 1
 231 400 l 1
 419 400 l 25
 419 300 l 25
 231 300 l 25
 231 100 l 25
 494 100 l 25
 494 0 l 25
 156 0 l 1
 156 600 l 1xfa
 494 600 l 1
 494 500 l 1
EndSplineSet
EndChar

StartChar: uni0402
Encoding: 1026 1026 98
Width: 531
Flags: HW
HStem: 0 100<344 456> 300 100<306 456> 600 100<119 231 306 419>
VStem: 231 75<0 300 400 600> 456 75<100 300>
CounterMasks: 1 e0
LayerCount: 2
Back
Fore
SplineSet
231 0 m 29
 231 600 l 25
 119 600 l 25
 119 700 l 25
 419 700 l 25
 419 600 l 25
 306 600 l 25
 306 400 l 25
 494 400 l 25
 494 300 l 25
 531 300 l 25
 531 100 l 25
 494 100 l 25
 494 0 l 25
 344 0 l 25
 344 100 l 25
 456 100 l 25
 456 300 l 25
 306 300 l 25
 306 0 l 25
 231 0 l 29
EndSplineSet
EndChar

StartChar: uni0403
Encoding: 1027 1027 99
Width: 531
Flags: HW
HStem: 0 21G<156 231> 500 100<231 269 344 494> 700 100<344 381>
VStem: 156 75<0 500> 269 75<600 700> 306 75<700 800>
LayerCount: 2
Back
Fore
SplineSet
156 0 m 29xf8
 156 600 l 25
 269 600 l 25
 269 700 l 25xf8
 306 700 l 25
 306 800 l 25
 381 800 l 25
 381 700 l 25xf4
 344 700 l 25
 344 600 l 25
 494 600 l 25
 494 500 l 25
 231 500 l 25
 231 0 l 25
 156 0 l 29xf8
EndSplineSet
EndChar

StartChar: uni0404
Encoding: 1028 1028 100
Width: 518
Flags: HW
HStem: 0 100<219 369> 100 100<406 444> 300 100<181 331> 500 100<406 444> 600 100<219 369>
VStem: 106 75<200 300 400 500> 144 75<100 200 500 600> 181 225<0 100 600 700> 369 75<100 200 500 600>
LayerCount: 2
Back
Fore
SplineSet
219 500 m 29x3280
 181 500 l 25
 181 400 l 25
 331 400 l 25
 331 300 l 25
 181 300 l 25
 181 200 l 25x74
 219 200 l 25x72
 219 100 l 25
 369 100 l 25xa280
 369 200 l 25
 444 200 l 25
 444 100 l 25x6280
 406 100 l 25x61
 406 0 l 25
 181 0 l 25xa1
 181 100 l 25x61
 144 100 l 25
 144 200 l 25x62
 106 200 l 25
 106 500 l 25x74
 144 500 l 25x72
 144 600 l 25x2a
 181 600 l 25
 181 700 l 25
 406 700 l 25x29
 406 600 l 25x31
 444 600 l 25
 444 500 l 25
 369 500 l 25x3080
 369 600 l 25
 219 600 l 25x2a80
 219 500 l 29x3280
EndSplineSet
EndChar

StartChar: uni0405
Encoding: 1029 1029 101
Width: 531
Flags: HW
HStem: 0 100<194 419> 300 100<231 419> 600 100<231 456>
VStem: 156 75<400 600> 194 262<0 100 300 400 600 700> 419 75<100 300>
CounterMasks: 1 e0
LayerCount: 2
Back
Fore
SplineSet
194 600 m 29xe8
 194 700 l 25
 456 700 l 25
 456 600 l 25xe8
 231 600 l 25
 231 400 l 25xf0
 456 400 l 25
 456 300 l 25xe8
 494 300 l 25
 494 100 l 25xe4
 456 100 l 25
 456 0 l 25
 194 0 l 25
 194 100 l 25xe8
 419 100 l 25
 419 300 l 25xe4
 194 300 l 25
 194 400 l 25xe8
 156 400 l 25
 156 600 l 25xf0
 194 600 l 29xe8
EndSplineSet
EndChar

StartChar: uni0406
Encoding: 1030 1030 102
Width: 525
Flags: HW
HStem: 0 100<150 262 338 450> 600 100<150 262 338 450>
VStem: 262 75<100 600>
LayerCount: 2
Back
Fore
SplineSet
150 700 m 29
 450 700 l 25
 450 600 l 25
 338 600 l 25
 338 100 l 25
 450 100 l 25
 450 0 l 25
 150 0 l 25
 150 100 l 25
 262 100 l 25
 262 600 l 25
 150 600 l 25
 150 700 l 29
EndSplineSet
EndChar

StartChar: uni0407
Encoding: 1031 1031 103
Width: 525
Flags: HMW
LayerCount: 2
Back
Fore
SplineSet
338 700 m 1
 338 800 l 1
 412 800 l 1
 412 700 l 5
 338 700 l 1
188 700 m 1
 188 800 l 25
 262 800 l 25
 262 700 l 1
 188 700 l 1
150 500 m 25
 150 600 l 25
 450 600 l 25
 450 500 l 25
 338 500 l 25
 338 100 l 25
 450 100 l 25
 450 0 l 25
 150 0 l 25
 150 100 l 25
 262 100 l 25
 262 500 l 25
 150 500 l 25
EndSplineSet
EndChar

StartChar: uni0408
Encoding: 1032 1032 104
Width: 531
Flags: HW
HStem: 0 100<231 419> 100 100<156 194> 680 20G<419 494>
VStem: 156 75<100 200> 419 75<100 700>
LayerCount: 2
Back
Fore
SplineSet
419 700 m 29xb8
 494 700 l 25
 494 100 l 25
 456 100 l 25x78
 456 0 l 25
 194 0 l 25xb8
 194 100 l 25
 156 100 l 25
 156 200 l 25
 231 200 l 25x78
 231 100 l 25
 419 100 l 25
 419 700 l 29xb8
EndSplineSet
EndChar

StartChar: uni0409
Encoding: 1033 1033 105
Width: 531
Flags: HW
HStem: 0 100<119 156 381 456> 300 100<381 456> 600 100<231 306>
VStem: 119 75<0 100> 156 75<100 600> 306 188<0 50 300 400> 306 75<100 300 400 600> 456 75<100 300>
CounterMasks: 1 e0
LayerCount: 2
Back
Fore
SplineSet
381 100 m 29xe3
 456 100 l 25
 456 300 l 25
 381 300 l 25
 381 100 l 29xe3
119 0 m 25xf0
 119 100 l 25xf0
 156 100 l 25
 156 600 l 25xe8
 194 600 l 25
 194 700 l 25
 381 700 l 25
 381 400 l 25xf2
 494 400 l 25
 494 300 l 25xe4
 531 300 l 25
 531 50 l 25xe1
 494 50 l 25
 494 0 l 25
 306 0 l 25xe4
 306 600 l 25
 231 600 l 25
 231 100 l 25xea
 194 100 l 25
 194 0 l 25
 119 0 l 25xf0
EndSplineSet
EndChar

StartChar: uni040A
Encoding: 1034 1034 106
Width: 531
Flags: HW
HStem: 0 100<381 456> 300 100<194 306 381 456> 680 20G<119 194 306 381>
VStem: 119 75<0 300 400 700> 306 75<100 300 400 700> 456 75<100 300>
LayerCount: 2
Back
Fore
SplineSet
381 300 m 29
 381 100 l 25
 456 100 l 25
 456 300 l 25
 381 300 l 29
119 700 m 25
 194 700 l 25
 194 400 l 25
 306 400 l 25
 306 700 l 25
 381 700 l 25
 381 400 l 25
 494 400 l 25
 494 300 l 25
 531 300 l 25
 531 50 l 25
 494 50 l 25
 494 0 l 25
 306 0 l 25
 306 300 l 25
 194 300 l 25
 194 0 l 25
 119 0 l 25
 119 700 l 25
EndSplineSet
EndChar

StartChar: uni040B
Encoding: 1035 1035 107
Width: 531
Flags: HW
HStem: 0 21G<231 306 456 531> 300 100<306 456> 600 100<119 231 306 419>
VStem: 231 75<0 300 400 600> 456 75<0 300>
LayerCount: 2
Back
Fore
SplineSet
119 600 m 29
 119 700 l 25
 419 700 l 25
 419 600 l 25
 306 600 l 25
 306 400 l 25
 494 400 l 25
 494 300 l 25
 531 300 l 25
 531 0 l 25
 456 0 l 25
 456 300 l 25
 306 300 l 25
 306 0 l 25
 231 0 l 25
 231 600 l 25
 119 600 l 29
EndSplineSet
EndChar

StartChar: uni040C
Encoding: 1036 1036 108
Width: 525
Flags: HW
HStem: 0 100<375 450> 100 100<300 338> 400 100<300 338> 500 100<375 450> 600 100<262 300> 700 100<338 375>
VStem: 150 150<200 400> 150 75<0 200 400 600> 262 75<600 700> 300 75<700 800> 338 112<0 100 500 600>
LayerCount: 2
Back
Fore
SplineSet
150 0 m 29x8180
 150 600 l 25
 225 600 l 25
 225 400 l 25
 262 400 l 25xa980
 262 500 l 25x1180
 338 500 l 25x2020
 338 600 l 25x2880
 450 600 l 25
 450 500 l 25x1020
 375 500 l 25x1040
 375 400 l 25x2040
 300 400 l 25
 300 200 l 25x62
 375 200 l 25x6040
 375 100 l 25x8040
 450 100 l 25
 450 0 l 25
 338 0 l 25x8020
 338 100 l 25x4020
 262 100 l 25
 262 200 l 25
 225 200 l 25x4180
 225 0 l 25
 150 0 l 29x8180
262 600 m 25
 262 700 l 25x0880
 300 700 l 25x0840
 300 800 l 25
 375 800 l 25
 375 700 l 25x0440
 338 700 l 25x0480
 338 600 l 25
 262 600 l 25
EndSplineSet
EndChar

StartChar: uni040E
Encoding: 1038 1038 109
Width: 531
Flags: HW
HStem: 0 100<231 419> 100 100<156 194> 300 100<231 419> 680 20G<156 231 419 494> 700 100<306 344>
VStem: 156 75<100 200 400 700> 306 38<700 800> 419 75<100 300 400 700>
CounterMasks: 1 07
LayerCount: 2
Back
Fore
SplineSet
306 700 m 29x2f
 306 800 l 25
 344 800 l 25
 344 700 l 25
 306 700 l 29x2f
156 700 m 25xb7
 231 700 l 25
 231 400 l 25
 419 400 l 25
 419 700 l 25
 494 700 l 25
 494 100 l 25
 456 100 l 25x77
 456 0 l 25
 194 0 l 25xa7
 194 100 l 25
 156 100 l 25
 156 200 l 25
 231 200 l 25x67
 231 100 l 25
 419 100 l 25
 419 300 l 25
 194 300 l 25
 194 400 l 25
 156 400 l 25
 156 700 l 25xb7
EndSplineSet
EndChar

StartChar: uni040F
Encoding: 1039 1039 110
Width: 537
Flags: HW
HStem: -200 21G<312 388> 0 100<238 312 388 462> 680 20G<162 238 462 538>
VStem: 162 75<100 700> 312 75<-200 0> 462 75<100 700>
CounterMasks: 1 1c
LayerCount: 2
Back
Fore
SplineSet
162 0 m 29
 162 700 l 25
 238 700 l 25
 238 100 l 25
 462 100 l 25
 462 700 l 25
 538 700 l 25
 538 0 l 25
 388 0 l 25
 388 -200 l 25
 312 -200 l 25
 312 0 l 25
 162 0 l 29
EndSplineSet
EndChar

StartChar: uni0410
Encoding: 1040 1040 111
Width: 525
Flags: HW
HStem: 0 21G<112 188 412 488> 200 100<188 412> 600 100<262 338>
VStem: 112 75<0 200 300 400> 150 75<400 500> 188 75<500 600> 338 75<500 600> 375 75<400 500> 412 75<0 200 300 400>
LayerCount: 2
Back
Fore
SplineSet
188 400 m 29xf0
 188 300 l 25
 412 300 l 25
 412 400 l 25xf080
 375 400 l 25
 375 500 l 25xe1
 338 500 l 25
 338 600 l 25
 262 600 l 25
 262 500 l 25xe6
 225 500 l 25
 225 400 l 25xe8
 188 400 l 29xf0
188 0 m 25
 112 0 l 25
 112 400 l 25xf080
 150 400 l 25
 150 500 l 25xe8
 188 500 l 25
 188 600 l 25xe4
 225 600 l 25
 225 700 l 25
 374 700 l 25
 375 600 l 25xe9
 412 600 l 25
 412 500 l 25xe2
 450 500 l 25
 450 400 l 25xe1
 488 400 l 25
 488 0 l 25
 412 0 l 25
 412 200 l 25
 188 200 l 25
 188 0 l 25
EndSplineSet
EndChar

StartChar: uni0411
Encoding: 1041 1041 112
Width: 531
Flags: HW
HStem: 0 100<231 419> 300 100<231 419> 600 100<231 456>
VStem: 156 300<0 100 300 400 600 700> 156 75<100 300 400 600> 419 75<100 300>
CounterMasks: 1 e0
LayerCount: 2
Back
Fore
SplineSet
231 100 m 29xec
 419 100 l 25
 419 300 l 25
 231 300 l 25
 231 100 l 29xec
156 700 m 25xf0
 456 700 l 25
 456 600 l 25xf0
 231 600 l 25
 231 400 l 25xe8
 456 400 l 25
 456 300 l 25xf0
 494 300 l 25
 494 100 l 25xe4
 456 100 l 25
 456 0 l 25
 156 0 l 25
 156 700 l 25xf0
EndSplineSet
EndChar

StartChar: uni0412
Encoding: 1042 1042 113
Width: 531
Flags: HW
HStem: 0 100<231 419> 300 100<231 419> 600 100<231 419>
VStem: 156 300<0 100 300 400 600 700> 156 75<100 300 400 600> 419 75<100 300 400 600>
CounterMasks: 1 e0
LayerCount: 2
Back
Fore
SplineSet
231 600 m 29xec
 231 400 l 25
 419 400 l 25
 419 600 l 25
 231 600 l 29xec
231 300 m 25
 231 100 l 25
 419 100 l 25
 419 300 l 25
 231 300 l 25
156 0 m 25xf0
 156 700 l 25
 456 700 l 25
 456 600 l 25xf0
 494 600 l 25
 494 400 l 25xe4
 456 400 l 25
 456 300 l 25xf0
 494 300 l 25
 494 100 l 25xe4
 456 100 l 25
 456 0 l 25
 156 0 l 25xf0
EndSplineSet
EndChar

StartChar: uni0413
Encoding: 1043 1043 114
Width: 531
Flags: HW
HStem: 0 21G<156 231> 600 100<231 494>
VStem: 156 75<0 600>
LayerCount: 2
Back
Fore
SplineSet
156 700 m 29
 494 700 l 25
 494 600 l 25
 231 600 l 25
 231 0 l 25
 156 0 l 25
 156 700 l 29
EndSplineSet
EndChar

StartChar: uni0414
Encoding: 1044 1044 115
Width: 531
Flags: HW
HStem: 0 100<269 381> 600 100<306 381>
VStem: 156 75<-100 0> 194 75<100 500> 231 75<500 600> 381 75<100 600> 419 75<-100 0>
LayerCount: 2
Back
Fore
SplineSet
306 600 m 29xcc
 306 500 l 25xcc
 269 500 l 25
 269 100 l 25xd0
 381 100 l 25
 381 600 l 25
 306 600 l 29xcc
231 500 m 25
 231 600 l 25xc8
 269 600 l 25
 269 700 l 25
 456 700 l 25
 456 100 l 25xd4
 494 100 l 25
 494 -100 l 25
 419 -100 l 25
 419 0 l 25
 231 0 l 25
 231 -100 l 25
 156 -100 l 25
 156 100 l 25xe2
 194 100 l 25
 194 500 l 25xd0
 231 500 l 25
EndSplineSet
EndChar

StartChar: uni0415
Encoding: 1045 1045 116
Width: 531
Flags: HW
HStem: 0 100<231 494> 300 100<231 419> 600 100<231 494>
VStem: 156 75<100 300 400 600>
CounterMasks: 1 e0
LayerCount: 2
Back
Fore
SplineSet
494 600 m 29
 231 600 l 29
 231 400 l 29
 419 400 l 29
 419 300 l 29
 231 300 l 29
 231 100 l 29
 494 100 l 29
 494 0 l 29
 156 0 l 29
 156 700 l 29
 494 700 l 29
 494 600 l 29
EndSplineSet
EndChar

StartChar: uni0416
Encoding: 1046 1046 117
Width: 525
Flags: HW
HStem: 0 21G<112 188 262 338 412 488> 300 100<225 262 338 375> 680 20G<112 187 262 338 412 488>
VStem: 112 75<0 200 500 700> 150 75<200 300 400 500> 262 75<0 300 400 700> 375 75<200 300 400 500> 412 75<0 200 500 700>
LayerCount: 2
Back
Fore
SplineSet
112 700 m 29xf4
 187 700 l 25
 188 500 l 25xf4
 224 500 l 25
 225 400 l 25
 262 400 l 25
 262 700 l 25
 338 700 l 25
 338 400 l 25
 375 400 l 25
 375 500 l 25xee
 412 500 l 25
 412 700 l 25
 488 700 l 25
 488 500 l 25xe5
 450 500 l 25
 450 400 l 25xe6
 412 400 l 25xe5
 412 300 l 25
 450 300 l 25
 450 200 l 25xe6
 488 200 l 25
 488 0 l 25
 412 0 l 25
 412 200 l 25xe5
 375 200 l 25
 375 300 l 25
 338 300 l 25
 338 0 l 25
 262 0 l 25
 262 300 l 25
 225 300 l 25
 225 200 l 25xee
 188 200 l 25
 188 0 l 25
 112 0 l 25
 112 200 l 25xf4
 150 200 l 25
 150 300 l 25xec
 188 300 l 25
 188 400 l 25xf4
 150 400 l 25
 150 500 l 25xec
 112 500 l 25
 112 700 l 29xf4
EndSplineSet
EndChar

StartChar: uni0417
Encoding: 1047 1047 118
Width: 531
Flags: HW
HStem: 0 100<231 419> 100 100<156 194> 300 100<269 419> 500 100<156 194> 600 100<231 419>
VStem: 156 75<100 200 500 600> 419 75<100 300 400 600>
LayerCount: 2
Back
Fore
SplineSet
156 500 m 29x36
 156 600 l 1
 194 600 l 25x36
 194 700 l 25
 456 700 l 25
 456 600 l 25
 494 600 l 25
 494 400 l 25
 456 400 l 25
 456 300 l 25
 494 300 l 25
 494 100 l 25
 456 100 l 25x6e
 456 0 l 25
 194 0 l 25xa6
 194 100 l 25
 156 100 l 25
 156 200 l 25
 230 200 l 25x66
 231 100 l 25
 419 100 l 25
 419 300 l 25
 269 300 l 25
 269 400 l 25
 419 400 l 25
 419 600 l 25
 231 600 l 25xae
 231 500 l 1
 156 500 l 29x36
EndSplineSet
EndChar

StartChar: uni0418
Encoding: 1048 1048 119
Width: 525
Flags: HW
HStem: 0 21G<112 225 412 488> 680 20G<112 188 375 488>
VStem: 112 112<0 100> 112 75<200 700> 225 75<200 300> 262 75<300 400> 300 75<400 500> 375 112<600 700> 412 75<0 500>
LayerCount: 2
Back
Fore
SplineSet
112 700 m 29xd0
 188 700 l 29
 188 200 l 29
 225 200 l 29
 225 300 l 29xd8
 262 300 l 29
 262 400 l 29xc4
 300 400 l 29
 300 500 l 29xc2
 338 500 l 29
 338 600 l 29
 375 600 l 29
 375 700 l 29
 488 700 l 29xc5
 488 0 l 29
 412 0 l 29
 412 500 l 29
 375 500 l 29
 375 400 l 29xc280
 338 400 l 29
 338 300 l 29xc4
 300 300 l 29
 300 200 l 29xc8
 262 200 l 29
 262 100 l 29
 225 100 l 29
 225 0 l 29
 112 0 l 29xe4
 112 700 l 29xd0
EndSplineSet
EndChar

StartChar: uni0419
Encoding: 1049 1049 120
Width: 525
Flags: HW
HStem: 0 21G<112 225 412 488> 680 20G<112 188 375 488> 700 100<262 300>
VStem: 112 112<0 100> 112 75<200 700> 225 75<200 300> 262 75<300 400> 262 38<700 800> 300 75<400 500> 375 112<600 700> 412 75<0 500>
LayerCount: 2
Back
Fore
SplineSet
262 700 m 29xa1
 262 800 l 25
 300 800 l 25
 300 700 l 25
 262 700 l 29xa1
112 700 m 25xc8
 188 700 l 25
 188 200 l 25
 225 200 l 25
 225 300 l 25xcc
 262 300 l 25
 262 400 l 25xc2
 300 400 l 25
 300 500 l 25xc080
 338 500 l 25
 338 600 l 25
 375 600 l 25
 375 700 l 25
 488 700 l 25xc240
 488 0 l 25
 412 0 l 25
 412 500 l 25
 375 500 l 25
 375 400 l 25xc0a0
 338 400 l 25
 338 300 l 25xc2
 300 300 l 25
 300 200 l 25xc4
 262 200 l 25
 262 100 l 25
 225 100 l 25
 225 0 l 25
 112 0 l 25xd1
 112 700 l 25xc8
EndSplineSet
EndChar

StartChar: uni041A
Encoding: 1050 1050 121
Width: 531
Flags: HW
HStem: 0 100<419 494> 200 100<306 344> 300 100<231 269> 400 100<306 344> 600 100<419 494>
VStem: 156 75<0 300 400 700> 269 112<200 300 400 500> 344 75<100 200 500 600> 381 112<0 100 600 700>
LayerCount: 2
Back
Fore
SplineSet
156 700 m 29xae
 231 700 l 25
 231 400 l 25
 269 400 l 25xae
 269 500 l 25x9e
 344 500 l 25
 344 600 l 25x9d
 381 600 l 25
 381 700 l 25
 494 700 l 25
 494 600 l 25x9c80
 419 600 l 25
 419 500 l 25x9d
 381 500 l 25
 381 400 l 25
 306 400 l 25
 306 300 l 25xde
 381 300 l 25xae
 381 200 l 25xce
 419 200 l 25
 419 100 l 25xcd
 494 100 l 25
 494 0 l 25
 381 0 l 25
 381 100 l 25xcc80
 344 100 l 25
 344 200 l 25xcd
 269 200 l 25xce
 269 300 l 25
 231 300 l 25
 231 0 l 25
 156 0 l 25
 156 700 l 29xae
EndSplineSet
EndChar

StartChar: uni041B
Encoding: 1051 1051 122
Width: 531
Flags: HW
HStem: 0 100<156 194> 600 100<306 419>
VStem: 156 75<0 100> 194 75<100 200> 231 75<200 600> 419 75<0 600>
LayerCount: 2
Back
Fore
SplineSet
156 0 m 29xe4
 156 100 l 25xe4
 194 100 l 25
 194 200 l 25xd4
 231 200 l 25
 231 600 l 25xcc
 269 600 l 25
 269 700 l 25xd4
 494 700 l 25
 494 0 l 25
 419 0 l 25
 419 600 l 25
 306 600 l 25
 306 200 l 25xcc
 269 200 l 25
 269 100 l 25xd4
 231 100 l 25
 231 0 l 25
 156 0 l 29xe4
EndSplineSet
EndChar

StartChar: uni041C
Encoding: 1052 1052 123
Width: 525
Flags: HW
HStem: 0 21G<112 188 412 488> 680 20G<112 225 375 488>
VStem: 112 112<600 700> 112 75<0 500> 262 75<300 400> 375 112<600 700> 412 75<0 500>
LayerCount: 2
Back
Fore
SplineSet
188 0 m 29xd8
 112 0 l 25xd8
 112 700 l 25
 225 700 l 25
 225 600 l 25
 262 600 l 25
 262 500 l 25
 338 500 l 25
 338 600 l 25
 375 600 l 25
 375 700 l 25
 488 700 l 25xec
 488 0 l 25
 412 0 l 25
 412 500 l 25xca
 375 500 l 25
 375 400 l 25
 338 400 l 25
 338 300 l 25
 262 300 l 25
 262 400 l 25
 225 400 l 25
 225 500 l 25xec
 188 500 l 25
 188 0 l 29xd8
EndSplineSet
EndChar

StartChar: uni041D
Encoding: 1053 1053 124
Width: 531
Flags: HW
HStem: 0 21G<156 231 419 494> 300 100<231 419> 680 20G<156 231 419 494>
VStem: 156 75<0 300 400 700> 419 75<0 300 400 700>
LayerCount: 2
Back
Fore
SplineSet
156 700 m 29
 231 700 l 25
 231 400 l 25
 419 400 l 25
 419 700 l 25
 494 700 l 25
 494 0 l 25
 419 0 l 25
 419 300 l 25
 231 300 l 25
 231 0 l 25
 156 0 l 25
 156 700 l 29
EndSplineSet
EndChar

StartChar: uni041E
Encoding: 1054 1054 125
Width: 525
Flags: HW
HStem: 0 100<225 375> 600 100<225 375>
VStem: 112 75<200 500> 150 75<100 200 500 600> 188 225<0 100 600 700> 375 75<100 200 500 600> 412 75<200 500>
LayerCount: 2
Back
Fore
SplineSet
375 100 m 29xd4
 375 200 l 25xd4
 412 200 l 25
 412 500 l 25xc2
 375 500 l 25
 375 600 l 25
 225 600 l 25
 225 500 l 25xd4
 188 500 l 25
 188 200 l 25xe0
 225 200 l 25
 225 100 l 25
 375 100 l 29xd4
412 0 m 25xc8
 188 0 l 25
 188 100 l 25xc8
 150 100 l 25
 150 200 l 25xd0
 112 200 l 25
 112 500 l 25xe0
 150 500 l 25
 150 600 l 25xd0
 188 600 l 25
 188 700 l 25
 412 700 l 25
 412 600 l 25xc8
 450 600 l 25
 450 500 l 25xc4
 488 500 l 25
 488 200 l 25xc2
 450 200 l 25
 450 100 l 25xc4
 412 100 l 25
 412 0 l 25xc8
EndSplineSet
EndChar

StartChar: uni041F
Encoding: 1055 1055 126
Width: 531
Flags: HW
HStem: 0 21G<156 231 419 494> 600 100<231 419>
VStem: 156 75<0 600> 419 75<0 600>
LayerCount: 2
Back
Fore
SplineSet
156 700 m 29
 494 700 l 25
 494 0 l 25
 419 0 l 25
 419 600 l 25
 231 600 l 25
 231 0 l 25
 156 0 l 25
 156 700 l 29
EndSplineSet
EndChar

StartChar: uni0420
Encoding: 1056 1056 127
Width: 531
Flags: HW
HStem: 0 21G<156 231> 300 100<231 419> 600 100<231 419>
VStem: 156 75<0 300 400 600> 419 75<400 600>
LayerCount: 2
Back
Fore
SplineSet
231 600 m 29
 231 400 l 25
 419 400 l 25
 419 600 l 25
 231 600 l 29
156 700 m 25
 456 700 l 25
 456 650 l 25
 494 650 l 25
 494 400 l 25
 456 400 l 25
 456 300 l 25
 231 300 l 25
 231 0 l 25
 156 0 l 25
 156 700 l 25
EndSplineSet
EndChar

StartChar: uni0421
Encoding: 1057 1057 128
Width: 531
Flags: HW
HStem: 0 100<269 419> 100 100<456 494> 500 100<456 494> 600 100<269 419>
VStem: 156 75<200 500> 194 75<100 200 500 600> 231 225<0 100 600 700> 419 75<100 200 500 600>
LayerCount: 2
Back
Fore
SplineSet
231 700 m 29x12
 456 700 l 25x12
 456 600 l 25x22
 494 600 l 25
 494 500 l 25
 419 500 l 25x21
 419 600 l 25
 269 600 l 25x15
 269 500 l 25x25
 231 500 l 25
 231 200 l 25x68
 269 200 l 25x64
 269 100 l 25
 419 100 l 25x85
 419 200 l 25
 494 200 l 25
 494 100 l 25x45
 456 100 l 25x42
 456 0 l 25
 231 0 l 25x82
 231 100 l 25x42
 194 100 l 25
 194 200 l 25x44
 156 200 l 25
 156 500 l 25x68
 194 500 l 25x64
 194 600 l 25x14
 231 600 l 25
 231 700 l 29x12
EndSplineSet
EndChar

StartChar: uni0422
Encoding: 1058 1058 129
Width: 525
Flags: HW
HStem: 0 21G<262 338> 600 100<112 262 338 488>
VStem: 262 75<0 600>
LayerCount: 2
Back
Fore
SplineSet
112 700 m 1
 488 700 l 5
 488 600 l 1
 338 600 l 1
 338 0 l 25
 262 0 l 25
 262 600 l 1
 112 600 l 1
 112 700 l 1
EndSplineSet
EndChar

StartChar: uni0423
Encoding: 1059 1059 130
Width: 531
Flags: HW
HStem: 0 100<231 419> 100 100<156 194> 300 100<231 419> 680 20G<156 231 419 494>
VStem: 156 75<100 200 400 700> 419 75<100 300 400 700>
LayerCount: 2
Back
Fore
SplineSet
156 700 m 29xbc
 231 700 l 25
 231 400 l 25
 419 400 l 25
 419 700 l 25
 494 700 l 25
 494 100 l 25
 456 100 l 25x7c
 456 0 l 25
 194 0 l 25xbc
 194 100 l 25
 156 100 l 25
 156 200 l 25
 231 200 l 25x7c
 231 100 l 25
 419 100 l 25
 419 300 l 25
 194 300 l 25
 194 400 l 25
 156 400 l 25
 156 700 l 29xbc
EndSplineSet
EndChar

StartChar: uni0424
Encoding: 1060 1060 131
Width: 525
Flags: HW
HStem: 0 21G<262 338> 100 100<188 262 338 412> 500 100<188 262 338 412> 680 20G<262 338>
VStem: 112 75<200 500> 262 75<0 100 200 500 600 700> 412 75<200 500>
CounterMasks: 1 0e
LayerCount: 2
Back
Fore
SplineSet
338 500 m 29
 338 200 l 25
 412 200 l 25
 412 500 l 25
 338 500 l 29
188 500 m 25
 188 200 l 25
 262 200 l 25
 262 500 l 25
 188 500 l 25
262 600 m 25
 262 700 l 1
 338 700 l 25
 338 600 l 25
 450 600 l 25
 450 500 l 25
 488 500 l 25
 488 200 l 25
 450 200 l 25
 450 100 l 25
 338 100 l 25
 338 0 l 25
 262 0 l 25
 262 100 l 25
 150 100 l 25
 150 200 l 25
 112 200 l 25
 112 500 l 25
 150 500 l 25
 150 600 l 1
 262 600 l 25
EndSplineSet
EndChar

StartChar: uni0425
Encoding: 1061 1061 132
Width: 525
Flags: HW
HStem: 0 100<150 188 412 450> 600 100<150 188 412 450>
VStem: 150 75<0 100 600 700> 188 75<100 200 500 600> 225 150<200 300 400 500> 338 75<100 200 500 600> 375 75<0 100 600 700>
LayerCount: 2
Back
Fore
SplineSet
150 700 m 29xe0
 225 700 l 25
 225 600 l 25xe0
 262 600 l 25
 262 500 l 25
 338 500 l 25
 338 600 l 25xd4
 375 600 l 25
 375 700 l 25
 450 700 l 25
 450 600 l 25xc2
 412 600 l 25
 412 500 l 25xc4
 375 500 l 25
 375 400 l 25xc8
 338 400 l 25
 338 300 l 25xc4
 375 300 l 25
 375 200 l 25xc8
 412 200 l 25
 412 100 l 25xc4
 450 100 l 25
 450 0 l 25
 375 0 l 25
 375 100 l 25xc2
 338 100 l 25
 338 200 l 25
 262 200 l 25
 262 100 l 25xd4
 225 100 l 25
 225 0 l 25
 150 0 l 25
 150 100 l 25xe0
 188 100 l 25
 188 200 l 25xd0
 225 200 l 25
 225 300 l 25xc8
 262 300 l 25
 262 400 l 25xd0
 225 400 l 25
 225 500 l 25xc8
 188 500 l 25
 188 600 l 25xd0
 150 600 l 25
 150 700 l 29xe0
EndSplineSet
EndChar

StartChar: uni0426
Encoding: 1062 1062 133
Width: 531
Flags: HW
HStem: 0 100<231 344> 680 20G<156 231 344 419>
VStem: 156 75<100 700> 344 75<100 700> 419 75<-100 0>
LayerCount: 2
Back
Fore
SplineSet
156 700 m 29xe8
 231 700 l 25
 231 100 l 25
 344 100 l 25
 344 700 l 25
 419 700 l 25
 419 100 l 25xf0
 494 100 l 25
 494 -100 l 25
 419 -100 l 25
 419 0 l 25
 156 0 l 25
 156 700 l 29xe8
EndSplineSet
EndChar

StartChar: uni0427
Encoding: 1063 1063 134
Width: 531
Flags: HW
HStem: 0 21G<419 494> 300 100<269 419> 680 20G<156 231 419 494>
VStem: 156 75<500 700> 194 75<400 500> 419 75<0 300 400 700>
LayerCount: 2
Back
Fore
SplineSet
156 700 m 29xf4
 231 700 l 25
 231 500 l 25xf4
 269 500 l 25
 269 400 l 25xec
 419 400 l 25
 419 700 l 25
 494 700 l 25
 494 0 l 25
 419 0 l 25
 419 300 l 25
 231 300 l 25
 231 400 l 25xf4
 194 400 l 25
 194 500 l 25xec
 156 500 l 25
 156 700 l 29xf4
EndSplineSet
EndChar

StartChar: uni0428
Encoding: 1064 1064 135
Width: 525
Flags: HW
HStem: 0 100<188 262 338 412> 680 20G<112 188 262 338 412 488>
VStem: 112 75<100 700> 262 75<100 700> 412 75<100 700>
CounterMasks: 1 38
LayerCount: 2
Back
Fore
SplineSet
112 700 m 29
 188 700 l 25
 188 100 l 25
 262 100 l 25
 262 700 l 25
 338 700 l 25
 338 100 l 25
 412 100 l 25
 412 700 l 25
 488 700 l 25
 488 0 l 25
 112 0 l 25
 112 700 l 29
EndSplineSet
EndChar

StartChar: uni0429
Encoding: 1065 1065 136
Width: 531
Flags: HW
HStem: 0 100<194 269 344 419> 680 20G<119 194 269 344 419 494>
VStem: 119 75<100 700> 269 75<100 700> 419 75<100 700> 456 75<-100 0>
LayerCount: 2
Back
Fore
SplineSet
119 700 m 29xf4
 194 700 l 25
 194 100 l 25
 269 100 l 25
 269 700 l 25
 344 700 l 25
 344 100 l 25
 419 100 l 25
 419 700 l 25
 494 700 l 25
 494 100 l 25xf8
 531 100 l 25
 531 -100 l 25
 456 -100 l 25
 456 0 l 25
 119 0 l 25
 119 700 l 29xf4
EndSplineSet
EndChar

StartChar: uni042A
Encoding: 1066 1066 137
Width: 525
Flags: HW
HStem: 0 100<262 412> 300 100<262 412> 600 100<112 188>
VStem: 188 75<100 300 400 600> 412 75<100 300>
CounterMasks: 1 e0
LayerCount: 2
Back
Fore
SplineSet
262 300 m 29
 262 100 l 25
 412 100 l 25
 412 300 l 25
 262 300 l 29
112 700 m 25
 262 700 l 25
 262 400 l 25
 450 400 l 25
 450 300 l 25
 488 300 l 25
 488 100 l 25
 450 100 l 25
 450 0 l 25
 188 0 l 25
 188 600 l 25
 112 600 l 25
 112 700 l 25
EndSplineSet
EndChar

StartChar: uni042B
Encoding: 1067 1067 138
Width: 525
Flags: HW
HStem: 0 100<188 300> 300 100<188 300> 680 20G<112 188 412 488>
VStem: 112 225<0 100 300 400> 112 75<100 300 400 700> 300 75<100 300> 412 75<0 700>
LayerCount: 2
Back
Fore
SplineSet
300 300 m 29xee
 188 300 l 25
 188 100 l 25
 300 100 l 25
 300 300 l 29xee
412 700 m 25
 488 700 l 25
 488 0 l 25
 412 0 l 25
 412 700 l 25
112 700 m 25
 188 700 l 25
 188 400 l 25xea
 338 400 l 25
 338 300 l 25xf2
 375 300 l 25
 375 100 l 25xe6
 338 100 l 25
 338 0 l 25
 112 0 l 25xf2
 112 700 l 25
EndSplineSet
EndChar

StartChar: uni042C
Encoding: 1068 1068 139
Width: 537
Flags: HW
HStem: 0 100<275 425> 300 100<275 425> 680 20G<200 274>
VStem: 200 74<100 300 400 700> 425 75<101 300>
LayerCount: 2
Back
Fore
SplineSet
275 100 m 29
 425 100 l 25
 425 300 l 25
 275 300 l 25
 275 100 l 29
200 700 m 25
 274 700 l 25
 274 400 l 25
 462 400 l 25
 462 300 l 25
 498 300 l 25
 500 101 l 25
 462 100 l 25
 462 0 l 25
 200 0 l 25
 200 700 l 25
EndSplineSet
EndChar

StartChar: uni042D
Encoding: 1069 1069 140
Width: 531
Flags: HW
HStem: 0 100<231 381> 100 100<156 194> 300 100<269 419> 500 100<156 194> 600 100<231 381>
VStem: 156 75<100 200 500 600> 194 225<0 100 600 700> 381 75<100 200 500 600> 419 75<200 300 400 500>
LayerCount: 2
Back
Fore
SplineSet
156 500 m 29x35
 156 600 l 25x35
 194 600 l 25x32
 194 700 l 25
 419 700 l 25
 419 600 l 25x2a
 456 600 l 25x29
 456 500 l 25x31
 494 500 l 25
 494 200 l 25x7080
 456 200 l 25
 456 100 l 25x71
 419 100 l 25x72
 419 0 l 25
 194 0 l 25xa2
 194 100 l 25x62
 156 100 l 25
 156 200 l 25
 231 200 l 25x64
 231 100 l 25
 381 100 l 25xa5
 381 200 l 25x65
 419 200 l 25
 419 300 l 25
 269 300 l 25
 269 400 l 25
 419 400 l 25
 419 500 l 25x7080
 381 500 l 25x71
 381 600 l 25
 231 600 l 25x2d
 231 500 l 25
 156 500 l 29x35
EndSplineSet
EndChar

StartChar: uni042E
Encoding: 1070 1070 141
Width: 531
Flags: HW
HStem: 0 100<344 419> 300 100<231 269> 600 100<344 419>
VStem: 156 75<0 300 400 700> 269 75<100 300 400 600> 306 150<0 100 600 700> 419 75<100 600>
CounterMasks: 1 e0
LayerCount: 2
Back
Fore
SplineSet
344 600 m 29xfa
 344 100 l 25
 419 100 l 25
 419 600 l 25
 344 600 l 29xfa
156 700 m 25
 231 700 l 25
 231 400 l 25
 269 400 l 25
 269 600 l 25xf8
 306 600 l 25
 306 700 l 25
 456 700 l 25
 456 600 l 25xf4
 494 600 l 25
 494 100 l 25xf2
 456 100 l 25
 456 0 l 25
 306 0 l 25
 306 100 l 25xf4
 269 100 l 25
 269 300 l 25
 231 300 l 25
 231 0 l 25
 156 0 l 25
 156 700 l 25
EndSplineSet
EndChar

StartChar: uni042F
Encoding: 1071 1071 142
Width: 531
Flags: HW
HStem: 0 100<156 231> 300 100<231 306> 600 100<231 419>
VStem: 156 75<400 600> 231 112<100 200> 419 75<0 200 400 600>
CounterMasks: 1 e0
LayerCount: 2
Back
Fore
SplineSet
231 600 m 29xf4
 231 400 l 25
 419 400 l 25
 419 600 l 25
 231 600 l 29xf4
194 700 m 25
 494 700 l 25
 494 0 l 25
 419 0 l 25
 419 200 l 25
 344 200 l 25
 344 100 l 25xec
 306 100 l 25
 306 0 l 25
 156 0 l 25
 156 100 l 25xf4
 231 100 l 25
 231 200 l 25xec
 306 200 l 25
 306 300 l 25
 194 300 l 25
 194 400 l 25
 156 400 l 25
 156 600 l 25
 194 600 l 25
 194 700 l 25
EndSplineSet
EndChar

StartChar: uni0430
Encoding: 1072 1072 143
Width: 525
Flags: HW
HStem: 0 100<188 375 450 487> 100 100<112 150> 200 100<188 375> 400 100<150 375>
VStem: 112 75<100 200> 375 75<100 200 300 400>
LayerCount: 2
Back
Fore
SplineSet
188 200 m 29xbc
 188 100 l 25
 375 100 l 25
 375 200 l 25
 188 200 l 29xbc
150 500 m 25
 412 500 l 25
 412 400 l 25
 450 400 l 25
 450 100 l 25
 487 100 l 25
 488 0 l 25
 150 0 l 25xbc
 150 100 l 25
 112 100 l 25
 112 200 l 25
 150 200 l 25x5c
 150 300 l 25
 375 300 l 25
 375 400 l 25
 150 400 l 25
 150 500 l 25
EndSplineSet
EndChar

StartChar: uni0431
Encoding: 1073 1073 144
Width: 531
Flags: HW
HStem: 0 100<231 419> 300 200<306 419> 300 100<231 306> 600 100<194 231 306 494>
VStem: 156 75<100 300> 231 75<500 600> 306 112<400 500> 419 75<100 300>
LayerCount: 2
Back
Fore
SplineSet
231 300 m 29xb9
 231 100 l 25
 419 100 l 25
 419 300 l 25xd9
 231 300 l 29xb9
194 700 m 25
 494 700 l 25
 494 600 l 25
 306 600 l 25
 306 500 l 25xd5
 419 500 l 25xd2
 419 400 l 25xb2
 456 400 l 25
 456 300 l 25
 494 300 l 25
 494 100 l 25xb1
 456 100 l 25
 456 0 l 25
 194 0 l 25
 194 100 l 25
 156 100 l 25
 156 300 l 25
 194 300 l 25
 194 400 l 25
 306 400 l 25xba
 306 500 l 25
 231 500 l 25
 231 600 l 25xd4
 194 600 l 25
 194 700 l 25
EndSplineSet
EndChar

StartChar: uni0432
Encoding: 1074 1074 145
Width: 531
Flags: HW
HStem: 0 100<231 419> 100 100<456 494> 200 100<231 419> 300 100<456 494> 400 100<231 419>
VStem: 156 300<0 100 200 300 400 500> 156 75<100 200 300 400> 419 75<100 200 300 400>
LayerCount: 2
Back
Fore
SplineSet
231 200 m 29xa3
 231 100 l 25
 419 100 l 25
 419 200 l 25
 231 200 l 29xa3
231 400 m 25x2b
 231 300 l 25
 419 300 l 25
 419 400 l 25
 231 400 l 25x2b
156 500 m 25x8c
 456 500 l 25x8c
 456 400 l 25x14
 494 400 l 25
 494 300 l 25x11
 456 300 l 25
 456 200 l 25x54
 494 200 l 25
 494 100 l 25x51
 456 100 l 25x54
 456 0 l 25
 156 0 l 25
 156 500 l 25x8c
EndSplineSet
EndChar

StartChar: uni0433
Encoding: 1075 1075 146
Width: 531
Flags: HW
HStem: 0 21G<156 231> 400 100<231 494>
VStem: 156 75<0 400>
LayerCount: 2
Back
Fore
SplineSet
156 0 m 29
 156 500 l 25
 494 500 l 25
 494 401 l 25
 231 400 l 25
 231 0 l 25
 156 0 l 29
EndSplineSet
EndChar

StartChar: uni0434
Encoding: 1076 1076 147
Width: 525
Flags: HW
HStem: -100 200<112 187 412 488> -1 101<187 188 262 338> 400 100<262 338>
VStem: 112 75<-100 -1> 188 75<100 400> 338 75<100 400> 412 75<-100 0>
LayerCount: 2
Back
Fore
SplineSet
262 400 m 29x6c
 262 100 l 25
 338 100 l 25
 338 400 l 25
 262 400 l 29x6c
225 500 m 25
 412 500 l 25x6a
 412 100 l 25xa4
 488 100 l 25
 488 -100 l 25
 412 -100 l 25xa2
 412 0 l 25
 187 -1 l 25x62
 188 -100 l 25
 112 -100 l 25
 112 100 l 25xb2
 188 100 l 25
 188 400 l 25
 225 400 l 25
 225 500 l 25
EndSplineSet
EndChar

StartChar: uni0435
Encoding: 1077 1077 148
Width: 531
Flags: HW
HStem: 0 100<231 456> 200 100<231 419> 400 100<231 419>
VStem: 156 75<100 200 300 400> 419 75<300 400>
CounterMasks: 1 e0
LayerCount: 2
Back
Fore
SplineSet
231 400 m 1
 231 300 l 1
 419 300 l 1
 419 400 l 1
 231 400 l 1
194 400 m 1
 194 500 l 1
 456 500 l 1
 456 400 l 25
 494 400 l 25
 494 200 l 1
 231 200 l 1
 231 100 l 1
 456 100 l 1
 456 0 l 1
 194 0 l 1
 194 100 l 1
 156 100 l 1
 156 400 l 5
 194 400 l 1
EndSplineSet
EndChar

StartChar: uni0436
Encoding: 1078 1078 149
Width: 525
Flags: HW
HStem: 0 100<112 150 450 488> 200 100<225 262 338 375> 400 100<112 150 450 488>
VStem: 112 75<0 100 400 500> 150 75<100 200 300 400> 262 75<0 200 300 500> 375 75<100 200 300 400> 412 75<0 100 400 500>
CounterMasks: 1 e0
LayerCount: 2
Back
Fore
SplineSet
112 500 m 29xf4
 188 500 l 25
 188 400 l 25xf4
 225 400 l 25
 225 300 l 25
 262 300 l 25
 262 500 l 25
 338 500 l 25
 338 300 l 25
 375 300 l 25
 375 400 l 25xee
 412 400 l 25
 412 500 l 25
 488 500 l 25
 488 400 l 25xe5
 450 400 l 25
 450 300 l 25xe6
 412 300 l 25
 412 200 l 25xe5
 450 200 l 25
 450 100 l 25xe6
 488 100 l 25
 488 0 l 25
 412 0 l 25
 412 100 l 25xe5
 375 100 l 25
 375 200 l 25
 338 200 l 25
 338 0 l 25
 262 0 l 25
 262 200 l 25
 225 200 l 25
 225 100 l 25xee
 188 100 l 25
 188 0 l 25
 112 0 l 25
 112 100 l 25xf4
 150 100 l 25
 150 200 l 25xec
 188 200 l 25
 188 300 l 25xf4
 150 300 l 25
 150 400 l 25xec
 112 400 l 25
 112 500 l 29xf4
EndSplineSet
EndChar

StartChar: uni0437
Encoding: 1079 1079 150
Width: 531
Flags: HW
HStem: 0 100<231 419> 100 100<156 194 456 494> 300 100<156 194 456 494> 400 100<231 419>
VStem: 156 75<100 200 300 400> 419 75<100 200 300 400>
LayerCount: 2
Back
Fore
SplineSet
156 400 m 29x2c
 194 400 l 1x2c
 194 500 l 25
 456 500 l 25x1c
 456 400 l 25
 494 400 l 25
 494 300 l 25
 456 300 l 25
 456 200 l 25
 494 200 l 25
 494 100 l 25
 456 100 l 25x6c
 456 0 l 25
 194 0 l 25x8c
 194 100 l 25
 156 100 l 25
 156 200 l 25
 231 200 l 25x4c
 231 100 l 25
 419 100 l 25x8c
 419 200 l 25
 306 200 l 25
 306 300 l 25
 419 300 l 25x6c
 419 400 l 25
 231 400 l 25x1c
 231 300 l 25
 156 300 l 1
 156 400 l 29x2c
EndSplineSet
EndChar

StartChar: uni0438
Encoding: 1080 1080 151
Width: 531
Flags: HW
HStem: 0 100<231 269> 100 100<269 306> 200 100<306 344> 300 100<344 381> 400 100<381 419>
VStem: 156 112<0 100> 156 75<100 500> 269 38<100 200> 306 38<200 300> 344 38<300 400> 381 112<400 500> 419 75<0 400>
LayerCount: 2
Back
Fore
SplineSet
156 0 m 29x84
 156 500 l 5
 231 500 l 29
 231 100 l 29x8a
 269 100 l 29x8c
 269 200 l 29
 306 200 l 29x41
 306 300 l 29
 344 300 l 29x2080
 344 400 l 29
 381 400 l 29x1040
 381 500 l 29
 494 500 l 29x0820
 494 0 l 29
 419 0 l 29
 419 400 l 29x8810
 381 400 l 29
 381 300 l 29x1050
 344 300 l 29
 344 200 l 29x2080
 306 200 l 29
 306 100 l 29x41
 269 100 l 29
 269 0 l 5
 156 0 l 29x84
EndSplineSet
EndChar

StartChar: uni0439
Encoding: 1081 1081 152
Width: 531
Flags: HW
HStem: 0 100<231 269> 100 100<269 306> 200 100<306 344> 300 100<344 381> 400 100<381 419> 600 100<269 381> 700 100<194 231 419 456>
VStem: 156 75<100 500> 194 75<700 800> 269 38<100 200> 306 38<200 300> 344 38<300 400> 381 75<700 800> 419 75<0 400>
LayerCount: 2
Back
Fore
SplineSet
194 800 m 29x0280
 269 800 l 29x0280
 269 700 l 29
 381 700 l 29x0488
 381 800 l 29
 456 800 l 29
 456 700 l 29x0288
 419 700 l 29x0204
 419 600 l 29
 231 600 l 29x0504
 231 700 l 29x0304
 194 700 l 29
 194 800 l 29x0280
156 0 m 25x8140
 156 500 l 1
 231 500 l 25
 231 100 l 25
 269 100 l 25x8940
 269 200 l 25
 306 200 l 25x4140
 306 300 l 25
 344 300 l 25x2020
 344 400 l 25
 381 400 l 25x1010
 381 500 l 25x0808
 494 500 l 25
 494 0 l 25
 419 0 l 25
 419 400 l 25x8804
 381 400 l 25
 381 300 l 25x1014
 344 300 l 25
 344 200 l 25x2020
 306 200 l 25
 306 100 l 25x4040
 269 100 l 25
 269 0 l 1
 156 0 l 25x8140
EndSplineSet
EndChar

StartChar: uni043A
Encoding: 1082 1082 153
Width: 531
Flags: HW
HStem: 0 100<419 494> 200 100<231 344> 400 100<419 494>
VStem: 156 75<0 200 300 500> 344 75<100 200 300 400> 381 112<0 100 400 500>
CounterMasks: 1 e0
LayerCount: 2
Back
Fore
SplineSet
156 500 m 29xf8
 231 500 l 25
 231 300 l 25
 344 300 l 25
 344 400 l 25xf8
 381 400 l 25
 381 500 l 25
 494 500 l 25
 494 400 l 25xf4
 419 400 l 25
 419 300 l 25xf8
 381 300 l 25
 381 200 l 25xf4
 419 200 l 25
 419 100 l 25xf8
 494 100 l 25
 494 0 l 25
 381 0 l 25
 381 100 l 25xf4
 344 100 l 25
 344 200 l 25
 231 200 l 25
 231 0 l 25
 156 0 l 25
 156 500 l 29xf8
EndSplineSet
EndChar

StartChar: uni043B
Encoding: 1083 1083 154
Width: 531
Flags: HW
HStem: 0 100<156 194> 400 100<269 419>
VStem: 156 75<0 100> 194 75<100 400> 419 75<0 400>
LayerCount: 2
Back
Fore
SplineSet
156 100 m 29xe8
 194 100 l 25
 194 400 l 25xd8
 231 400 l 25
 231 500 l 25xe8
 494 500 l 25
 494 0 l 25
 419 0 l 25
 419 400 l 25
 269 400 l 25
 269 100 l 25xd8
 231 100 l 25
 231 0 l 25
 156 0 l 25
 156 100 l 29xe8
EndSplineSet
EndChar

StartChar: uni043C
Encoding: 1084 1084 155
Width: 531
Flags: HW
HStem: 0 21G<156 231 419 494> 480 20G<156 269 381 494>
VStem: 156 112<400 500> 156 75<0 300> 269 112<200 300> 381 112<400 500> 419 75<0 300>
LayerCount: 2
Back
Fore
SplineSet
156 0 m 29xda
 156 500 l 25
 269 500 l 25
 269 400 l 25
 306 400 l 25
 306 300 l 25
 344 300 l 25
 344 400 l 25
 381 400 l 25
 381 500 l 25
 494 500 l 25xe4
 494 0 l 25
 419 0 l 25
 419 300 l 25
 381 300 l 25
 381 200 l 25
 344 200 l 25
 344 100 l 25
 306 100 l 25
 306 200 l 25
 269 200 l 25
 269 300 l 25
 231 300 l 25
 231 0 l 25
 156 0 l 29xda
EndSplineSet
EndChar

StartChar: uni043D
Encoding: 1085 1085 156
Width: 525
Flags: HW
HStem: 0 21G<150 225 375 450> 200 100<225 375> 480 20G<150 225 375 450>
VStem: 150 75<0 200 300 500> 375 75<0 200 300 500>
LayerCount: 2
Back
Fore
SplineSet
150 500 m 25
 225 500 l 25
 225 300 l 1
 375 300 l 1
 375 500 l 5
 450 500 l 1
 450 0 l 1
 375 0 l 1
 375 200 l 1
 225 200 l 1
 225 0 l 25
 150 0 l 25
 150 500 l 25
EndSplineSet
EndChar

StartChar: uni043E
Encoding: 1086 1086 157
Width: 531
Flags: HW
HStem: 0 100<231 419> 400 100<231 419>
VStem: 156 75<100 400> 419 75<100 400>
LayerCount: 2
Back
Fore
SplineSet
231 400 m 29
 231 100 l 25
 419 100 l 25
 419 400 l 25
 231 400 l 29
194 500 m 25
 456 500 l 25
 456 400 l 25
 494 400 l 25
 494 100 l 25
 456 100 l 25
 456 0 l 25
 194 0 l 25
 194 100 l 25
 156 100 l 25
 156 400 l 25
 194 400 l 25
 194 500 l 25
EndSplineSet
EndChar

StartChar: uni043F
Encoding: 1087 1087 158
Width: 531
Flags: HW
HStem: 0 21G<156 231 419 494> 400 100<231 419>
VStem: 156 75<0 400> 419 75<0 400>
LayerCount: 2
Back
Fore
SplineSet
156 0 m 29
 156 500 l 25
 494 500 l 25
 494 0 l 25
 419 0 l 25
 419 400 l 25
 231 400 l 25
 231 0 l 25
 156 0 l 29
EndSplineSet
EndChar

StartChar: uni0440
Encoding: 1088 1088 159
Width: 531
Flags: HW
HStem: -200 21G<156 231> 0 100<269 419> 100 100<231 269> 300 100<231 269> 400 100<269 419>
VStem: 156 112<100 200 300 400> 156 75<-200 100 200 300 400 500> 269 188<0 100 400 500> 419 75<100 400>
LayerCount: 2
Back
Fore
SplineSet
269 300 m 29x9480
 231 300 l 25
 231 200 l 25xb2
 269 200 l 25xb4
 269 100 l 25
 419 100 l 25
 419 400 l 25xcc80
 269 400 l 25
 269 300 l 29x9480
156 500 m 25xaa
 231 500 l 25xaa
 231 400 l 25x92
 269 400 l 25x94
 269 500 l 25
 456 500 l 25
 456 400 l 25x89
 494 400 l 25
 494 100 l 25xa880
 456 100 l 25xa9
 456 0 l 25
 269 0 l 25xc1
 269 100 l 25xc4
 231 100 l 25
 231 -200 l 25
 156 -200 l 25
 156 500 l 25xaa
EndSplineSet
EndChar

StartChar: uni0441
Encoding: 1089 1089 160
Width: 531
Flags: HW
HStem: 0 100<269 494> 200 100<156 194> 400 100<269 494>
VStem: 156 75<200 300> 194 75<100 200 300 400>
CounterMasks: 1 e0
LayerCount: 2
Back
Fore
SplineSet
231 500 m 29xf0
 494 500 l 25
 494 400 l 25
 269 400 l 25
 269 300 l 25xe8
 231 300 l 25
 231 200 l 25xf0
 269 200 l 25
 269 100 l 25xe8
 494 100 l 25
 494 0 l 25
 231 0 l 25
 231 100 l 25xf0
 194 100 l 25
 194 200 l 25xe8
 156 200 l 25
 156 300 l 25xf0
 194 300 l 25
 194 400 l 25xe8
 231 400 l 25
 231 500 l 29xf0
EndSplineSet
EndChar

StartChar: uni0442
Encoding: 1090 1090 161
Width: 525
Flags: HW
HStem: 0 21G<262 338> 400 100<112 262 338 488>
VStem: 262 75<0 400>
LayerCount: 2
Back
Fore
SplineSet
112 500 m 1
 488 500 l 1
 488 400 l 5
 338 400 l 1
 338 0 l 25
 262 0 l 25
 262 400 l 1
 112 400 l 1
 112 500 l 1
EndSplineSet
EndChar

StartChar: uni0443
Encoding: 1091 1091 162
Width: 531
Flags: HW
HStem: -200 100<156 231> 400 100<156 194 456 494>
VStem: 156 75<400 500> 194 75<300 400> 231 75<-100 0 200 300> 269 112<100 200> 269 75<0 100> 344 75<200 300> 381 75<300 400> 419 75<400 500>
LayerCount: 2
Back
Fore
SplineSet
156 500 m 29xe0
 231 500 l 25
 231 400 l 25xe0
 269 400 l 25
 269 300 l 25xd0
 306 300 l 25
 306 200 l 25
 344 200 l 25
 344 300 l 25xc9
 381 300 l 25
 381 400 l 25xc080
 419 400 l 25
 419 500 l 25
 494 500 l 25
 494 400 l 25xc040
 456 400 l 25
 456 300 l 25xc080
 419 300 l 25
 419 200 l 25xc1
 381 200 l 25
 381 100 l 25xc4
 344 100 l 25
 344 0 l 25xc2
 306 0 l 25
 306 -100 l 25xc8
 269 -100 l 25
 269 -200 l 25
 156 -200 l 25
 156 -100 l 25xe2
 231 -100 l 25
 231 0 l 25xc8
 269 0 l 25xc2
 269 200 l 25xc4
 231 200 l 25
 231 300 l 25xc8
 194 300 l 25
 194 400 l 25xd0
 156 400 l 25
 156 500 l 29xe0
EndSplineSet
EndChar

StartChar: uni0444
Encoding: 1092 1092 163
Width: 525
Flags: HW
HStem: -200 21G<262 338> 0 100<188 262 338 412> 400 100<188 262 338 412> 680 20G<262 338>
VStem: 112 75<100 400> 262 75<-200 0 100 400 500 700> 412 75<100 400>
CounterMasks: 1 0e
LayerCount: 2
Back
Fore
SplineSet
262 400 m 29
 188 400 l 25
 188 100 l 25
 262 100 l 25
 262 400 l 29
338 400 m 25
 338 100 l 25
 412 100 l 25
 412 400 l 25
 338 400 l 25
262 700 m 25
 338 700 l 25
 338 500 l 25
 450 500 l 25
 450 400 l 25
 488 400 l 25
 488 100 l 25
 450 100 l 25
 450 0 l 25
 338 0 l 25
 338 -200 l 25
 262 -200 l 25
 262 0 l 25
 150 0 l 25
 150 100 l 25
 112 100 l 25
 112 400 l 25
 150 400 l 25
 150 500 l 25
 262 500 l 25
 262 700 l 25
EndSplineSet
EndChar

StartChar: uni0445
Encoding: 1093 1093 164
Width: 525
Flags: HW
HStem: 0 100<112 188 412 488> 200 100<262 338> 400 100<112 188 412 488>
VStem: 112 112<0 100 400 500> 188 75<100 200 300 400> 338 75<100 200 300 400> 375 112<0 100 400 500>
CounterMasks: 1 e0
LayerCount: 2
Back
Fore
SplineSet
112 500 m 29xf0
 225 500 l 25
 225 400 l 25xf0
 262 400 l 25
 262 300 l 25
 338 300 l 25
 338 400 l 25xec
 375 400 l 25
 375 500 l 25
 488 500 l 25
 488 400 l 25xe2
 412 400 l 25
 412 300 l 25xe4
 375 300 l 25
 375 200 l 25xe2
 412 200 l 25
 412 100 l 25xe4
 488 100 l 25
 488 0 l 25
 375 0 l 25
 375 100 l 25xe2
 338 100 l 25
 338 200 l 25
 262 200 l 25
 262 100 l 25xec
 225 100 l 25
 225 0 l 25
 112 0 l 25
 112 100 l 25xf0
 188 100 l 25
 188 200 l 25xe8
 225 200 l 25
 225 300 l 25xf0
 188 300 l 25
 188 400 l 25xe8
 112 400 l 25
 112 500 l 29xf0
EndSplineSet
EndChar

StartChar: uni0446
Encoding: 1094 1094 165
Width: 531
Flags: HW
HStem: 0 100<231 344> 480 20G<156 231 344 419>
VStem: 156 75<100 500> 344 75<100 500> 419 75<-100 0>
LayerCount: 2
Back
Fore
SplineSet
156 500 m 29xe8
 231 500 l 25
 231 100 l 25
 344 100 l 25
 344 500 l 25
 419 500 l 25
 419 100 l 25xf0
 494 100 l 25
 494 -100 l 25
 419 -100 l 25
 419 0 l 25
 156 0 l 25
 156 500 l 29xe8
EndSplineSet
EndChar

StartChar: uni0447
Encoding: 1095 1095 166
Width: 531
Flags: HW
HStem: 0 21G<419 494> 200 100<231 419> 480 20G<156 231 419 494>
VStem: 156 75<300 500> 419 75<0 200 300 500>
LayerCount: 2
Back
Fore
SplineSet
156 500 m 29
 231 500 l 25
 231 300 l 25
 419 300 l 25
 419 500 l 25
 494 500 l 25
 494 0 l 25
 419 0 l 25
 419 200 l 25
 194 200 l 25
 194 300 l 25
 156 300 l 25
 156 500 l 29
EndSplineSet
EndChar

StartChar: uni0448
Encoding: 1096 1096 167
Width: 525
Flags: HW
HStem: 0 100<188 262 338 412> 480 20G<112 188 262 338 412 488>
VStem: 112 75<100 500> 262 75<100 500> 412 75<100 500>
CounterMasks: 1 38
LayerCount: 2
Back
Fore
SplineSet
112 500 m 29
 188 500 l 25
 188 100 l 25
 262 100 l 25
 262 500 l 25
 338 500 l 25
 338 100 l 25
 412 100 l 25
 412 500 l 25
 488 500 l 25
 488 0 l 25
 112 0 l 25
 112 500 l 29
EndSplineSet
EndChar

StartChar: uni0449
Encoding: 1097 1097 168
Width: 531
Flags: HW
HStem: 0 100<194 269 344 419> 480 20G<119 194 269 344 419 494>
VStem: 119 75<100 500> 269 75<100 500> 419 75<100 500> 456 75<-100 0>
LayerCount: 2
Back
Fore
SplineSet
119 500 m 29xf4
 194 500 l 25
 194 100 l 25
 269 100 l 25
 269 500 l 25
 344 500 l 25
 344 100 l 25
 419 100 l 25
 419 500 l 25
 494 500 l 25
 494 100 l 25xf8
 531 100 l 25
 531 -100 l 25
 456 -100 l 25
 456 0 l 25
 119 0 l 25
 119 500 l 29xf4
EndSplineSet
EndChar

StartChar: uni044A
Encoding: 1098 1098 169
Width: 525
Flags: HW
HStem: 0 100<262 412> 100 100<450 488> 200 100<262 412> 400 100<112 188>
VStem: 188 75<100 200 300 400> 412 75<100 200>
LayerCount: 2
Back
Fore
SplineSet
262 200 m 29xbc
 262 100 l 25
 412 100 l 25
 412 200 l 25
 262 200 l 29xbc
112 500 m 25
 262 500 l 25
 262 300 l 25
 450 300 l 25xbc
 450 200 l 25
 488 200 l 25
 488 100 l 25
 450 100 l 25x5c
 450 0 l 25
 188 0 l 25
 188 400 l 25
 112 400 l 25
 112 500 l 25
EndSplineSet
EndChar

StartChar: uni044B
Encoding: 1099 1099 170
Width: 525
Flags: HW
HStem: 0 100<188 300> 100 100<338 375> 200 100<188 300> 480 20G<112 188 412 488>
VStem: 112 225<0 100 200 300> 112 75<100 200 300 500> 300 75<100 200> 412 75<0 500>
LayerCount: 2
Back
Fore
SplineSet
412 0 m 29x91
 412 500 l 25
 488 500 l 25
 488 0 l 25
 412 0 l 29x91
188 200 m 25xb7
 188 100 l 25
 300 100 l 25
 300 200 l 25
 188 200 l 25xb7
112 500 m 25
 188 500 l 25
 188 300 l 25xb5
 338 300 l 25xb9
 338 200 l 25x59
 375 200 l 25
 375 100 l 25x53
 338 100 l 25x59
 338 0 l 25
 112 0 l 25x99
 112 500 l 25
EndSplineSet
EndChar

StartChar: uni044C
Encoding: 1100 1100 171
Width: 531
Flags: HW
HStem: 0 100<231 419> 100 100<456 494> 200 100<231 419> 480 20G<156 231>
VStem: 156 75<100 200 300 500> 419 75<100 200>
LayerCount: 2
Back
Fore
SplineSet
231 100 m 1xbc
 419 100 l 1
 419 200 l 1
 231 200 l 1
 231 100 l 1xbc
156 500 m 1
 231 500 l 1
 231 300 l 5
 456 300 l 1xbc
 456 200 l 25
 494 200 l 25
 494 100 l 25
 456 100 l 25x5c
 456 0 l 1
 156 0 l 1
 156 500 l 1
EndSplineSet
EndChar

StartChar: uni044D
Encoding: 1101 1101 172
Width: 531
Flags: HW
HStem: 0 100<231 419> 100 100<156 194> 200 100<306 419> 300 100<156 194> 400 100<231 419>
VStem: 156 75<100 200 300 400> 419 75<100 200 300 400>
LayerCount: 2
Back
Fore
SplineSet
156 300 m 29x16
 156 400 l 25
 194 400 l 25x16
 194 500 l 25
 456 500 l 25
 456 400 l 25
 494 400 l 25
 494 100 l 25
 456 100 l 25x4e
 456 0 l 25
 194 0 l 25x86
 194 100 l 25
 156 100 l 25
 156 200 l 25x46
 231 200 l 25
 231 100 l 25
 419 100 l 25
 419 200 l 25
 306 200 l 25
 306 300 l 25
 419 300 l 25
 419 400 l 25
 231 400 l 25xae
 231 300 l 25
 156 300 l 29x16
EndSplineSet
EndChar

StartChar: uni044E
Encoding: 1102 1102 173
Width: 531
Flags: HW
HStem: 0 100<344 419> 200 100<231 269> 400 100<344 419>
VStem: 156 75<0 200 300 500> 269 75<100 200 300 400> 306 150<0 100 400 500> 419 75<100 400>
CounterMasks: 1 e0
LayerCount: 2
Back
Fore
SplineSet
344 100 m 29xfa
 419 100 l 25
 419 400 l 25
 344 400 l 25
 344 100 l 29xfa
156 0 m 25
 156 500 l 25
 231 500 l 25
 231 300 l 25
 269 300 l 25
 269 400 l 25xf8
 306 400 l 25
 306 500 l 25
 456 500 l 25
 456 400 l 25xf4
 494 400 l 25
 494 100 l 25xf2
 456 100 l 25
 456 0 l 25
 306 0 l 25
 306 100 l 25xf4
 269 100 l 25
 269 200 l 25
 231 200 l 25
 231 0 l 25
 156 0 l 25
EndSplineSet
EndChar

StartChar: uni044F
Encoding: 1103 1103 174
Width: 518
Flags: HW
HStem: 0 100<144 219> 200 100<181 219 331 369> 300 100<106 144> 400 100<181 369>
VStem: 106 75<300 400> 144 112<0 100> 219 112<100 200> 369 75<0 200 300 400>
LayerCount: 2
Back
Fore
SplineSet
181 400 m 29xd9
 181 300 l 25
 369 300 l 25
 369 400 l 25
 181 400 l 29xd9
106 400 m 25xa9
 144 400 l 25xa5
 144 500 l 25x95
 444 500 l 25
 444 0 l 25
 369 0 l 25
 369 200 l 25
 331 200 l 25
 331 100 l 25xd3
 256 100 l 25
 256 0 l 25
 144 0 l 25
 144 100 l 25xd5
 219 100 l 25
 219 200 l 25xd3
 144 200 l 25xd5
 144 300 l 25xa5
 106 300 l 25
 106 400 l 25xa9
EndSplineSet
EndChar

StartChar: uni2116
Encoding: 8470 8470 175
Width: 525
Flags: HW
HStem: 0 21G<75 150 225 300> 200 100<338 525> 400 100<412 450> 500 100<338 375 488 525> 600 100<412 450>
VStem: 75 112<400 600> 75 75<0 250 600 700> 188 112<100 250> 225 75<0 100 400 700> 338 75<500 600> 375 112<400 500 600 700> 450 75<500 600>
LayerCount: 2
Back
Fore
SplineSet
338 300 m 29xc050
 525 300 l 25
 525 200 l 25
 338 200 l 25
 338 300 l 29xc050
412 600 m 25xe850
 412 500 l 25
 450 500 l 25
 450 600 l 25
 412 600 l 25xe850
375 600 m 25xd020
 375 700 l 25
 488 700 l 25xc820
 488 600 l 25xd020
 525 600 l 25
 525 500 l 25xd010
 488 500 l 25xd020
 488 400 l 25
 375 400 l 25xe020
 375 500 l 25xd020
 338 500 l 25
 338 600 l 25xd040
 375 600 l 25xd020
75 0 m 25xeb
 75 700 l 25
 150 700 l 25
 150 600 l 25xeb
 188 600 l 25
 188 400 l 25
 225 400 l 25
 225 700 l 25
 300 700 l 25
 300 0 l 25
 225 0 l 25
 225 100 l 25xec80
 188 100 l 25
 188 250 l 25
 150 250 l 25
 150 0 l 25
 75 0 l 25xeb
EndSplineSet
EndChar

StartChar: asciitilde
Encoding: 126 126 176
Width: 531
Flags: HW
HStem: 500 100<156 194 344 419> 600 100<231 306 456 494>
VStem: 156 75<501 600> 419 75<600 700>
LayerCount: 2
Back
Fore
SplineSet
156 600 m 29xb0
 194 600 l 25xb0
 194 700 l 25
 344 700 l 25x70
 344 600 l 25
 419 600 l 25xb0
 419 700 l 25
 494 700 l 25
 494 600 l 25
 456 600 l 25x70
 456 500 l 25
 306 500 l 25xb0
 306 600 l 25
 231 600 l 25x70
 231 500 l 25
 156 501 l 25
 156 600 l 29xb0
EndSplineSet
EndChar

StartChar: section
Encoding: 167 167 177
Width: 525
Flags: HW
HStem: 0 100<188 300> 100 100<112 150> 200 100<262 300> 300 100<188 225 375 412> 400 100<300 338> 500 100<450 488> 600 100<300 412>
VStem: 112 75<100 200> 188 75<300 400> 225 75<500 600> 300 75<100 200> 338 75<300 400> 412 75<500 600>
LayerCount: 2
Back
Fore
SplineSet
338 400 m 29x0890
 262 400 l 25
 262 300 l 25x2890
 338 300 l 25x1090
 338 400 l 29x0890
412 500 m 25x0488
 412 600 l 25
 300 600 l 25
 300 500 l 25x0a48
 375 500 l 25
 375 400 l 25x1420
 412 400 l 25
 412 300 l 25x1410
 375 300 l 25
 375 100 l 25x5420
 338 100 l 25x5410
 338 0 l 25
 150 0 l 25x8010
 150 100 l 25
 112 100 l 25
 112 200 l 25x4110
 188 200 l 25
 188 100 l 25
 300 100 l 25
 300 200 l 25xa120
 225 200 l 25xa040
 225 300 l 25x1040
 188 300 l 25
 188 400 l 25x1080
 225 400 l 25
 225 600 l 25x1240
 262 600 l 25
 262 700 l 25
 450 700 l 25x1280
 450 600 l 25
 488 600 l 25
 488 500 l 25
 412 500 l 25x0488
EndSplineSet
EndChar

StartChar: parenleft
Encoding: 40 40 178
Width: 518
Flags: HW
HStem: 0 100<294 369> 600 100<294 369>
VStem: 181 75<200 500> 219 75<100 200 500 600> 256 112<0 100 600 700>
LayerCount: 2
Back
Fore
SplineSet
256 600 m 29xc8
 256 700 l 25
 369 700 l 25
 369 600 l 25xc8
 294 600 l 25
 294 500 l 25xd0
 256 500 l 25
 256 200 l 25xe0
 294 200 l 25
 294 100 l 25xd0
 369 100 l 25
 369 0 l 25
 256 0 l 25
 256 100 l 25xc8
 219 100 l 25
 219 200 l 25xd0
 181 200 l 25
 181 500 l 25xe0
 219 500 l 25
 219 600 l 25xd0
 256 600 l 29xc8
EndSplineSet
EndChar

StartChar: quotedbl
Encoding: 34 34 179
Width: 525
Flags: HMW
LayerCount: 2
Back
Fore
SplineSet
338 500 m 29
 338 700 l 29
 412 700 l 29
 412 500 l 29
 338 500 l 29
188 500 m 5
 188 700 l 29
 262 700 l 5
 262 500 l 29
 188 500 l 5
EndSplineSet
EndChar

StartChar: numbersign
Encoding: 35 35 180
Width: 525
Flags: HW
HStem: 0 21G<188 262 338 412> 200 100<112 188 262 338 412 488> 400 100<112 188 262 338 412 488> 680 20G<188 262 338 412>
VStem: 188 75<0 200 300 400 500 700> 338 75<0 200 300 400 500 700>
LayerCount: 2
Back
Fore
SplineSet
262 300 m 29
 338 300 l 25
 338 400 l 25
 262 400 l 25
 262 300 l 29
188 700 m 25
 262 700 l 25
 262 500 l 25
 338 500 l 25
 338 700 l 25
 412 700 l 25
 412 500 l 25
 488 500 l 25
 488 400 l 25
 412 400 l 25
 412 300 l 25
 488 300 l 25
 488 200 l 25
 412 200 l 25
 412 0 l 25
 338 0 l 25
 338 200 l 25
 262 200 l 25
 262 0 l 25
 188 0 l 25
 188 200 l 25
 112 200 l 25
 112 300 l 25
 188 300 l 25
 188 400 l 25
 112 400 l 25
 112 500 l 25
 188 500 l 25
 188 700 l 25
EndSplineSet
EndChar

StartChar: dollar
Encoding: 36 36 181
Width: 525
Flags: HW
HStem: 0 100<188 262 338 412> 100 100<112 150> 300 100<188 262 338 412> 500 100<450 488> 600 100<188 262 338 412>
VStem: 112 75<100 200 400 600> 150 300<0 100 300 400 600 700> 262 75<-100 0 100 300 400 600 700 800> 412 75<100 300 500 600>
LayerCount: 2
Back
Fore
SplineSet
412 100 m 29xa180
 412 300 l 25
 338 300 l 25
 338 100 l 25
 412 100 l 29xa180
262 600 m 25x2d
 188 600 l 25
 188 400 l 25
 262 400 l 25
 262 600 l 25x2d
338 800 m 25
 338 700 l 1xa9
 450 700 l 25xaa
 450 600 l 25x32
 488 600 l 25
 488 500 l 25
 412 500 l 25x3080
 412 600 l 25
 338 600 l 25
 338 400 l 25x2980
 450 400 l 25
 450 300 l 25x2a
 488 300 l 25
 488 100 l 25x6880
 450 100 l 25x6a
 450 0 l 25xa2
 338 0 l 25
 338 -100 l 25
 262 -100 l 25
 262 0 l 25xa1
 150 0 l 25xa2
 150 100 l 25x62
 112 100 l 25
 112 200 l 25
 188 200 l 25x64
 188 100 l 25
 262 100 l 25
 262 300 l 25xa5
 150 300 l 25
 150 400 l 25xa2
 112 400 l 25
 112 600 l 25xac
 150 600 l 25
 150 700 l 25xaa
 262 700 l 25
 262 800 l 1
 338 800 l 25
EndSplineSet
EndChar

StartChar: percent
Encoding: 37 37 182
Width: 525
Flags: HW
HStem: 0 100<150 188 412 450> 100 100<338 375 488 525> 200 100<412 450> 400 100<150 188> 500 100<75 112 225 262> 600 100<150 188 412 450>
VStem: 75 75<500 600> 112 112<400 500 600 700> 150 75<0 100> 188 75<100 200 500 600> 225 75<200 300> 262 75<300 400> 300 75<400 500> 338 75<100 200 500 600> 375 112<0 100 200 300> 375 75<600 700> 450 75<100 200>
LayerCount: 2
Back
Fore
SplineSet
375 700 m 29x0401
 450 700 l 25
 450 600 l 25x0401
 412 600 l 25x0404
 412 500 l 25x0804
 375 500 l 25x0808
 375 400 l 25x1008
 338 400 l 25
 338 300 l 25x3010
 300 300 l 25
 300 200 l 25x3020
 262 200 l 25x3040
 262 100 l 25x4040
 225 100 l 25x4080
 225 0 l 25
 150 0 l 25
 150 100 l 25x8080
 188 100 l 25
 188 200 l 25xa040
 225 200 l 25
 225 300 l 25xa020
 262 300 l 25
 262 400 l 25xb010
 300 400 l 25xb008
 300 500 l 25x0808
 338 500 l 25x0804
 338 600 l 25x0404
 375 600 l 25
 375 700 l 29x0401
412 100 m 25xa00480
 450 100 l 25
 450 200 l 25
 412 200 l 25
 412 100 l 25xa00480
375 300 m 25x2002
 488 300 l 25x2002
 488 200 l 25x4002
 525 200 l 25
 525 100 l 25x400080
 488 100 l 25x4002
 488 0 l 25
 375 0 l 25x8002
 375 100 l 25x4002
 338 100 l 25
 338 200 l 25x4004
 375 200 l 25x4002
 375 300 l 25x2002
150 600 m 25x1640
 150 500 l 25
 188 500 l 25
 188 600 l 25
 150 600 l 25x1640
75 600 m 25x0a
 112 600 l 25x09
 112 700 l 25
 225 700 l 25x05
 225 600 l 25x09
 262 600 l 25
 262 500 l 25x0840
 225 500 l 25x09
 225 400 l 25
 112 400 l 25x11
 112 500 l 25x09
 75 500 l 25
 75 600 l 25x0a
EndSplineSet
EndChar

StartChar: ampersand
Encoding: 38 38 183
Width: 531
Flags: HW
HStem: 0 100<194 344 456 531> 100 100<119 156 381 419> 200 100<456 494> 300 100<231 306> 600 100<231 306>
VStem: 119 75<100 200> 156 75<200 300 400 600> 194 150<300 400 600 700> 306 75<200 300 400 600> 419 112<0 100> 419 75<200 300>
LayerCount: 2
Back
Fore
SplineSet
231 300 m 29x1a80
 231 200 l 25x2a80
 194 200 l 25
 194 100 l 25xac
 344 100 l 25
 344 200 l 25xa9
 306 200 l 25xa880
 306 300 l 25
 231 300 l 29x1a80
231 600 m 25
 231 400 l 25
 306 400 l 25x1a80
 306 600 l 25
 231 600 l 25
194 700 m 25x59
 344 700 l 25
 344 600 l 25x59
 381 600 l 25
 381 400 l 25x5880
 344 400 l 25
 344 300 l 25x59
 381 300 l 25
 381 200 l 25
 419 200 l 25
 419 300 l 25x58a0
 494 300 l 25
 494 200 l 25x28a0
 456 200 l 25
 456 100 l 25
 531 100 l 25
 531 0 l 25
 419 0 l 25xa840
 419 100 l 25
 381 100 l 25x48c0
 381 0 l 25
 156 0 l 25x8ac0
 156 100 l 25x4ac0
 119 100 l 25
 119 200 l 25x4c
 156 200 l 25
 156 300 l 25x5a
 194 300 l 25
 194 400 l 25x59
 156 400 l 25
 156 600 l 25x5a
 194 600 l 25
 194 700 l 25x59
EndSplineSet
EndChar

StartChar: quotesingle
Encoding: 39 39 184
Width: 525
Flags: HMW
LayerCount: 2
Back
Fore
SplineSet
262 700 m 29
 338 700 l 29
 338 500 l 29
 262 500 l 29
 262 700 l 29
EndSplineSet
EndChar

StartChar: parenright
Encoding: 41 41 185
Width: 531
Flags: HW
HStem: 0 100<231 306> 600 100<231 306>
VStem: 231 112<0 100 600 700> 306 75<100 200 500 600> 344 75<200 500>
LayerCount: 2
Back
Fore
SplineSet
231 700 m 29xe0
 344 700 l 25
 344 600 l 25xe0
 381 600 l 25
 381 500 l 25xd0
 419 500 l 25
 419 200 l 25xc8
 381 200 l 25
 381 100 l 25xd0
 344 100 l 25
 344 0 l 25
 231 0 l 25
 231 100 l 25xe0
 306 100 l 25
 306 200 l 25xd0
 344 200 l 25
 344 500 l 25xc8
 306 500 l 25
 306 600 l 25xd0
 231 600 l 25
 231 700 l 29xe0
EndSplineSet
EndChar

StartChar: braceleft
Encoding: 123 123 186
Width: 525
Flags: HW
HStem: 0 100<338 412> 300 100<188 262> 600 100<338 412>
VStem: 188 112<300 400> 262 75<100 300 400 600> 300 112<0 100 600 700>
CounterMasks: 1 e0
LayerCount: 2
Back
Fore
SplineSet
412 700 m 29xe4
 412 600 l 1xe4
 338 600 l 25
 338 400 l 25xe8
 300 400 l 25
 300 300 l 25xf0
 338 300 l 25
 338 100 l 25xe8
 412 100 l 25
 412 0 l 25
 300 0 l 25
 300 100 l 25xe4
 262 100 l 25
 262 300 l 25xe8
 188 300 l 25
 188 400 l 25xf0
 262 400 l 25
 262 600 l 25xe8
 300 600 l 25
 300 700 l 1
 412 700 l 29xe4
EndSplineSet
EndChar

StartChar: bar
Encoding: 124 124 187
Width: 525
Flags: HW
HStem: 0 21G<262 338> 680 20G<262 338>
VStem: 262 75<0 700>
LayerCount: 2
Back
Fore
SplineSet
262 700 m 29
 338 700 l 25
 338 0 l 25
 262 0 l 25
 262 700 l 29
EndSplineSet
EndChar

StartChar: braceright
Encoding: 125 125 188
Width: 525
Flags: HW
HStem: 0 100<188 262> 300 100<338 412> 600 100<188 262>
VStem: 188 112<0 100 600 700> 262 75<100 300 400 600> 300 112<300 400>
CounterMasks: 1 e0
LayerCount: 2
Back
Fore
SplineSet
188 700 m 29xf0
 300 700 l 25
 300 600 l 25xf0
 338 600 l 25
 338 400 l 25xe8
 412 400 l 25
 412 300 l 25xe4
 338 300 l 25
 338 100 l 25xe8
 300 100 l 25
 300 0 l 25
 188 0 l 25
 188 100 l 25xf0
 262 100 l 25
 262 300 l 25xe8
 300 300 l 25
 300 400 l 25xe4
 262 400 l 25
 262 600 l 25xe8
 188 600 l 25
 188 700 l 29xf0
EndSplineSet
EndChar

StartChar: uni0451
Encoding: 1105 1105 189
Width: 531
Flags: HW
HStem: 0 100<231 456> 200 100<231 419> 400 100<231 419> 600 100<194 269 381 456>
VStem: 156 75<100 200 300 400> 194 75<600 700> 381 75<600 700> 419 75<300 400>
LayerCount: 2
Back
Fore
SplineSet
381 700 m 25xf2
 456 700 l 25
 456 600 l 25
 381 600 l 25
 381 700 l 25xf2
194 700 m 25xf4
 269 700 l 25
 269 600 l 25
 194 600 l 25
 194 700 l 25xf4
231 400 m 1xf9
 231 300 l 1
 419 300 l 1
 419 400 l 1
 231 400 l 1xf9
194 400 m 1xf4
 194 500 l 1
 456 500 l 1
 456 400 l 25xf6
 494 400 l 25
 494 200 l 1
 231 200 l 1
 231 100 l 1xf9
 456 100 l 1
 456 0 l 1
 194 0 l 1
 194 100 l 1xf6
 156 100 l 1
 156 400 l 5xf8
 194 400 l 1xf4
EndSplineSet
EndChar

StartChar: underscore
Encoding: 95 95 190
Width: 525
Flags: HW
HStem: -100 100<112 488>
LayerCount: 2
Back
Fore
SplineSet
112 -100 m 29
 112 0 l 1
 488 0 l 25
 488 -100 l 1
 112 -100 l 29
EndSplineSet
EndChar

StartChar: asciicircum
Encoding: 94 94 191
Width: 531
Flags: HW
HStem: 400 100<194 231 419 456> 600 100<306 344>
VStem: 194 75<400 500> 231 75<500 600> 344 75<500 600> 381 75<400 500>
LayerCount: 2
Back
Fore
SplineSet
194 400 m 29xe0
 194 500 l 25xe0
 231 500 l 25
 231 600 l 25xd0
 269 600 l 25
 269 700 l 25
 381 700 l 25
 381 600 l 25xe4
 419 600 l 25
 419 500 l 25xc8
 456 500 l 25
 456 400 l 25
 381 400 l 25
 381 500 l 25xc4
 344 500 l 25
 344 600 l 25
 306 600 l 25
 306 500 l 25xd8
 269 500 l 25
 269 400 l 25
 194 400 l 29xe0
EndSplineSet
EndChar

StartChar: grave
Encoding: 96 96 192
Width: 512
Flags: HW
HStem: 400 100<288 325> 600 100<175 212>
VStem: 175 75<600 700> 212 75<500 600> 250 75<400 500>
LayerCount: 2
Back
Fore
SplineSet
175 700 m 29xe0
 250 700 l 25
 250 600 l 25xe0
 288 600 l 25
 288 500 l 25xd0
 325 500 l 25
 325 400 l 25
 250 400 l 25
 250 500 l 25xc8
 212 500 l 25
 212 600 l 25xd0
 175 600 l 25
 175 700 l 29xe0
EndSplineSet
EndChar

StartChar: bracketleft
Encoding: 91 91 193
Width: 525
Flags: HW
HStem: 0 100<300 375> 600 100<300 375>
VStem: 225 150<0 100 600 700> 225 75<100 600>
LayerCount: 2
Back
Fore
SplineSet
375 600 m 29xe0
 300 600 l 25
 300 100 l 25xd0
 375 100 l 25
 375 0 l 25
 225 0 l 25
 225 700 l 25
 375 700 l 25
 375 600 l 29xe0
EndSplineSet
EndChar

StartChar: bracketright
Encoding: 93 93 194
Width: 525
Flags: HW
HStem: 0 100<225 300> 600 100<225 300>
VStem: 225 150<0 100 600 700> 300 75<100 600>
LayerCount: 2
Back
Fore
SplineSet
225 700 m 29xe0
 374 700 l 1
 375 0 l 25
 225 0 l 25
 225 100 l 25xe0
 300 100 l 25
 300 600 l 25xd0
 225 600 l 1
 225 700 l 29xe0
EndSplineSet
EndChar

StartChar: backslash
Encoding: 92 92 195
Width: 525
Flags: HW
HStem: 0 100<412 450> 600 100<150 188>
VStem: 150 75<600 700> 188 75<500 600> 225 75<400 500> 262 75<300 400> 300 75<200 300> 338 75<100 200> 375 75<0 100>
LayerCount: 2
Back
Fore
SplineSet
150 600 m 29xe0
 150 700 l 25
 225 700 l 25
 225 600 l 25xe0
 262 600 l 25
 262 500 l 25xd0
 300 500 l 25
 300 400 l 25xc8
 338 400 l 25
 338 300 l 25xc4
 375 300 l 25
 375 200 l 25xc2
 412 200 l 25
 412 100 l 25xc1
 450 100 l 25
 450 0 l 25
 375 0 l 25
 375 100 l 25xc080
 338 100 l 25
 338 200 l 25xc1
 300 200 l 25
 300 300 l 25xc2
 262 300 l 25
 262 400 l 25xc4
 225 400 l 25
 225 500 l 25xc8
 188 500 l 25
 188 600 l 25xd0
 150 600 l 29xe0
EndSplineSet
EndChar

StartChar: Odieresis
Encoding: 214 214 196
Width: 525
Flags: HMW
LayerCount: 2
Back
Fore
SplineSet
225 500 m 29
 225 400 l 25
 188 400 l 25
 188 200 l 25
 225 200 l 25
 225 100 l 25
 375 100 l 25
 375 200 l 25
 412 200 l 25
 412 400 l 25
 375 400 l 25
 375 500 l 25
 225 500 l 29
188 600 m 25
 412 600 l 25
 412 500 l 25
 450 500 l 25
 450 400 l 25
 488 400 l 25
 488 200 l 25
 450 200 l 25
 450 100 l 25
 412 100 l 25
 412 0 l 25
 188 0 l 25
 188 100 l 25
 150 100 l 25
 150 200 l 25
 112 200 l 25
 112 400 l 25
 150 400 l 25
 150 500 l 25
 188 500 l 25
 188 600 l 25
338 700 m 25
 338 800 l 25
 412 800 l 25
 412 700 l 25
 338 700 l 25
188 700 m 25
 188 800 l 25
 262 800 l 25
 262 700 l 25
 188 700 l 25
EndSplineSet
EndChar

StartChar: acute
Encoding: 180 180 197
Width: 512
Flags: HW
HStem: 400 100<175 212> 600 100<288 325>
VStem: 175 75<400 500> 212 75<500 600> 250 75<600 700>
LayerCount: 2
Back
Fore
SplineSet
250 600 m 29xc8
 250 700 l 25
 325 700 l 25
 325 600 l 25xc8
 288 600 l 25
 288 500 l 25xd0
 250 500 l 25
 250 400 l 25
 175 400 l 25
 175 500 l 25xe0
 212 500 l 25
 212 600 l 25xd0
 250 600 l 29xc8
EndSplineSet
EndChar

StartChar: plusminus
Encoding: 177 177 198
Width: 525
Flags: HW
HStem: 100 100<150 450> 451 99<150 262 338 450> 680 20G<262 338>
VStem: 262 75<300 450 550 700>
LayerCount: 2
Back
Fore
SplineSet
150 200 m 29
 450 200 l 25
 450 101 l 25
 150 100 l 25
 150 200 l 29
150 550 m 25
 262 550 l 25
 262 700 l 25
 338 700 l 25
 338 550 l 25
 450 551 l 25
 450 450 l 25
 338 450 l 25
 338 300 l 25
 262 300 l 25
 262 451 l 25
 150 451 l 25
 150 550 l 25
EndSplineSet
EndChar

StartChar: uni20BD
Encoding: 8381 8381 199
Width: 518
Flags: HW
HStem: 0 21G<144 219> 150 100<69 144 219 369> 300 100<69 144 219 406> 600 100<219 406>
VStem: 144 75<0 150 250 300 400 600> 406 75<400 600>
LayerCount: 2
Back
Fore
SplineSet
219 400 m 25
 406 400 l 25
 406 600 l 25
 219 600 l 25
 219 400 l 25
144 700 m 25
 444 700 l 25
 444 650 l 25
 481 650 l 25
 481 400 l 25
 444 400 l 25
 444 300 l 25
 219 300 l 25
 219 250 l 1
 369 250 l 5
 369 150 l 1
 219 150 l 1
 219 0 l 25
 144 0 l 25
 144 150 l 25
 69 150 l 25
 69 250 l 25
 144 250 l 25
 144 300 l 25
 69 300 l 25
 69 400 l 25
 144 400 l 25
 144 700 l 25
EndSplineSet
EndChar

StartChar: Udieresis
Encoding: 220 220 200
Width: 531
Flags: HW
HStem: 0 100<231 419> 700 100<194 269 381 456>
VStem: 156 75<100 600> 194 75<700 800> 381 75<700 800> 419 75<100 600>
LayerCount: 2
Back
Fore
SplineSet
381 800 m 29xc8
 456 800 l 25
 456 700 l 25
 381 700 l 25
 381 800 l 29xc8
194 700 m 25xd0
 194 800 l 25
 269 800 l 25
 269 700 l 25
 194 700 l 25xd0
156 600 m 1xe0
 231 600 l 1
 231 100 l 1
 419 100 l 1
 419 600 l 1
 494 600 l 1
 494 100 l 1xe4
 456 100 l 25
 456 0 l 25
 194 0 l 25
 194 100 l 25xd8
 156 100 l 1
 156 600 l 1xe0
EndSplineSet
EndChar

StartChar: Adieresis
Encoding: 196 196 201
Width: 525
Flags: HW
HStem: 0 21G<112 188 412 488> 200 100<188 412> 500 100<225 375> 700 100<188 262 338 412>
VStem: 112 75<0 200 300 400> 150 75<400 500> 188 75<700 800> 338 75<700 800> 375 75<400 500> 412 75<0 200 300 400>
LayerCount: 2
Back
Fore
SplineSet
338 700 m 25xf1
 338 800 l 25
 412 800 l 25
 412 700 l 25
 338 700 l 25xf1
188 700 m 25xf2
 188 800 l 25
 262 800 l 25
 262 700 l 25
 188 700 l 25xf2
188 300 m 25xf8
 412 300 l 25
 412 400 l 25xf840
 375 400 l 1
 375 500 l 25
 225 500 l 1
 225 400 l 29xf480
 188 400 l 1
 188 300 l 25xf8
112 0 m 25
 112 400 l 1xf840
 150 400 l 25
 150 500 l 25xf4
 188 500 l 25
 188 600 l 25
 412 600 l 25
 412 500 l 25xf240
 450 500 l 25
 450 400 l 25xf080
 488 400 l 25
 488 0 l 25
 412 0 l 25
 412 200 l 25
 188 200 l 25
 188 0 l 1
 112 0 l 25
EndSplineSet
EndChar

StartChar: adieresis
Encoding: 228 228 202
Width: 525
Flags: HW
HStem: 0 100<188 375 450 487> 100 100<112 150> 200 100<188 375> 400 100<150 375> 600 100<188 262 338 412>
VStem: 112 75<100 200> 188 75<600 700> 338 75<600 700> 375 75<100 200 300 400>
LayerCount: 2
Back
Fore
SplineSet
338 600 m 29x19
 338 700 l 29
 412 700 l 29
 412 600 l 29
 338 600 l 29x19
188 600 m 29x1a
 188 700 l 29
 262 700 l 29
 262 600 l 29
 188 600 l 29x1a
188 200 m 25xbc80
 188 100 l 25
 375 100 l 25
 375 200 l 25
 188 200 l 25xbc80
150 500 m 25
 412 500 l 25
 412 400 l 25x39
 450 400 l 25
 450 100 l 25
 487 100 l 25
 488 0 l 25
 150 0 l 25xb880
 150 100 l 25
 112 100 l 25
 112 200 l 25
 150 200 l 25x5c80
 150 300 l 25
 375 300 l 25
 375 400 l 25
 150 400 l 25
 150 500 l 25
EndSplineSet
EndChar

StartChar: odieresis
Encoding: 246 246 203
Width: 531
Flags: HW
HStem: 0 100<231 419> 400 100<231 419> 600 100<194 269 381 456>
VStem: 156 75<100 400> 194 75<600 700> 381 75<600 700> 419 75<100 400>
LayerCount: 2
Back
Fore
SplineSet
381 600 m 29xe4
 381 700 l 29
 456 700 l 29
 456 600 l 29
 381 600 l 29xe4
194 600 m 25xe8
 194 700 l 25
 269 700 l 25
 269 600 l 25
 194 600 l 25xe8
231 400 m 25xf2
 231 100 l 25
 419 100 l 25
 419 400 l 25
 231 400 l 25xf2
194 500 m 25xe8
 456 500 l 25
 456 400 l 25xec
 494 400 l 25
 494 100 l 25xe2
 456 100 l 25
 456 0 l 25
 194 0 l 25
 194 100 l 25xec
 156 100 l 25
 156 400 l 25xf0
 194 400 l 25
 194 500 l 25xe8
EndSplineSet
EndChar

StartChar: germandbls
Encoding: 223 223 204
Width: 531
Flags: HW
HStem: 0 100<269 419> 300 100<306 381> 600 100<269 381>
VStem: 156 75<0 500> 194 75<500 600> 306 112<300 400> 381 75<400 600> 419 75<100 300>
CounterMasks: 1 e0
LayerCount: 2
Back
Fore
SplineSet
231 600 m 25xf0
 231 700 l 1
 419 700 l 25
 419 600 l 25xf1
 456 600 l 25
 456 400 l 25xe2
 419 400 l 25
 419 300 l 25xe4
 494 300 l 25
 494 100 l 25xe1
 456 100 l 25
 456 0 l 25xe2
 269 0 l 25
 269 100 l 25
 419 100 l 25xe9
 419 300 l 25
 306 300 l 25
 306 400 l 25xe4
 381 400 l 25
 381 600 l 25
 269 600 l 25
 269 500 l 25xea
 231 500 l 25
 231 0 l 25
 156 0 l 25
 156 500 l 25xf0
 194 500 l 25
 194 600 l 1xe8
 231 600 l 25xf0
EndSplineSet
EndChar

StartChar: uniFFFD
Encoding: 65533 65533 205
Width: 525
Flags: HW
HStem: -200 21G<225 375> 100 100<262 338> 480 20G<262 338> 600 200<225 375>
VStem: 112 75<400 500> 150 112<0 100> 150 75<500 600> 188 225<-100 0 600 700> 225 150<-200 -100 700 800> 262 75<400 500> 338 112<0 100> 375 75<500 600> 412 112<300 400> 412 75<400 500>
LayerCount: 2
Back
Fore
SplineSet
262 200 m 29xf040
 375 200 l 25
 375 300 l 25xf050
 412 300 l 25xf008
 412 500 l 25xf004
 375 500 l 25
 375 600 l 25
 225 600 l 25
 225 500 l 25xf210
 188 500 l 25
 188 400 l 25
 262 400 l 25
 262 500 l 25
 338 500 l 25xf840
 338 300 l 25xf020
 262 300 l 25
 262 200 l 29xf040
262 0 m 25xf420
 338 0 l 25
 338 100 l 25
 262 100 l 25
 262 0 l 25xf420
75 200 m 25
 75 400 l 25
 112 400 l 25
 112 500 l 25xf8
 150 500 l 25
 150 600 l 25xf2
 188 600 l 25
 188 700 l 25xf1
 225 700 l 25
 225 800 l 25
 375 800 l 25
 375 700 l 25xf080
 412 700 l 25
 412 600 l 25xf1
 450 600 l 25
 450 500 l 25xf010
 488 500 l 25
 488 400 l 25xf004
 525 400 l 25
 525 200 l 25xf008
 488 200 l 25
 488 100 l 25xf004
 450 100 l 25
 450 0 l 25xf020
 412 0 l 25
 412 -100 l 25xf1
 375 -100 l 25
 375 -200 l 25
 225 -200 l 25
 225 -100 l 25xf080
 188 -100 l 25
 188 0 l 25xf1
 150 0 l 25
 150 100 l 25xf4
 112 100 l 25
 112 200 l 25xf8
 75 200 l 25
EndSplineSet
EndChar

StartChar: Oslash
Encoding: 216 216 206
Width: 525
Flags: HW
HStem: 0 100<225 375> 600 100<225 375>
VStem: 112 75<200 500> 150 75<100 200 500 600> 188 225<0 100 600 700> 375 75<100 200 500 600> 412 75<200 500>
LayerCount: 2
Back
Fore
SplineSet
375 100 m 29xd4
 375 200 l 25xd4
 412 200 l 25
 412 500 l 25xc2
 375 500 l 25
 375 600 l 25
 225 600 l 25
 225 500 l 25xd4
 188 500 l 25
 188 200 l 25xe0
 225 200 l 25
 225 100 l 25
 375 100 l 29xd4
412 0 m 25xc8
 188 0 l 25
 188 100 l 25xc8
 150 100 l 25
 150 200 l 25xd0
 112 200 l 25
 112 500 l 25xe0
 150 500 l 25
 150 600 l 25xd0
 188 600 l 25
 188 700 l 25
 412 700 l 25
 412 600 l 25xc8
 450 600 l 25
 450 500 l 25xc4
 488 500 l 25
 488 200 l 25xc2
 450 200 l 25
 450 100 l 25xc4
 412 100 l 25
 412 0 l 25xc8
EndSplineSet
EndChar

StartChar: multiply
Encoding: 215 215 207
Width: 525
Flags: HMW
LayerCount: 2
Back
Fore
SplineSet
188 200 m 29
 188 300 l 25
 262 300 l 25
 262 400 l 25
 188 400 l 25
 188 500 l 25
 262 500 l 25
 262 400 l 25
 338 400 l 25
 338 500 l 25
 412 500 l 25
 412 400 l 25
 338 400 l 25
 338 300 l 25
 412 300 l 25
 412 200 l 25
 338 200 l 25
 338 300 l 25
 262 300 l 25
 262 200 l 25
 188 200 l 29
EndSplineSet
EndChar

StartChar: divide
Encoding: 247 247 208
Width: 525
Flags: HMW
LayerCount: 2
Back
Fore
SplineSet
262 100 m 29
 262 200 l 25
 338 200 l 25
 338 100 l 25
 262 100 l 29
150 300 m 25
 150 400 l 25
 450 400 l 25
 450 300 l 25
 150 300 l 25
262 500 m 25
 262 600 l 25
 338 600 l 25
 338 500 l 25
 262 500 l 25
EndSplineSet
EndChar

StartChar: brokenbar
Encoding: 166 166 209
Width: 525
Flags: HW
HStem: 0 21G<262 338> 680 20G<262 338>
VStem: 262 75<0 700>
LayerCount: 2
Back
Fore
SplineSet
262 700 m 29
 338 700 l 25
 338 0 l 25
 262 0 l 25
 262 700 l 29
EndSplineSet
EndChar

StartChar: degree
Encoding: 176 176 210
Width: 525
Flags: HMW
LayerCount: 2
Back
Fore
SplineSet
262 600 m 29
 262 500 l 25
 338 500 l 25
 338 600 l 25
 262 600 l 29
225 600 m 25
 225 700 l 25
 375 700 l 25
 375 600 l 25
 412 600 l 25
 412 500 l 25
 375 500 l 25
 375 400 l 25
 225 400 l 25
 225 500 l 25
 188 500 l 25
 188 600 l 25
 225 600 l 25
EndSplineSet
EndChar

StartChar: arrowright
Encoding: 8594 8594 211
Width: 518
Flags: HW
HStem: 100 100<256 294> 300 100<69 294 406 481> 500 100<256 294>
VStem: 256 75<100 200 500 600> 294 112<200 300 400 500>
CounterMasks: 1 e0
LayerCount: 2
Back
Fore
SplineSet
256 500 m 29xf0
 256 600 l 25
 331 600 l 25
 331 500 l 25xf0
 406 500 l 25
 406 400 l 25
 481 400 l 25
 481 300 l 25
 406 300 l 25
 406 200 l 25xe8
 331 200 l 25
 331 100 l 25
 256 100 l 25
 256 200 l 25xf0
 294 200 l 25
 294 300 l 25
 69 300 l 25
 69 400 l 25
 294 400 l 25
 294 500 l 25xe8
 256 500 l 29xf0
EndSplineSet
EndChar

StartChar: arrowleft
Encoding: 8592 8592 212
Width: 537
Flags: HW
HStem: 100 100<350 388> 300 100<162 238 350 538> 500 100<350 388>
VStem: 238 112<200 300 400 500> 312 75<100 200 500 600>
CounterMasks: 1 e0
LayerCount: 2
Back
Fore
SplineSet
312 500 m 29xe8
 312 600 l 25
 388 600 l 25
 388 500 l 25xe8
 350 500 l 25
 350 400 l 25
 538 400 l 25
 538 300 l 25
 350 300 l 25
 350 200 l 25xf0
 388 200 l 25
 388 100 l 25
 312 100 l 25
 312 200 l 25xe8
 238 200 l 25
 238 300 l 25
 162 300 l 25
 162 400 l 25
 238 400 l 25
 238 500 l 25xf0
 312 500 l 29xe8
EndSplineSet
EndChar

StartChar: arrowup
Encoding: 8593 8593 213
Width: 525
Flags: HW
HStem: 0 21G<262 338> 300 100<150 188 412 450> 680 20G<262 338>
VStem: 150 75<300 400> 262 75<0 400 600 700> 375 75<300 400>
CounterMasks: 1 1c
LayerCount: 2
Back
Fore
SplineSet
225 300 m 29
 150 300 l 25
 150 400 l 25
 188 400 l 25
 188 500 l 25
 225 500 l 25
 225 600 l 25
 262 600 l 25
 262 700 l 25
 338 700 l 25
 338 600 l 25
 375 600 l 25
 375 500 l 25
 412 500 l 25
 412 400 l 25
 450 400 l 25
 450 300 l 25
 375 300 l 25
 375 400 l 25
 338 400 l 25
 338 0 l 25
 262 0 l 25
 262 400 l 25
 225 400 l 25
 225 300 l 29
EndSplineSet
EndChar

StartChar: arrowdown
Encoding: 8595 8595 214
Width: 525
Flags: HW
HStem: 0 21G<262 338> 300 100<150 188 412 450> 680 20G<262 338>
VStem: 150 75<300 400> 262 75<0 100 300 700> 375 75<300 400>
CounterMasks: 1 1c
LayerCount: 2
Back
Fore
SplineSet
262 300 m 29
 262 700 l 1
 338 700 l 25
 338 300 l 25
 375 300 l 25
 375 400 l 25
 450 400 l 25
 450 300 l 25
 412 300 l 25
 412 200 l 25
 375 200 l 25
 375 100 l 25
 338 100 l 25
 338 0 l 25
 262 0 l 25
 262 100 l 25
 225 100 l 25
 225 200 l 25
 188 200 l 25
 188 300 l 25
 150 300 l 25
 150 400 l 25
 225 400 l 25
 225 300 l 1
 262 300 l 29
EndSplineSet
EndChar

StartChar: arrowboth
Encoding: 8596 8596 215
Width: 1050
Flags: HW
HStem: 100 100<450 525 675 750> 200 300<375 450 750 825> 300 100<300 375 450 750 825 900> 500 100<450 525 675 750>
VStem: 375 75<200 300 400 500> 450 75<100 200 500 600> 675 75<100 200 500 600> 750 75<200 300 400 500>
LayerCount: 2
Back
Fore
SplineSet
300 300 m 29x28
 300 400 l 25
 375 400 l 25x28
 375 500 l 25
 450 500 l 25x48
 450 600 l 25
 525 600 l 25
 525 500 l 25x14
 450 500 l 25x48
 450 400 l 25
 750 400 l 25x29
 750 500 l 25x42
 675 500 l 25
 675 600 l 25
 750 600 l 25x12
 750 500 l 25x42
 825 500 l 25x41
 825 400 l 25
 900 400 l 25
 900 300 l 25
 825 300 l 25x21
 825 200 l 25x41
 750 200 l 25
 750 100 l 25
 675 100 l 25
 675 200 l 25
 750 200 l 25x82
 750 300 l 25
 450 300 l 25
 450 200 l 25xa9
 525 200 l 25
 525 100 l 25
 450 100 l 25xa4
 450 200 l 25xa8
 375 200 l 25x48
 375 300 l 25
 300 300 l 29x28
EndSplineSet
EndChar

StartChar: arrowupdn
Encoding: 8597 8597 216
Width: 525
Flags: HW
HStem: 0 21G<225 375> 200 100<150 188 412 450> 400 100<150 188 412 450> 680 20G<225 375>
VStem: 150 75<200 300 400 500> 188 225<100 200 500 600> 225 150<0 100 600 700> 375 75<200 300 400 500>
LayerCount: 2
Back
Fore
SplineSet
150 200 m 29xf8
 150 300 l 25
 225 300 l 25
 225 200 l 25
 262 200 l 25
 262 500 l 25
 225 500 l 25
 225 400 l 25
 150 400 l 25
 150 500 l 25xf8
 188 500 l 25
 188 600 l 25xf4
 225 600 l 25
 225 700 l 25
 375 700 l 25
 375 600 l 25xf2
 412 600 l 25
 412 500 l 25xf4
 450 500 l 25
 450 400 l 25
 375 400 l 25
 375 500 l 25
 338 500 l 25
 338 200 l 25
 375 200 l 25
 375 300 l 25
 450 300 l 25
 450 200 l 25xf1
 412 200 l 25
 412 100 l 25xf4
 375 100 l 25
 375 0 l 25
 225 0 l 25
 225 100 l 25xf2
 188 100 l 25
 188 200 l 25xf4
 150 200 l 29xf8
EndSplineSet
EndChar

StartChar: uni2600
Encoding: 9728 9728 217
Width: 1050
Flags: HW
HStem: -100 100<562 638> 0 100<375 450 750 825> 200 300<488 562 638 712> 300 100<225 338 412 488 712 788 862 975> 600 100<338 412 788 862> 700 100<562 638>
VStem: 225 112<300 400> 338 75<600 700> 375 75<0 100> 488 225<200 300 400 500> 562 75<-100 0 100 200 500 600 700 800> 750 75<0 100> 788 75<600 700> 862 112<300 400>
LayerCount: 2
Back
Fore
SplineSet
788 600 m 25x0808
 788 700 l 25
 862 700 l 25
 862 600 l 25
 788 600 l 25x0808
562 700 m 25x0420
 562 800 l 25
 638 800 l 25
 638 700 l 25
 562 700 l 25x0420
338 600 m 25x09
 338 700 l 25
 412 700 l 25
 412 600 l 25
 338 600 l 25x09
862 300 m 1x1004
 862 400 l 25
 975 400 l 1
 975 300 l 25
 862 300 l 1x1004
225 300 m 1x12
 225 400 l 25
 338 400 l 1
 338 300 l 25
 225 300 l 1x12
750 0 m 25x4010
 750 100 l 25
 825 100 l 25
 825 0 l 25
 750 0 l 25x4010
562 -100 m 25x8020
 562 0 l 25
 638 0 l 25
 638 -100 l 25
 562 -100 l 25x8020
375 0 m 25x4080
 375 100 l 25
 450 100 l 25
 450 0 l 25
 375 0 l 25x4080
412 300 m 25x1140
 412 400 l 1
 488 400 l 25x1140
 488 500 l 1x2140
 562 500 l 1
 562 600 l 1
 638 600 l 1
 638 500 l 25x2820
 712 500 l 25x2840
 712 400 l 25
 788 400 l 25
 788 300 l 25
 712 300 l 25x1048
 712 200 l 25x2048
 638 200 l 25
 638 100 l 25
 562 100 l 25
 562 200 l 25x6020
 488 200 l 25x6040
 488 300 l 1
 412 300 l 25x1140
EndSplineSet
EndChar

StartChar: uni2601
Encoding: 9729 9729 218
Width: 525
Flags: HW
HStem: 100 300<150 225 338 450> 200 100<75 150 488 525> 480 20G<225 338>
VStem: 225 112<400 500>
LayerCount: 2
Back
Fore
SplineSet
75 200 m 29x70
 75 300 l 25
 150 300 l 25x70
 150 400 l 25
 225 400 l 25
 225 500 l 25
 338 500 l 25
 338 400 l 25
 450 400 l 25xb0
 450 300 l 25
 525 300 l 25
 525 200 l 25
 488 200 l 25x70
 488 100 l 25
 150 100 l 25xb0
 150 200 l 25
 75 200 l 29x70
EndSplineSet
EndChar

StartChar: uni2602
Encoding: 9730 9730 219
Width: 525
Flags: HW
HStem: -100 100<188 262> 400 200<150 225 375 450> 400 100<75 150 450 525> 680 20G<225 375>
VStem: 188 112<-100 0> 262 75<0 400>
LayerCount: 2
Back
Fore
SplineSet
75 400 m 29xb4
 75 500 l 25
 150 500 l 25xb4
 150 600 l 25
 225 600 l 25
 225 700 l 25
 375 700 l 25
 375 600 l 25
 450 600 l 25xd4
 450 500 l 25
 525 500 l 25
 525 400 l 25
 338 400 l 25
 338 0 l 25xb4
 300 0 l 25
 300 -100 l 25
 188 -100 l 25
 188 0 l 25xb8
 262 0 l 25
 262 400 l 25
 75 400 l 29xb4
EndSplineSet
EndChar

StartChar: uni2603
Encoding: 9731 9731 220
Width: 525
Flags: HW
HStem: -100 100<112 188 450 525> -100 50<262 300 338 375> 0 100<225 412> 50 50<75 112 488 525> 100 100<150 188 450 488> 150 50<75 112> 200 100<262 300 338 375> 250 50<112 150 488 525> 350 50<75 112 488 525> 400 100<150 188 262 300 338 375 450 488> 500 100<112 150 188 225 412 450 488 525> 600 200<262 375> 650 50<112 150 450 488> 750 50<75 112 188 225 412 450 488 525>
VStem: 75 38<50 100 150 200 350 400 750 800> 112 38<250 300 500 600 650 700> 150 38<400 500> 188 75<300 400 500 600> 188 38<750 800> 225 75<400 500> 262 38<-100 -50> 338 75<400 500> 338 38<-100 -50> 375 75<300 400 500 600> 412 38<750 800> 450 38<400 500 650 700> 488 38<50 100 250 300 350 400 500 600 750 800>
LayerCount: 2
Back
Fore
SplineSet
262 500 m 29x225041
 300 500 l 29
 300 400 l 29x225010
 262 400 l 29
 262 300 l 29x225040
 300 300 l 29
 300 200 l 29x225008
 225 200 l 29
 225 100 l 29
 412 100 l 29
 412 200 l 29
 338 200 l 29
 338 300 l 29x22501280
 375 300 l 29
 375 400 l 29x225001
 338 400 l 29
 338 500 l 29x225004
 375 500 l 29
 375 600 l 29
 262 600 l 29
 262 500 l 29x225041
112 -100 m 29x800110a0
 112 0 l 29
 188 0 l 29
 188 100 l 29x880120
 150 100 l 29
 150 200 l 29x880080
 188 200 l 29x880020
 188 400 l 29
 225 400 l 29x884090
 225 500 l 29x002090
 188 500 l 29x004090
 188 600 l 29x002040
 225 600 l 29
 225 700 l 29x002810
 262 700 l 29x002808
 262 800 l 29
 375 800 l 29x001009
 375 700 l 29x000809
 412 700 l 29
 412 600 l 29x00280080
 450 600 l 29x002801
 450 500 l 29x004001
 412 500 l 29x002004
 412 400 l 29x004004
 450 400 l 29x004001
 450 200 l 29x08400040
 488 200 l 29x08400020
 488 100 l 29x10000020
 450 100 l 29
 450 0 l 29x88000040
 525 0 l 29
 525 -100 l 29x88000020
 412 -100 l 29
 412 0 l 29
 225 0 l 29
 225 -100 l 29x600010a0
 112 -100 l 29x800110a0
150 500 m 29x0041
 188 500 l 29
 188 400 l 29
 150 400 l 29x004080
 150 500 l 29x0041
112 600 m 29x0021
 150 600 l 29x0021
 150 500 l 29x0041
 112 500 l 29
 112 600 l 29x0021
75 50 m 29x1002
 75 100 l 5
 112 100 l 29
 112 50 l 5
 75 50 l 29x1002
75 150 m 29x0402
 75 200 l 5
 112 200 l 29
 112 150 l 5
 75 150 l 29x0402
112 250 m 29x0101
 112 300 l 5
 150 300 l 29
 150 250 l 5
 112 250 l 29x0101
75 350 m 29x0082
 75 400 l 5
 112 400 l 29
 112 350 l 5
 75 350 l 29x0082
262 -100 m 29x400008
 262 -50 l 29
 300 -50 l 29
 300 -100 l 29
 262 -100 l 29x400008
338 -100 m 29x400002
 338 -50 l 29
 375 -50 l 29
 375 -100 l 29
 338 -100 l 29x400002
488 50 m 29x10000020
 488 100 l 29
 525 100 l 29
 525 50 l 29
 488 50 l 29x10000020
488 250 m 29x01000020
 488 300 l 29
 525 300 l 29
 525 250 l 29
 488 250 l 29x01000020
488 350 m 29x00800020
 488 400 l 29x00800040
 525 400 l 29
 525 350 l 29
 488 350 l 29x00800020
450 400 m 29x004001
 450 500 l 29x004001
 488 500 l 29x00400040
 488 400 l 29x00800040
 450 400 l 29x004001
488 500 m 29x00400040
 488 600 l 29
 525 600 l 29
 525 500 l 29x00200020
 488 500 l 29x00400040
450 650 m 29x00080040
 450 700 l 29
 488 700 l 29
 488 650 l 29
 450 650 l 29x00080040
488 750 m 29x00040020
 488 800 l 29
 525 800 l 29
 525 750 l 29
 488 750 l 29x00040020
412 750 m 29x00040080
 412 800 l 29
 450 800 l 29
 450 750 l 29
 412 750 l 29x00040080
188 750 m 29x000420
 188 800 l 5
 225 800 l 29
 225 750 l 5
 188 750 l 29x000420
75 750 m 29x0006
 75 800 l 5
 112 800 l 29
 112 750 l 5
 75 750 l 29x0006
112 650 m 29x0009
 112 700 l 5
 150 700 l 29
 150 650 l 5
 112 650 l 29x0009
EndSplineSet
EndChar

StartChar: uni26C4
Encoding: 9924 9924 221
Width: 531
Flags: HW
HStem: -100 100<119 194 456 531> 100 100<156 194 456 494> 200 100<269 306 344 381> 400 100<156 194 269 306 344 381 456 494> 500 100<119 156 194 231 419 456 494 531> 600 200<269 381>
VStem: 119 38<500 600> 156 75<100 200> 156 38<400 500> 194 75<300 400 500 600> 231 75<400 500> 269 112<700 800> 344 75<400 500> 381 75<300 400 500 600> 419 75<100 200> 456 38<400 500> 494 38<500 600>
LayerCount: 2
Back
Fore
SplineSet
269 500 m 29xb444
 306 500 l 29
 306 400 l 29xb420
 269 400 l 29
 269 300 l 29xb440
 306 300 l 29
 306 200 l 29xb420
 231 200 l 29xb5
 231 100 l 29
 419 100 l 29xc102
 419 200 l 29xa102
 344 200 l 29
 344 300 l 29xa008
 381 300 l 29
 381 400 l 29xb004
 344 400 l 29
 344 500 l 29xb008
 381 500 l 29
 381 600 l 29
 269 600 l 29
 269 500 l 29xb444
119 -100 m 29xd222
 119 0 l 29
 194 0 l 29
 194 100 l 29xd240
 156 100 l 29
 156 200 l 29xd1
 194 200 l 29xd040
 194 400 l 29
 231 400 l 29xd0a0
 231 500 l 29x88a0
 194 500 l 29x90a0
 194 600 l 29x8840
 231 600 l 29
 231 700 l 29x8820
 269 700 l 29
 269 800 l 29
 381 800 l 29x8410
 381 700 l 29
 419 700 l 29
 419 600 l 29x8812
 456 600 l 29x8804
 456 500 l 29x9004
 419 500 l 29x8808
 419 400 l 29x9008
 456 400 l 29x9004
 456 200 l 29xd001
 494 200 l 5
 494 100 l 29xd002
 456 100 l 5
 456 0 l 29xd001
 531 0 l 29
 531 -100 l 29xd00080
 419 -100 l 29
 419 0 l 29
 231 0 l 29
 231 -100 l 29
 119 -100 l 29xd222
156 500 m 29
 194 500 l 29
 194 400 l 29
 156 400 l 29x9080
 156 500 l 29
119 600 m 29x8a
 156 600 l 29x8a
 156 500 l 29x92
 119 500 l 29
 119 600 l 29x8a
456 400 m 29x9004
 456 500 l 29x9004
 494 500 l 29
 494 400 l 29x9001
 456 400 l 29x9004
494 500 m 29x9001
 494 600 l 29
 531 600 l 29
 531 500 l 29x880080
 494 500 l 29x9001
EndSplineSet
EndChar

StartChar: uni2614
Encoding: 9748 9748 222
Width: 525
Flags: HW
HStem: -100 100<188 262> 0 100<112 150 450 488> 150 100<75 112 488 525> 250 100<150 188 412 450> 400 200<150 225 375 450> 400 100<75 150 450 525> 600 100<75 112 488 525> 700 100<150 188 412 450>
VStem: 75 38<150 250 600 700> 112 38<0 100> 150 38<250 350 700 800> 188 112<-100 0> 262 75<0 400> 412 38<250 350 700 800> 450 38<0 100> 488 38<150 250 600 700>
LayerCount: 2
Back
Fore
SplineSet
188 -100 m 29x8010
 188 0 l 25x8010
 262 0 l 25
 262 400 l 25
 75 400 l 25
 75 500 l 25
 150 500 l 25x84a8
 150 600 l 25
 225 600 l 25
 225 700 l 25
 375 700 l 25
 375 600 l 25
 450 600 l 25x09aa
 450 500 l 25x04aa
 525 500 l 25
 525 400 l 25
 338 400 l 25
 338 0 l 25x4409
 300 0 l 25x4410
 300 -100 l 25
 188 -100 l 29x8010
112 0 m 1x4040
 112 100 l 1
 150 100 l 1
 150 0 l 1
 112 0 l 1x4040
450 0 m 1x4002
 450 100 l 1
 488 100 l 1
 488 0 l 1
 450 0 l 1x4002
75 150 m 1x2080
 75 250 l 1
 112 250 l 1
 112 150 l 1
 75 150 l 1x2080
150 250 m 1x1020
 150 350 l 1
 188 350 l 1
 188 250 l 1
 150 250 l 1x1020
488 150 m 1x2001
 488 250 l 1
 525 250 l 1
 525 150 l 1
 488 150 l 1x2001
412 250 m 1x1004
 412 350 l 1
 450 350 l 1
 450 250 l 1
 412 250 l 1x1004
488 600 m 1x0201
 488 700 l 1
 525 700 l 1
 525 600 l 1
 488 600 l 1x0201
75 600 m 1x0280
 75 700 l 1
 112 700 l 1
 112 600 l 1
 75 600 l 1x0280
412 700 m 1x0104
 412 800 l 1
 450 800 l 1
 450 700 l 1
 412 700 l 1x0104
150 700 m 1x0120
 150 800 l 1
 188 800 l 1
 188 700 l 1
 150 700 l 1x0120
EndSplineSet
EndChar

StartChar: uni2669
Encoding: 9833 9833 223
Width: 518
Flags: HW
HStem: 0 300<181 331> 100 100<144 181>
VStem: 331 75<300 800>
LayerCount: 2
Back
Fore
SplineSet
181 100 m 29x60
 144 100 l 25
 144 200 l 25
 181 200 l 25x60
 181 300 l 25
 331 300 l 25xa0
 331 800 l 25
 406 800 l 25
 406 100 l 25
 369 100 l 25x60
 369 0 l 25
 181 0 l 25xa0
 181 100 l 29x60
EndSplineSet
EndChar

StartChar: uni2757
Encoding: 10071 10071 225
Width: 525
Flags: HW
HStem: 0 100<262 338> 680 20G<262 338>
VStem: 262 75<0 100 200 700>
LayerCount: 2
Back
Fore
SplineSet
262 700 m 29
 338 700 l 25
 338 200 l 25
 262 200 l 25
 262 700 l 29
338 0 m 25
 262 0 l 1
 262 100 l 25
 338 100 l 1
 338 0 l 25
EndSplineSet
EndChar

StartChar: uni2753
Encoding: 10067 10067 226
Width: 531
Flags: HW
HStem: 0 100<306 381> 200 100<306 381> 300 100<381 419> 600 100<231 419>
VStem: 156 75<400 600> 306 75<0 100 200 300> 381 75<300 400> 419 75<400 600>
LayerCount: 2
Back
Fore
SplineSet
306 300 m 1xdc
 381 300 l 1
 381 200 l 1
 306 200 l 1
 306 300 l 1xdc
381 0 m 25
 306 0 l 1
 306 100 l 25
 381 100 l 1
 381 0 l 25
156 600 m 25
 194 600 l 25
 194 700 l 25
 456 700 l 25
 456 600 l 25xba
 494 600 l 25
 494 400 l 25xb9
 456 400 l 25
 456 300 l 25xba
 381 300 l 25xdc
 381 400 l 25xba
 419 400 l 25
 419 600 l 25
 231 600 l 25
 231 400 l 25
 156 400 l 25xb9
 156 600 l 25
EndSplineSet
EndChar

StartChar: uni2795
Encoding: 10133 10133 227
Width: 525
Flags: HW
HStem: 250 100<150 262 338 450>
VStem: 262 75<50 250 350 550>
LayerCount: 2
Back
Fore
SplineSet
262 550 m 29
 338 550 l 25
 338 350 l 25
 450 350 l 25
 450 250 l 25
 338 250 l 25
 338 50 l 25
 262 50 l 25
 262 250 l 25
 150 250 l 25
 150 350 l 25
 262 350 l 25
 262 550 l 29
EndSplineSet
EndChar

StartChar: uni2796
Encoding: 10134 10134 228
Width: 525
Flags: HW
HStem: 250 100<150 450>
LayerCount: 2
Back
Fore
SplineSet
150 250 m 29
 150 350 l 25
 450 350 l 25
 450 250 l 25
 150 250 l 29
EndSplineSet
EndChar

StartChar: uni231A
Encoding: 8986 8986 229
Width: 1050
Flags: HW
HStem: -100 200<488 712> 0 100<450 488 712 750> 300 100<638 712> 480 20G<562 638> 600 200<488 712> 600 100<450 488 712 750>
VStem: 338 75<200 500> 375 75<100 200 500 600> 488 225<-100 0 700 800> 562 75<400 500> 750 75<100 200 500 600> 788 75<200 500>
LayerCount: 2
Back
Fore
SplineSet
562 500 m 29x3040
 638 500 l 25
 638 400 l 25x3040
 712 400 l 25
 712 300 l 25x3080
 562 300 l 25
 562 500 l 29x3040
450 600 m 25x7520
 450 500 l 25x7520
 412 500 l 25
 412 200 l 25x76
 450 200 l 25
 450 100 l 25
 750 100 l 25
 750 200 l 25x7520
 788 200 l 25
 788 500 l 25x7410
 750 500 l 25
 750 600 l 25
 450 600 l 25x7520
488 700 m 25x7680
 488 800 l 25
 712 800 l 25x3a80
 712 700 l 25
 788 700 l 25
 788 600 l 25x3690
 825 600 l 25
 825 500 l 25x3420
 862 500 l 25
 862 200 l 25x3410
 825 200 l 25
 825 100 l 25x7420
 788 100 l 25
 788 0 l 25
 712 0 l 25x7490
 712 -100 l 25
 488 -100 l 25xb090
 488 0 l 25
 412 0 l 25
 412 100 l 25x7290
 375 100 l 25
 375 200 l 25x71
 338 200 l 25
 338 500 l 25x72
 375 500 l 25
 375 600 l 25x75
 412 600 l 25
 412 700 l 25
 488 700 l 25x7680
EndSplineSet
EndChar

StartChar: uni2797
Encoding: 10135 10135 230
Width: 525
Flags: HW
HStem: 100 100<262 338> 300 100<150 450> 500 100<262 338>
VStem: 262 75<100 200 500 600>
CounterMasks: 1 e0
LayerCount: 2
Back
Fore
SplineSet
262 100 m 29
 262 200 l 25
 338 200 l 25
 338 100 l 25
 262 100 l 29
150 300 m 25
 150 400 l 25
 450 400 l 25
 450 300 l 25
 150 300 l 25
262 500 m 25
 262 600 l 25
 338 600 l 25
 338 500 l 25
 262 500 l 25
EndSplineSet
EndChar

StartChar: uni25B6
Encoding: 9654 9654 231
Width: 531
Flags: HMW
LayerCount: 2
Back
Fore
SplineSet
156 0 m 29
 156 700 l 25
 269 700 l 25
 269 600 l 25
 344 600 l 25
 344 500 l 25
 419 500 l 25
 419 400 l 25
 494 400 l 25
 494 300 l 25
 419 300 l 25
 419 200 l 25
 344 200 l 25
 344 100 l 25
 269 100 l 25
 269 0 l 25
 156 0 l 29
EndSplineSet
EndChar

StartChar: uni25C0
Encoding: 9664 9664 232
Width: 531
Flags: HMW
LayerCount: 2
Back
Fore
SplineSet
381 0 m 29
 381 100 l 25
 306 100 l 25
 306 200 l 25
 231 200 l 25
 231 300 l 25
 156 300 l 25
 156 400 l 25
 231 400 l 25
 231 500 l 25
 306 500 l 25
 306 600 l 25
 381 600 l 25
 381 700 l 25
 494 700 l 25
 494 0 l 25
 381 0 l 29
EndSplineSet
EndChar

StartChar: H18543
Encoding: 9642 9642 233
Width: 518
Flags: HMW
LayerCount: 2
Back
Fore
SplineSet
181 100 m 29
 181 400 l 25
 369 400 l 25
 369 100 l 25
 181 100 l 29
EndSplineSet
EndChar

StartChar: triagup
Encoding: 9650 9650 234
Width: 525
Flags: HMW
LayerCount: 2
Back
Fore
SplineSet
112 100 m 29
 112 200 l 29
 150 200 l 29
 150 300 l 29
 188 300 l 29
 188 400 l 29
 225 400 l 29
 225 500 l 29
 262 500 l 29
 262 600 l 29
 338 600 l 29
 338 500 l 29
 375 500 l 29
 375 400 l 29
 412 400 l 29
 412 300 l 29
 450 300 l 29
 450 200 l 29
 488 200 l 29
 488 100 l 29
 112 100 l 29
EndSplineSet
EndChar

StartChar: triagdn
Encoding: 9660 9660 235
Width: 525
Flags: HMW
LayerCount: 2
Back
Fore
SplineSet
112 500 m 29
 112 600 l 25
 488 600 l 25
 488 500 l 25
 450 500 l 25
 450 400 l 25
 412 400 l 25
 412 300 l 25
 375 300 l 25
 375 200 l 25
 338 200 l 25
 338 100 l 25
 262 100 l 25
 262 200 l 25
 225 200 l 25
 225 300 l 25
 188 300 l 25
 188 400 l 25
 150 400 l 25
 150 500 l 25
 112 500 l 29
EndSplineSet
EndChar

StartChar: H18551
Encoding: 9643 9643 236
Width: 518
Flags: HW
HStem: 100 100<219 331> 300 100<219 331>
VStem: 181 38<200 300> 331 38<200 300>
LayerCount: 2
Back
Fore
SplineSet
219 200 m 29
 331 200 l 25
 331 300 l 25
 219 300 l 25
 219 200 l 29
181 100 m 25
 181 400 l 25
 369 400 l 25
 369 100 l 25
 181 100 l 25
EndSplineSet
EndChar

StartChar: uni231B
Encoding: 8987 8987 237
Width: 1056
Flags: HW
HStem: -100 300<419 456 569 681 794 831> -100 200<494 569 681 756> -100 100<381 419 831 869> 200 100<494 531 719 756> 400 100<494 531 719 756> 600 200<494 756> 700 100<381 419 831 869>
VStem: 419 75<100 200 500 600> 456 112<200 300> 681 112<200 300> 756 75<100 200 500 600>
LayerCount: 2
Back
Fore
SplineSet
681 100 m 29x4840
 756 100 l 25
 756 200 l 25x5820
 681 200 l 25x8840
 681 100 l 29x4840
569 300 m 25x18c0
 569 200 l 25
 681 200 l 25x88c0
 681 300 l 25
 569 300 l 25x18c0
494 100 m 25x59
 569 100 l 25x5880
 569 200 l 25x8880
 494 200 l 25
 494 100 l 25x59
606 400 m 25
 644 400 l 25
 644 500 l 25
 756 500 l 25
 756 600 l 25
 494 600 l 25
 494 500 l 25x0d20
 606 500 l 25
 606 400 l 25
381 -100 m 25x2820
 381 0 l 25
 419 0 l 25x2920
 419 200 l 25x8920
 456 200 l 25x8880
 456 300 l 25
 531 300 l 25
 531 400 l 25
 456 400 l 25
 456 500 l 25x1880
 419 500 l 25
 419 700 l 25
 381 700 l 25
 381 800 l 25
 869 800 l 25
 869 700 l 25
 831 700 l 25
 831 500 l 25x1b20
 794 500 l 25
 794 400 l 25
 719 400 l 25
 719 300 l 25
 794 300 l 25x1a40
 794 200 l 25x8840
 831 200 l 25x8820
 831 0 l 25
 869 0 l 25
 869 -100 l 25
 381 -100 l 25x2820
EndSplineSet
EndChar

StartChar: uni23F3
Encoding: 9203 9203 238
Width: 1056
Flags: HW
HStem: -100 200<494 756> -100 100<381 419 831 869> 200 100<494 531 719 756> 400 100<494 531 719 756> 500 300<419 456 569 681 794 831> 600 200<494 569 681 756> 700 100<381 419 831 869>
VStem: 419 75<100 200 500 600> 456 112<400 500> 681 112<400 500> 756 75<100 200 500 600>
LayerCount: 2
Back
Fore
SplineSet
494 100 m 29xa120
 756 100 l 25
 756 200 l 25
 644 200 l 25
 644 300 l 25
 606 300 l 25
 606 200 l 25
 494 200 l 25
 494 100 l 29xa120
681 500 m 25x2840
 756 500 l 25
 756 600 l 25x3420
 681 600 l 25x3440
 681 500 l 25x2840
569 400 m 25x30c0
 681 400 l 25x30c0
 681 500 l 25
 569 500 l 25x28c0
 569 400 l 25x30c0
494 500 m 25x35
 569 500 l 25x2880
 569 600 l 25x2480
 494 600 l 25
 494 500 l 25x35
381 -100 m 25x7020
 381 0 l 25
 419 0 l 25
 419 200 l 25x7120
 456 200 l 25
 456 300 l 25
 531 300 l 25
 531 400 l 25
 456 400 l 25x7080
 456 500 l 25x2880
 419 500 l 25x29
 419 700 l 25
 381 700 l 25
 381 800 l 25
 869 800 l 25
 869 700 l 25
 831 700 l 25x2320
 831 500 l 25x2920
 794 500 l 25x2840
 794 400 l 25
 719 400 l 25
 719 300 l 25
 794 300 l 25
 794 200 l 25x3040
 831 200 l 25
 831 0 l 25
 869 0 l 25
 869 -100 l 25
 381 -100 l 25x7020
EndSplineSet
EndChar

StartChar: uni26D4
Encoding: 9940 9940 239
Width: 1050
Flags: HW
HStem: -100 400<450 750> 400 400<450 750>
VStem: 300 112<300 400> 788 112<300 400>
LayerCount: 2
Back
Fore
SplineSet
412 300 m 29
 788 300 l 25
 788 400 l 25
 412 400 l 25
 412 300 l 29
450 -100 m 25
 450 0 l 25
 375 0 l 25
 375 100 l 25
 338 100 l 25
 338 200 l 25
 300 200 l 25
 300 500 l 25
 338 500 l 25
 338 600 l 25
 375 600 l 25
 375 700 l 25
 450 700 l 25
 450 800 l 25
 750 800 l 25
 750 700 l 25
 825 700 l 25
 825 600 l 25
 862 600 l 25
 862 500 l 25
 900 500 l 25
 900 200 l 25
 862 200 l 25
 862 100 l 25
 825 100 l 25
 825 0 l 25
 750 0 l 25
 750 -100 l 25
 450 -100 l 25
EndSplineSet
EndChar

StartChar: uni26C5
Encoding: 9925 9925 240
Width: 525
Flags: HW
HStem: 0 300<150 188 338 450> 100 100<75 112 488 525> 500 100<150 225>
VStem: 75 75<300 500> 225 75<400 500>
LayerCount: 2
Back
Fore
SplineSet
188 300 m 29xb8
 188 400 l 25
 225 400 l 25
 225 500 l 25
 150 500 l 25
 150 300 l 25
 188 300 l 29xb8
75 300 m 25
 75 500 l 25
 112 500 l 25
 112 600 l 25
 262 600 l 25
 262 500 l 25
 300 500 l 25
 300 400 l 25
 338 400 l 25
 338 300 l 25
 450 300 l 25xb8
 450 200 l 25
 525 200 l 25
 525 100 l 25
 488 100 l 25x78
 488 0 l 25
 150 0 l 25xb8
 150 100 l 25
 75 100 l 25
 75 200 l 25
 112 200 l 25x78
 112 300 l 25
 75 300 l 25
EndSplineSet
EndChar

StartChar: musicalnote
Encoding: 9834 9834 241
Width: 518
Flags: HW
HStem: 0 300<106 256> 100 100<69 106> 700 100<331 369>
VStem: 256 75<300 700> 369 75<600 700> 406 75<400 600>
LayerCount: 2
Back
Fore
SplineSet
106 0 m 29xb8
 106 100 l 25
 69 100 l 25
 69 200 l 25
 106 200 l 25x78
 106 300 l 25
 256 300 l 25
 256 800 l 25
 406 800 l 25
 406 700 l 25xb4
 444 700 l 25
 444 600 l 25xb8
 481 600 l 25
 481 400 l 25
 406 400 l 25
 406 600 l 25xb4
 369 600 l 25
 369 700 l 25
 331 700 l 25
 331 100 l 25
 294 100 l 25x78
 294 0 l 25
 106 0 l 29xb8
EndSplineSet
EndChar

StartChar: musicalnotedbl
Encoding: 9835 9835 242
Width: 1043
Flags: HW
HStem: 0 300<331 444 669 781> 100 100<294 331 631 669> 700 100<519 781>
VStem: 444 75<300 700> 781 75<300 700>
LayerCount: 2
Back
Fore
SplineSet
294 100 m 29x78
 294 200 l 5
 331 200 l 29x78
 331 300 l 29
 444 300 l 29xb8
 444 800 l 29
 856 800 l 29
 856 100 l 29
 819 100 l 29x78
 819 0 l 29
 669 0 l 29xb8
 669 100 l 29
 631 100 l 29
 631 200 l 29
 669 200 l 29x78
 669 300 l 29
 781 300 l 29xb8
 781 700 l 29
 519 700 l 29
 519 100 l 29
 481 100 l 29x78
 481 0 l 29
 331 0 l 29xb8
 331 100 l 5
 294 100 l 29x78
EndSplineSet
EndChar

StartChar: uni266C
Encoding: 9836 9836 243
Width: 1043
Flags: HW
HStem: 0 300<331 444 669 781> 100 100<294 331 631 669> 500 100<519 781> 700 100<519 781>
VStem: 444 75<300 500 600 700> 781 75<300 500 600 700>
LayerCount: 2
Back
Fore
SplineSet
519 600 m 1x3c
 781 600 l 29
 781 700 l 1
 519 700 l 25
 519 600 l 1x3c
294 100 m 25x7c
 294 200 l 1
 331 200 l 25x7c
 331 300 l 25
 444 300 l 25xbc
 444 800 l 25
 856 800 l 25
 856 100 l 25
 819 100 l 25x7c
 819 0 l 25
 669 0 l 25xbc
 669 100 l 25
 631 100 l 25
 631 200 l 25
 669 200 l 25x7c
 669 300 l 25
 781 300 l 1xbc
 781 500 l 1
 519 500 l 1
 519 100 l 1
 481 100 l 25x7c
 481 0 l 25
 331 0 l 25xbc
 331 100 l 1
 294 100 l 25x7c
EndSplineSet
EndChar

StartChar: Idieresis
Encoding: 207 207 244
Width: 525
Flags: HW
HStem: 0 100<150 262 338 450> 600 100<150 262 338 450>
VStem: 262 75<100 600>
LayerCount: 2
Back
Fore
SplineSet
150 700 m 29
 450 700 l 25
 450 600 l 25
 338 600 l 25
 338 100 l 25
 450 100 l 25
 450 0 l 25
 150 0 l 25
 150 100 l 25
 262 100 l 25
 262 600 l 25
 150 600 l 25
 150 700 l 29
EndSplineSet
EndChar

StartChar: idieresis
Encoding: 239 239 245
Width: 525
Flags: HW
HStem: 0 100<188 262 337 412> 400 100<225 262> 600 100<225 338>
VStem: 225 112<400 500 600 700> 262 75<100 400>
LayerCount: 2
Back
Fore
SplineSet
225 500 m 1xf0
 338 500 l 25xf0
 337 100 l 25
 412 100 l 25
 412 0 l 25
 188 0 l 25
 188 100 l 25
 262 100 l 25
 262 400 l 1xe8
 225 400 l 29
 225 500 l 1xf0
225 700 m 25
 338 700 l 25
 338 600 l 25
 225 600 l 25
 225 700 l 25
EndSplineSet
EndChar

StartChar: onequarter
Encoding: 188 188 246
Width: 525
Flags: HW
HStem: -200 21G<412 488> -100 100<338 412> 200 100<375 412> 500 100<112 150> 680 20G<150 225>
VStem: 112 112<500 600> 150 75<200 500 600 700> 262 75<0 100> 300 75<100 200> 338 75<200 300> 412 75<-200 -100 0 100>
LayerCount: 2
Back
Fore
SplineSet
338 200 m 29xf840
 338 300 l 29
 412 300 l 29
 412 200 l 29xf840
 375 200 l 29
 375 100 l 29xf880
 338 100 l 29
 338 0 l 29
 412 0 l 29
 412 100 l 29
 488 100 l 29
 488 -200 l 29
 412 -200 l 29
 412 -100 l 29
 262 -100 l 29
 262 100 l 29xf920
 300 100 l 29
 300 200 l 29xf880
 338 200 l 29xf840
150 600 m 25xfa
 150 700 l 25
 225 700 l 25
 225 200 l 25
 150 200 l 25
 150 500 l 25xfa
 112 500 l 25
 112 600 l 25xfc
 150 600 l 25xfa
EndSplineSet
EndChar

StartChar: onehalf
Encoding: 189 189 247
Width: 525
Flags: HW
HStem: -200 100<262 300 375 488> 0 100<375 412> 100 100<262 300 450 488> 200 100<338 412> 500 100<112 150> 680 20G<150 225>
VStem: 112 112<500 600> 150 75<200 500 600 700> 262 75<100 200> 300 75<-100 0> 375 75<0 100> 412 75<100 200>
LayerCount: 2
Back
Fore
SplineSet
262 100 m 29xac90
 262 200 l 25xac90
 300 200 l 25xac40
 300 300 l 25x9c40
 450 300 l 25x9c20
 450 200 l 25xac20
 488 200 l 25
 488 100 l 25xac10
 450 100 l 25xac20
 450 0 l 25xcc20
 375 0 l 25
 375 -100 l 25xcc40
 488 -100 l 25
 488 -200 l 25
 262 -200 l 25
 262 -100 l 25xcc90
 300 -100 l 25
 300 0 l 25
 375 0 l 25xcc40
 375 100 l 25xcc20
 412 100 l 25
 412 200 l 25
 338 200 l 25xdc90
 338 100 l 25
 262 100 l 29xac90
150 600 m 25x9d
 150 700 l 25
 225 700 l 25
 225 200 l 25
 150 200 l 25
 150 500 l 25x9d
 112 500 l 25
 112 600 l 25x9e
 150 600 l 25x9d
EndSplineSet
EndChar

StartChar: threequarters
Encoding: 190 190 248
Width: 531
Flags: HW
HStem: -200 21G<456 531> -100 100<381 456> 200 100<119 231 419 456> 400 100<156 231> 600 100<119 231>
VStem: 156 112<400 500> 231 75<300 400 500 600> 306 75<0 100> 344 75<100 200> 381 75<200 300> 456 75<-200 -100 0 100>
LayerCount: 2
Back
Fore
SplineSet
381 200 m 25xf840
 381 300 l 25
 456 300 l 25
 456 200 l 25xf840
 419 200 l 25
 419 100 l 25xf880
 381 100 l 25
 381 0 l 25
 456 0 l 25
 456 100 l 25
 531 100 l 25
 531 -200 l 25
 456 -200 l 25
 456 -100 l 25
 306 -100 l 25
 306 100 l 25xf920
 344 100 l 25
 344 200 l 25xf880
 381 200 l 25xf840
119 600 m 1
 119 700 l 1
 306 700 l 1xf9
 306 500 l 25xfa
 269 500 l 25
 269 400 l 25xfc
 306 400 l 25
 306 300 l 25xfa
 269 300 l 25
 269 200 l 1xfc
 119 200 l 1
 119 300 l 1
 231 300 l 1
 231 400 l 25xfa
 156 400 l 25
 156 500 l 25xfc
 231 500 l 25
 231 600 l 1xfa
 119 600 l 1
EndSplineSet
EndChar

StartChar: udieresis
Encoding: 252 252 249
Width: 531
Flags: HW
HStem: 0 100<231 381> 100 100<381 419> 480 20G<156 231 419 494>
VStem: 156 75<100 500> 381 112<100 200> 419 75<0 100 200 500>
LayerCount: 2
Back
Fore
SplineSet
156 500 m 29x78
 231 500 l 25
 231 100 l 25
 381 100 l 25xb8
 381 200 l 25x78
 419 200 l 25x74
 419 500 l 25
 494 500 l 25
 494 0 l 25
 419 0 l 25xb4
 419 100 l 25x74
 381 100 l 25
 381 0 l 25
 194 0 l 25xb8
 194 100 l 25
 156 100 l 25
 156 500 l 29x78
EndSplineSet
EndChar

StartChar: oslash
Encoding: 248 248 250
Width: 531
Flags: HW
HStem: 0 100<231 419> 400 100<231 419>
VStem: 156 75<100 400> 419 75<100 400>
LayerCount: 2
Back
Fore
SplineSet
231 400 m 29
 231 100 l 25
 419 100 l 25
 419 400 l 25
 231 400 l 29
194 500 m 25
 456 500 l 25
 456 400 l 25
 494 400 l 25
 494 100 l 25
 456 100 l 25
 456 0 l 25
 194 0 l 25
 194 100 l 25
 156 100 l 25
 156 400 l 25
 194 400 l 25
 194 500 l 25
EndSplineSet
EndChar

StartChar: copyright
Encoding: 169 169 251
Width: 525
Flags: HW
HStem: 0 100<188 412> 200 100<262 375> 300 100<188 225> 400 100<262 375> 600 100<188 412>
VStem: 75 75<200 500> 112 75<100 200 500 600> 188 75<300 400> 225 150<200 300 400 500> 412 75<100 200 500 600> 450 75<200 500>
LayerCount: 2
Back
Fore
SplineSet
225 400 m 29xa880
 225 500 l 1
 375 500 l 25
 375 400 l 25x9880
 262 400 l 25
 262 300 l 25xd9
 375 300 l 25
 375 200 l 25
 225 200 l 25xd880
 225 300 l 25xa880
 188 300 l 25
 188 400 l 1xa9
 225 400 l 29xa880
188 500 m 25xda40
 150 500 l 25
 150 200 l 25xdc
 188 200 l 25
 188 100 l 25
 412 100 l 25
 412 200 l 25xda40
 450 200 l 25
 450 500 l 25xd820
 412 500 l 25
 412 600 l 25
 188 600 l 25
 188 500 l 25xda40
150 600 m 25
 150 700 l 25
 450 700 l 25
 450 600 l 25xdc20
 488 600 l 25
 488 500 l 25xd840
 525 500 l 25
 525 200 l 25xd820
 488 200 l 25
 488 100 l 25xd840
 450 100 l 25
 450 0 l 25
 150 0 l 25
 150 100 l 25xdc20
 112 100 l 25
 112 200 l 25xda
 75 200 l 25
 75 500 l 25xdc
 112 500 l 25
 112 600 l 25xda
 150 600 l 25
EndSplineSet
EndChar

StartChar: registered
Encoding: 174 174 252
Width: 525
Flags: HW
HStem: 0 100<188 412> 200 100<338 412> 400 100<338 375> 600 100<188 412>
VStem: 75 75<200 500> 112 75<100 200 500 600> 225 112<300 400> 225 75<200 300> 338 75<200 300> 412 75<100 200 500 600> 450 75<200 500>
LayerCount: 2
Back
Fore
SplineSet
225 200 m 29xf1
 225 500 l 25xf1
 375 500 l 25
 375 400 l 25
 338 400 l 25
 338 300 l 25xf2
 412 300 l 25
 412 200 l 25
 338 200 l 25xf080
 338 300 l 25xf2
 300 300 l 25
 300 200 l 25
 225 200 l 29xf1
188 500 m 25xf440
 150 500 l 25
 150 200 l 25xf8
 188 200 l 25
 188 100 l 25
 412 100 l 25xf440
 412 200 l 25
 450 200 l 25
 450 500 l 25xf0a0
 412 500 l 25
 412 600 l 25
 188 600 l 25
 188 500 l 25xf440
150 600 m 25
 150 700 l 25
 450 700 l 25
 450 600 l 25xf820
 488 600 l 25
 488 500 l 25xf040
 525 500 l 25
 525 200 l 25xf020
 488 200 l 25
 488 100 l 25xf040
 450 100 l 25
 450 0 l 25
 150 0 l 25
 150 100 l 25xf820
 112 100 l 25
 112 200 l 25xf4
 75 200 l 25
 75 500 l 25xf8
 112 500 l 25
 112 600 l 25xf4
 150 600 l 25
EndSplineSet
EndChar

StartChar: uni00B2
Encoding: 178 178 253
Width: 525
Flags: HW
HStem: 300 100<188 225 300 412> 500 100<300 338> 600 100<188 225 375 412> 700 100<262 338>
VStem: 188 75<600 700> 225 75<400 500> 300 75<500 600> 338 75<600 700>
LayerCount: 2
Back
Fore
SplineSet
225 700 m 29xa4
 225 800 l 25x94
 375 800 l 25x92
 375 700 l 25xa2
 412 700 l 25
 412 600 l 25xa1
 375 600 l 25xa2
 375 500 l 25xc2
 300 500 l 25
 300 400 l 25xc4
 412 400 l 25
 412 300 l 25
 188 300 l 25
 188 400 l 25xc9
 225 400 l 25
 225 500 l 25
 300 500 l 25xc4
 300 600 l 25xc2
 338 600 l 25
 338 700 l 25
 262 700 l 25xd9
 262 600 l 25
 188 600 l 25
 188 700 l 25xa9
 225 700 l 29xa4
EndSplineSet
EndChar

StartChar: uni00B3
Encoding: 179 179 254
Width: 525
Flags: HW
HStem: 300 100<188 338> 400 100<375 412> 500 100<262 338> 700 100<188 338>
VStem: 262 112<500 600> 338 75<400 500 600 700>
LayerCount: 2
Back
Fore
SplineSet
188 700 m 29xb4
 188 800 l 29
 412 800 l 29
 412 600 l 29xb4
 375 600 l 29xb8
 375 500 l 29x58
 412 500 l 29
 412 400 l 29x54
 375 400 l 29x58
 375 300 l 29x98
 188 300 l 29
 188 400 l 29
 338 400 l 29
 338 500 l 29xb4
 262 500 l 29
 262 600 l 29xb8
 338 600 l 29
 338 700 l 29
 188 700 l 29xb4
EndSplineSet
EndChar

StartChar: uni00B9
Encoding: 185 185 255
Width: 531
Flags: HW
HStem: 600 100<269 306>
VStem: 269 112<600 700> 306 75<400 600 700 800>
LayerCount: 2
Back
Fore
SplineSet
306 700 m 29xa0
 306 800 l 25
 381 800 l 25
 381 400 l 25
 306 400 l 25
 306 600 l 25xa0
 269 600 l 25
 269 700 l 25xc0
 306 700 l 29xa0
EndSplineSet
EndChar

StartChar: Euro
Encoding: 8364 8364 256
Width: 525
Flags: HW
HStem: 0 100<262 412> 100 100<450 488> 200 100<112 150 262 375> 400 100<112 150 262 375> 500 100<450 488> 600 100<262 412>
VStem: 188 75<100 200 500 600> 225 225<0 100 600 700> 412 75<100 200 500 600>
LayerCount: 2
Back
Fore
SplineSet
262 500 m 29x1680
 375 500 l 25
 375 400 l 25
 225 400 l 25
 225 300 l 25x35
 375 300 l 25
 375 200 l 25
 262 200 l 25
 262 100 l 25
 412 100 l 25
 412 200 l 25xb680
 488 200 l 25
 488 100 l 25x4280
 450 100 l 25x41
 450 0 l 25
 225 0 l 25x81
 225 100 l 25x41
 188 100 l 25x42
 188 200 l 25
 112 200 l 25
 112 300 l 25
 150 300 l 25
 150 400 l 25
 112 400 l 25
 112 500 l 25x32
 188 500 l 25x0a
 188 600 l 25x06
 225 600 l 25
 225 700 l 25
 450 700 l 25x05
 450 600 l 25x09
 488 600 l 25
 488 500 l 25
 412 500 l 25x0880
 412 600 l 25
 262 600 l 25
 262 500 l 29x1680
EndSplineSet
EndChar

StartChar: uni20B4
Encoding: 8372 8372 257
Width: 531
Flags: HW
HStem: 0 100<231 419> 100 100<456 494> 300 100<231 419> 500 100<156 194> 600 100<231 419>
VStem: 156 75<100 300 500 600> 194 262<0 100 300 400 600 700> 419 75<100 200 400 600>
LayerCount: 2
Back
Fore
SplineSet
156 500 m 29x35
 156 600 l 25x35
 194 600 l 25x32
 194 700 l 25
 456 700 l 25
 456 600 l 25x2a
 494 600 l 25
 494 400 l 25x29
 456 400 l 25
 456 300 l 25x2a
 231 300 l 25
 231 100 l 25
 419 100 l 25xad
 419 200 l 25
 494 200 l 25
 494 100 l 25x65
 456 100 l 25x62
 456 0 l 25
 194 0 l 25xa2
 194 100 l 25x62
 156 100 l 25
 156 300 l 25x64
 194 300 l 25
 194 400 l 25x62
 419 400 l 25
 419 600 l 25
 231 600 l 25x6d
 231 500 l 25
 156 500 l 29x35
EndSplineSet
EndChar

StartChar: radical
Encoding: 8730 8730 258
Width: 525
Flags: HW
HStem: 0 100<188 225> 600 100<338 525>
VStem: 75 75<200 400> 112 75<100 200> 225 75<100 300> 262 75<300 600>
LayerCount: 2
Back
Fore
SplineSet
75 200 m 29xe0
 75 400 l 25
 150 400 l 25
 150 200 l 25xe0
 188 200 l 25
 188 100 l 25
 225 100 l 25
 225 300 l 25xd8
 262 300 l 25
 262 600 l 25xc4
 300 600 l 25
 300 700 l 25xc8
 525 700 l 25
 525 600 l 25
 338 600 l 25
 338 300 l 25xc4
 300 300 l 25
 300 100 l 25xc8
 262 100 l 25
 262 0 l 25
 150 0 l 25
 150 100 l 25xe4
 112 100 l 25
 112 200 l 25xd0
 75 200 l 29xe0
EndSplineSet
EndChar

StartChar: infinity
Encoding: 8734 8734 259
Width: 1056
Flags: HW
HStem: 100 100<419 531 719 831> 200 300<344 381 569 606 644 681 869 906> 500 100<419 531 719 831>
VStem: 344 75<200 500> 381 188<100 200 500 600> 531 75<200 300 400 500> 644 75<200 300 400 500> 681 188<100 200 500 600> 831 75<200 500>
LayerCount: 2
Back
Fore
SplineSet
681 300 m 29xa1
 719 300 l 25
 719 200 l 25
 831 200 l 25
 831 500 l 25
 719 500 l 25
 719 400 l 25xa280
 681 400 l 25
 681 300 l 29xa1
419 200 m 25xb4
 531 200 l 25
 531 300 l 25xb4
 569 300 l 25
 569 400 l 25xa8
 531 400 l 25
 531 500 l 25
 419 500 l 25
 419 200 l 25xb4
344 200 m 25x50
 344 500 l 25x50
 381 500 l 25x48
 381 600 l 25
 569 600 l 25x28
 569 500 l 25x48
 606 500 l 25
 606 400 l 25
 644 400 l 25
 644 500 l 25x46
 681 500 l 25x41
 681 600 l 25
 869 600 l 25x21
 869 500 l 25x41
 906 500 l 25
 906 200 l 25x4080
 869 200 l 25x41
 869 100 l 25
 681 100 l 25x81
 681 200 l 25x41
 644 200 l 25
 644 300 l 25
 606 300 l 25
 606 200 l 25x46
 569 200 l 25x48
 569 100 l 25
 381 100 l 25x88
 381 200 l 25x48
 344 200 l 25x50
EndSplineSet
EndChar

StartChar: uni2B50
Encoding: 11088 11088 260
Width: 525
Flags: HW
HStem: 0 100<112 150 450 488> 400 200<150 225 375 450> 500 100<75 150 450 525>
VStem: 112 75<0 100> 150 112<100 200> 225 150<300 400 600 700> 338 112<100 200> 412 75<0 100>
LayerCount: 2
Back
Fore
SplineSet
112 0 m 29xd0
 112 100 l 25xd0
 150 100 l 25
 150 200 l 25xc8
 188 200 l 25
 188 300 l 25
 225 300 l 25
 225 400 l 25xd4
 150 400 l 25xc8
 150 500 l 25
 75 500 l 25
 75 600 l 25xa8
 225 600 l 25
 225 700 l 25xc4
 262 700 l 25
 262 800 l 25
 338 800 l 25
 338 700 l 25xca
 375 700 l 25
 375 600 l 25xc4
 525 600 l 25
 525 500 l 25
 450 500 l 25xa2
 450 400 l 25xc2
 375 400 l 25
 375 300 l 25
 412 300 l 25
 412 200 l 25xc5
 450 200 l 25
 450 100 l 25xc2
 488 100 l 25
 488 0 l 25
 412 0 l 25
 412 100 l 25xc1
 338 100 l 25
 338 200 l 25
 262 200 l 25
 262 100 l 25xca
 188 100 l 25
 188 0 l 25
 112 0 l 29xd0
EndSplineSet
EndChar

StartChar: uni274C
Encoding: 10060 10060 261
Width: 525
Flags: HW
HStem: 100 100<112 188 412 488> 200 100<188 225 375 412> 400 100<188 225 375 412> 500 100<112 188 412 488>
VStem: 112 75<100 200 500 600> 188 75<200 300 400 500> 338 75<200 300 400 500> 412 75<100 200 500 600>
LayerCount: 2
Back
Fore
SplineSet
188 400 m 29x64
 188 500 l 25x68
 262 500 l 25x14
 262 400 l 25
 338 400 l 25x26
 338 500 l 25x16
 412 500 l 25x26
 412 600 l 25
 488 600 l 25
 488 500 l 25x11
 412 500 l 25
 412 400 l 25
 375 400 l 25
 375 300 l 25
 412 300 l 25x62
 412 200 l 25x82
 488 200 l 25
 488 100 l 25
 412 100 l 25x81
 412 200 l 25x82
 338 200 l 25
 338 300 l 25
 262 300 l 25
 262 200 l 25x46
 188 200 l 25
 188 100 l 25
 112 100 l 25
 112 200 l 25
 188 200 l 25x88
 188 300 l 25
 225 300 l 25
 225 400 l 25
 188 400 l 29x64
112 500 m 25x18
 112 600 l 25
 188 600 l 25x18
 188 500 l 25x28
 112 500 l 25x18
EndSplineSet
EndChar

StartChar: uni2713
Encoding: 10003 10003 262
Width: 531
Flags: HW
HStem: 0 100<231 269> 200 100<119 156> 600 100<494 531>
VStem: 119 75<200 300> 156 75<100 200> 269 75<100 200> 306 75<200 300> 344 75<300 400> 381 75<400 500> 419 75<500 600> 456 75<600 700>
LayerCount: 2
Back
Fore
SplineSet
119 200 m 29xf0
 119 300 l 1
 194 300 l 25
 194 200 l 25xf0
 231 200 l 25
 231 100 l 25
 269 100 l 25
 269 200 l 25xec
 306 200 l 25
 306 300 l 25xe2
 344 300 l 25
 344 400 l 25xe1
 381 400 l 25
 381 500 l 25xe080
 419 500 l 25
 419 600 l 25xe040
 456 600 l 25
 456 700 l 25
 531 700 l 25
 531 600 l 25xe020
 494 600 l 25
 494 500 l 25xe040
 456 500 l 25
 456 400 l 25xe080
 419 400 l 25
 419 300 l 25xe1
 381 300 l 25
 381 200 l 25xe2
 344 200 l 25
 344 100 l 25xe4
 306 100 l 25
 306 0 l 25
 194 0 l 25
 194 100 l 25xf2
 156 100 l 25
 156 200 l 1xe8
 119 200 l 29xf0
EndSplineSet
EndChar

StartChar: uni2699
Encoding: 9881 9881 263
Width: 1050
Flags: HW
HStem: 0 100<412 450 750 788> 300 100<338 450 750 862> 600 100<412 450 750 788>
VStem: 412 75<0 100 601 700> 450 112<200 300 400 500> 562 75<-100 100 600 800> 638 112<200 300 400 500> 712 75<0 100 600 700>
CounterMasks: 1 e0
LayerCount: 2
Back
Fore
SplineSet
525 300 m 29xea
 562 300 l 25
 562 200 l 25
 638 200 l 25
 638 300 l 25
 675 300 l 25
 675 400 l 25
 638 400 l 25
 638 500 l 25
 562 500 l 25
 562 400 l 25
 525 400 l 25
 525 300 l 29xea
338 300 m 25
 338 400 l 25
 450 400 l 25
 450 601 l 25xe8
 412 600 l 25
 412 700 l 25
 488 700 l 25
 488 600 l 25
 562 600 l 25
 562 800 l 25
 638 800 l 25
 638 600 l 25
 712 600 l 25
 712 700 l 25
 788 700 l 25
 788 600 l 25xf5
 750 600 l 25
 750 400 l 25
 862 400 l 25
 862 300 l 25
 750 300 l 25
 750 100 l 25xe2
 788 100 l 25
 788 0 l 25
 712 0 l 25
 712 100 l 25
 638 100 l 25
 638 -100 l 25
 562 -100 l 25
 562 100 l 25
 488 100 l 25
 488 0 l 25
 412 0 l 25
 412 100 l 25xf5
 450 100 l 25
 450 300 l 25
 338 300 l 25
EndSplineSet
EndChar

StartChar: uni2139
Encoding: 8505 8505 264
Width: 1062
Flags: HW
HStem: -100 100<462 838> 500 100<612 688> 700 100<462 838>
VStem: 350 75<100 600> 388 75<0 100 600 700> 612 75<100 400 500 600> 838 75<0 100 600 700> 875 75<100 600>
LayerCount: 2
Back
Fore
SplineSet
612 100 m 25xe4
 612 400 l 25
 688 400 l 25
 688 100 l 25
 612 100 l 25xe4
612 500 m 25
 612 600 l 25
 688 600 l 25
 688 500 l 25
 612 500 l 25
875 600 m 29xe5
 838 600 l 25
 838 700 l 25
 462 700 l 25
 462 600 l 25xee
 425 600 l 25
 425 100 l 25xf4
 462 100 l 25
 462 0 l 25
 838 0 l 25
 838 100 l 25xee
 875 100 l 25
 875 600 l 29xe5
350 100 m 25xf4
 350 600 l 25xf4
 388 600 l 25
 388 700 l 25xec
 425 700 l 25
 425 800 l 25
 875 800 l 25
 875 700 l 25xf5
 912 700 l 25
 912 600 l 25xe6
 950 600 l 25
 950 100 l 25xe5
 912 100 l 25
 912 0 l 25xe6
 875 0 l 25
 875 -100 l 25
 425 -100 l 25
 425 0 l 25xf5
 388 0 l 25
 388 100 l 25xec
 350 100 l 25xf4
EndSplineSet
EndChar

StartChar: uni2605
Encoding: 9733 9733 265
Width: 525
Flags: HW
HStem: 0 100<112 150 450 488> 400 200<150 225 375 450> 500 100<75 150 450 525>
VStem: 112 75<0 100> 150 112<100 200> 225 150<300 400 600 700> 338 112<100 200> 412 75<0 100>
LayerCount: 2
Back
Fore
SplineSet
112 0 m 29xd0
 112 100 l 25xd0
 150 100 l 25
 150 200 l 25xc8
 188 200 l 25
 188 300 l 25
 225 300 l 25
 225 400 l 25xd4
 150 400 l 25xc8
 150 500 l 25
 75 500 l 25
 75 600 l 25xa8
 225 600 l 25
 225 700 l 25xc4
 262 700 l 25
 262 800 l 25
 338 800 l 25
 338 700 l 25xca
 375 700 l 25
 375 600 l 25xc4
 525 600 l 25
 525 500 l 25
 450 500 l 25xa2
 450 400 l 25xc2
 375 400 l 25
 375 300 l 25
 412 300 l 25
 412 200 l 25xc5
 450 200 l 25
 450 100 l 25xc2
 488 100 l 25
 488 0 l 25
 412 0 l 25
 412 100 l 25xc1
 338 100 l 25
 338 200 l 25
 262 200 l 25
 262 100 l 25xca
 188 100 l 25
 188 0 l 25
 112 0 l 29xd0
EndSplineSet
EndChar

StartChar: uni23CF
Encoding: 9167 9167 266
Width: 525
Flags: HW
HStem: 0 100<112 488> 200 100<112 150 450 488> 680 20G<262 338>
VStem: 262 75<600 700>
LayerCount: 2
Back
Fore
SplineSet
112 0 m 25
 112 100 l 25
 488 100 l 25
 488 0 l 25
 112 0 l 25
112 200 m 29
 112 300 l 29
 150 300 l 29
 150 400 l 29
 188 400 l 29
 188 500 l 29
 225 500 l 29
 225 600 l 29
 262 600 l 29
 262 700 l 29
 338 700 l 29
 338 600 l 29
 375 600 l 29
 375 500 l 29
 412 500 l 29
 412 400 l 29
 450 400 l 29
 450 300 l 29
 488 300 l 29
 488 200 l 29
 112 200 l 29
EndSplineSet
EndChar

StartChar: uni23E9
Encoding: 9193 9193 267
Width: 1056
Flags: HW
HStem: 0 21G<306 381 644 719> 200 300<456 531 794 869> 300 100<531 606 869 944> 680 20G<306 381 644 719>
VStem: 306 225<200 300 400 500> 306 150<100 200 500 600> 306 75<0 100 600 700> 644 225<200 300 400 500> 644 150<100 200 500 600> 644 75<0 100 600 700>
LayerCount: 2
Back
Fore
SplineSet
306 700 m 29xd2
 381 700 l 29
 381 600 l 29xd2
 456 600 l 29
 456 500 l 29xd4
 531 500 l 29xd8
 531 400 l 29
 606 400 l 29
 606 300 l 29
 531 300 l 29xb8
 531 200 l 29xd8
 456 200 l 29
 456 100 l 29xd4
 381 100 l 29
 381 0 l 29
 306 0 l 29
 306 700 l 29xd2
644 700 m 25xd040
 719 700 l 25
 719 600 l 25xd040
 794 600 l 25
 794 500 l 25xd080
 869 500 l 25xd1
 869 400 l 25
 944 400 l 25
 944 300 l 25
 869 300 l 25xb1
 869 200 l 25xd1
 794 200 l 25
 794 100 l 25xd080
 719 100 l 25
 719 0 l 25
 644 0 l 25
 644 700 l 25xd040
EndSplineSet
EndChar

StartChar: uni23EA
Encoding: 9194 9194 268
Width: 1056
Flags: HW
HStem: 0 21G<531 606 869 944> 200 300<381 456 719 794> 300 100<306 381 644 719> 680 20G<531 606 869 944>
VStem: 381 225<200 300 400 500> 456 150<100 200 500 600> 531 75<0 100 600 700> 719 225<200 300 400 500> 794 150<100 200 500 600> 869 75<0 100 600 700>
LayerCount: 2
Back
Fore
SplineSet
944 700 m 25xd040
 944 0 l 25
 869 0 l 25
 869 100 l 25xd040
 794 100 l 25
 794 200 l 25xd080
 719 200 l 25xd1
 719 300 l 25
 644 300 l 25
 644 400 l 25
 719 400 l 25xb1
 719 500 l 25xd1
 794 500 l 25
 794 600 l 25xd080
 869 600 l 25
 869 700 l 25
 944 700 l 25xd040
606 700 m 29xd2
 606 0 l 29
 531 0 l 29
 531 100 l 29xd2
 456 100 l 29
 456 200 l 29xd4
 381 200 l 29xd8
 381 300 l 29
 306 300 l 29
 306 400 l 29
 381 400 l 29xb8
 381 500 l 29xd8
 456 500 l 29
 456 600 l 29xd4
 531 600 l 29
 531 700 l 29
 606 700 l 29xd2
EndSplineSet
EndChar

StartChar: uni23ED
Encoding: 9197 9197 269
Width: 1056
Flags: HW
HStem: 0 21G<231 306 569 644 906 1019> 200 300<381 456 719 794> 300 100<456 531 794 869> 680 20G<231 306 569 644 906 1019>
VStem: 231 225<200 300 400 500> 231 150<100 200 500 600> 231 75<0 100 600 700> 569 225<200 300 400 500> 569 150<100 200 500 600> 569 75<0 100 600 700> 906 112<0 700>
LayerCount: 2
Back
Fore
SplineSet
906 700 m 29x9020
 1019 700 l 29
 1019 0 l 29
 906 0 l 29
 906 700 l 29x9020
569 700 m 25xd060
 644 700 l 25
 644 600 l 25xd060
 719 600 l 25
 719 500 l 25xd0a0
 794 500 l 25xd120
 794 400 l 25
 869 400 l 25
 869 300 l 25
 794 300 l 25xb120
 794 200 l 25xd120
 719 200 l 25
 719 100 l 25xd0a0
 644 100 l 25
 644 0 l 25
 569 0 l 25
 569 700 l 25xd060
231 700 m 25xd220
 306 700 l 25
 306 600 l 25xd220
 381 600 l 25
 381 500 l 25xd420
 456 500 l 25xd820
 456 400 l 25
 531 400 l 25
 531 300 l 25
 456 300 l 25xb820
 456 200 l 25xd820
 381 200 l 25
 381 100 l 25xd420
 306 100 l 25
 306 0 l 25
 231 0 l 25
 231 700 l 25xd220
EndSplineSet
EndChar

StartChar: uni23EE
Encoding: 9198 9198 270
Width: 1056
Flags: HW
HStem: 0 21G<231 344 606 681 944 1019> 200 300<456 531 794 869> 300 100<381 456 719 794> 680 20G<231 344 606 681 944 1019>
VStem: 231 112<0 700> 456 225<200 300 400 500> 531 150<100 200 500 600> 606 75<0 100 600 700> 794 225<200 300 400 500> 869 150<100 200 500 600> 944 75<0 100 600 700>
LayerCount: 2
Back
Fore
SplineSet
231 700 m 29x98
 344 700 l 29
 344 0 l 29
 231 0 l 29
 231 700 l 29x98
1019 700 m 25xd820
 1019 0 l 25
 944 0 l 25
 944 100 l 25xd820
 869 100 l 25
 869 200 l 25xd840
 794 200 l 25xd880
 794 300 l 25
 719 300 l 25
 719 400 l 25
 794 400 l 25xb880
 794 500 l 25xd880
 869 500 l 25
 869 600 l 25xd840
 944 600 l 25
 944 700 l 25
 1019 700 l 25xd820
681 700 m 25xd9
 681 0 l 25
 606 0 l 25
 606 100 l 25xd9
 531 100 l 25
 531 200 l 25xda
 456 200 l 25xdc
 456 300 l 25
 381 300 l 25
 381 400 l 25
 456 400 l 25xbc
 456 500 l 25xdc
 531 500 l 25
 531 600 l 25xda
 606 600 l 25
 606 700 l 25
 681 700 l 25xd9
EndSplineSet
EndChar

StartChar: uni23EF
Encoding: 9199 9199 271
Width: 1056
Flags: HW
HStem: 0 21G<269 344 644 756 869 981> 300 100<494 569> 680 20G<269 344 644 756 869 981>
VStem: 269 225<200 300 400 500> 269 150<100 200 500 600> 269 75<0 100 600 700> 644 112<0 700> 869 112<0 700>
LayerCount: 2
Back
Fore
SplineSet
269 700 m 25xe7
 344 700 l 25
 344 600 l 25xe7
 419 600 l 25
 419 500 l 25xeb
 494 500 l 25
 494 400 l 25
 569 400 l 25
 569 300 l 25
 494 300 l 25
 494 200 l 25xf3
 419 200 l 25
 419 100 l 25xeb
 344 100 l 25
 344 0 l 25
 269 0 l 25
 269 700 l 25xe7
644 700 m 29
 756 700 l 29
 756 0 l 29
 644 0 l 29
 644 700 l 29
869 700 m 29
 981 700 l 29
 981 0 l 29
 869 0 l 29
 869 700 l 29
EndSplineSet
EndChar

StartChar: uni23F8
Encoding: 9208 9208 273
Width: 531
Flags: HW
HStem: 0 21G<156 269 381 494> 680 20G<156 269 381 494>
VStem: 156 112<0 700> 381 112<0 700>
LayerCount: 2
Back
Fore
SplineSet
156 700 m 29
 269 700 l 29
 269 0 l 29
 156 0 l 29
 156 700 l 29
381 700 m 29
 494 700 l 29
 494 0 l 29
 381 0 l 29
 381 700 l 29
EndSplineSet
EndChar

StartChar: uni23F9
Encoding: 9209 9209 274
Width: 531
Flags: HW
HStem: 0 21G<119 531> 680 20G<119 531>
VStem: 119 412<0 700>
LayerCount: 2
Back
Fore
SplineSet
119 700 m 29
 531 700 l 25
 531 0 l 25
 119 0 l 25
 119 700 l 29
EndSplineSet
EndChar

StartChar: uni23FA
Encoding: 9210 9210 275
Width: 525
Flags: HW
HStem: 0 21G<188 412> 680 20G<188 412>
VStem: 188 225<0 100 600 700>
LayerCount: 2
Back
Fore
SplineSet
75 500 m 29
 112 500 l 25
 112 600 l 25
 188 600 l 25
 188 700 l 25
 412 700 l 25
 412 600 l 25
 488 600 l 25
 488 500 l 25
 525 500 l 25
 525 200 l 25
 488 200 l 25
 488 100 l 25
 412 100 l 25
 412 0 l 25
 188 0 l 25
 188 100 l 25
 112 100 l 25
 112 200 l 25
 75 200 l 25
 75 500 l 29
EndSplineSet
EndChar

StartChar: uni23FD
Encoding: 9213 9213 276
Width: 1062
Flags: HW
HStem: -100 100<500 800> 500 100<500 538 762 800>
VStem: 388 75<100 400> 425 75<0 100 400 500> 462 75<500 600> 612 75<300 800> 762 75<500 600> 800 75<0 100 400 500> 838 75<100 400>
LayerCount: 2
Back
Fore
SplineSet
612 300 m 29xc4
 612 800 l 1
 688 800 l 25
 688 300 l 1
 612 300 l 29xc4
462 500 m 25xcc
 462 600 l 25
 538 600 l 25
 538 500 l 25xcc
 500 500 l 25
 500 400 l 25xd4
 462 400 l 25
 462 100 l 25xe4
 500 100 l 25
 500 0 l 25
 800 0 l 25
 800 100 l 25xd5
 838 100 l 25
 838 400 l 25xc480
 800 400 l 25
 800 500 l 25xc5
 762 500 l 25
 762 600 l 25
 838 600 l 25
 838 500 l 25xc6
 875 500 l 25
 875 400 l 25xc5
 912 400 l 25
 912 100 l 25xc480
 875 100 l 25
 875 0 l 25xc5
 838 0 l 25
 838 -100 l 25
 462 -100 l 25
 462 0 l 25xcc80
 425 0 l 25
 425 100 l 25xd4
 388 100 l 25
 388 400 l 25xe4
 425 400 l 25
 425 500 l 25xd4
 462 500 l 25xcc
EndSplineSet
EndChar

StartChar: uni2B58
Encoding: 11096 11096 277
Width: 1062
Flags: HW
HStem: 0 100<575 725> 100 100<500 538 762 800> 600 100<500 538 762 800> 700 100<575 725>
VStem: 388 75<300 500> 425 75<200 300 500 600> 462 112<100 200 600 700> 538 225<0 100 700 800> 612 75<200 600> 725 112<100 200 600 700> 800 75<200 300 500 600> 838 75<300 500>
LayerCount: 2
Back
Fore
SplineSet
612 200 m 29x6080
 612 600 l 25
 688 600 l 25
 688 200 l 25
 612 200 l 29x6080
500 200 m 25x64
 575 200 l 25x62
 575 100 l 25
 725 100 l 25x8240
 725 200 l 25x4240
 800 200 l 25
 800 300 l 25x4020
 838 300 l 25
 838 500 l 25x4010
 800 500 l 25
 800 600 l 25x6020
 725 600 l 25x6040
 725 700 l 25
 575 700 l 25x1240
 575 600 l 25x2240
 500 600 l 25
 500 500 l 25x24
 462 500 l 25
 462 300 l 25x28
 500 300 l 25
 500 200 l 25x64
462 600 m 25
 462 700 l 1x12
 538 700 l 25x21
 538 800 l 25
 762 800 l 25x11
 762 700 l 25x21
 838 700 l 25x1040
 838 600 l 25x2040
 875 600 l 25
 875 500 l 25x2020
 912 500 l 25
 912 300 l 25x2010
 875 300 l 25
 875 200 l 25x6020
 838 200 l 25
 838 100 l 25x6040
 762 100 l 25x61
 762 0 l 25
 538 0 l 25x81
 538 100 l 25x41
 462 100 l 25
 462 200 l 25x42
 425 200 l 25
 425 300 l 25x44
 388 300 l 25
 388 500 l 25x48
 425 500 l 25
 425 600 l 1x64
 462 600 l 25
EndSplineSet
EndChar

StartChar: trademark
Encoding: 8482 8482 278
Width: 1056
Flags: HW
HStem: 400 300<419 494 606 681 831 906> 500 100<719 794> 600 100<344 419 494 569 681 719 794 831>
VStem: 419 75<400 600> 606 112<600 700> 606 75<400 600> 719 75<500 600> 794 112<600 700> 831 75<400 600>
LayerCount: 2
Back
Fore
SplineSet
606 400 m 29x94
 606 700 l 25x98
 719 700 l 25x38
 719 600 l 25x58
 794 600 l 25x52
 794 700 l 25x31
 906 700 l 25x91
 906 400 l 25
 831 400 l 25x9080
 831 600 l 25x3080
 794 600 l 25
 794 500 l 25
 719 500 l 25x5280
 719 600 l 25x58
 681 600 l 25x34
 681 400 l 25
 606 400 l 29x94
344 600 m 25x30
 344 701 l 25
 569 700 l 25
 569 600 l 1
 494 600 l 25x30
 494 400 l 1
 419 400 l 25x90
 419 600 l 25
 344 600 l 25x30
EndSplineSet
EndChar

StartChar: uni25FC
Encoding: 9724 9724 279
Width: 525
Flags: HW
HStem: 0 100<262 338> 680 20G<262 338>
VStem: 262 75<0 100 200 700>
LayerCount: 2
Back
Fore
SplineSet
262 700 m 29
 338 700 l 25
 338 200 l 25
 262 200 l 25
 262 700 l 29
338 0 m 25
 262 0 l 1
 262 100 l 25
 338 100 l 1
 338 0 l 25
EndSplineSet
EndChar

StartChar: filledbox
Encoding: 9632 9632 280
Width: 525
Flags: HW
HStem: 0 21G<75 525>
VStem: 75 450<0 800>
LayerCount: 2
Back
Fore
SplineSet
75 0 m 29
 75 800 l 25
 525 800 l 25
 525 0 l 25
 75 0 l 29
EndSplineSet
EndChar

StartChar: uni26C7
Encoding: 9927 9927 281
Width: 531
Flags: HW
HStem: -100 100<119 194 456 531> 400 100<156 194 456 494> 500 100<119 156 194 231 419 456 494 531>
VStem: 119 112<-100 0> 119 38<500 600> 156 38<400 500> 194 75<500 600> 231 188<100 200 400 500 600 700> 306 38<500 600> 381 75<500 600> 419 112<-100 0> 456 38<400 500> 494 38<500 600>
LayerCount: 2
Back
Fore
SplineSet
344 500 m 29xa0c0
 381 500 l 29
 381 600 l 29
 344 600 l 29
 344 500 l 29xa0c0
269 500 m 25xa280
 306 500 l 25
 306 600 l 25
 269 600 l 25
 269 500 l 25xa280
119 -100 m 25xd020
 119 0 l 25xd020
 194 0 l 25
 194 100 l 1xc2
 231 100 l 1
 231 200 l 1xc1
 194 200 l 1xc2
 194 400 l 25
 231 400 l 25xc5
 231 500 l 25xa5
 194 500 l 25xc5
 194 600 l 25xa2
 231 600 l 25
 231 700 l 25xa1
 269 700 l 25
 269 800 l 25
 381 800 l 25
 381 700 l 25xa240
 419 700 l 25
 419 600 l 25xa1
 456 600 l 25xa040
 456 500 l 25xc040
 419 500 l 25xa1
 419 400 l 25
 456 400 l 25
 456 200 l 1
 419 200 l 1
 419 100 l 1
 456 100 l 1
 456 0 l 25xc110
 531 0 l 25
 531 -100 l 25
 419 -100 l 25
 419 0 l 25
 231 0 l 25
 231 -100 l 25
 119 -100 l 25xd020
156 500 m 25xc8
 194 500 l 25
 194 400 l 25
 156 400 l 25xc4
 156 500 l 25xc8
119 600 m 25xa8
 156 600 l 25xa8
 156 500 l 25xc8
 119 500 l 25
 119 600 l 25xa8
456 400 m 25xc010
 456 500 l 25xc040
 494 500 l 25
 494 400 l 25
 456 400 l 25xc010
494 500 m 25xc010
 494 600 l 25
 531 600 l 25
 531 500 l 25xa008
 494 500 l 25xc010
EndSplineSet
EndChar

StartChar: uni2744
Encoding: 10052 10052 282
Width: 1050
Flags: HMW
LayerCount: 2
Back
Fore
SplineSet
638 500 m 29
 675 500 l 25
 675 600 l 25
 638 600 l 25
 638 500 l 29
525 500 m 25
 562 500 l 25
 562 600 l 25
 525 600 l 25
 525 500 l 25
562 400 m 25
 562 300 l 25
 638 300 l 25
 638 400 l 25
 562 400 l 25
262 -100 m 25
 262 100 l 1
 338 100 l 25
 338 0 l 25
 375 0 l 25
 375 100 l 25
 412 100 l 25
 412 200 l 25
 488 200 l 25
 488 300 l 25
 375 300 l 25
 375 200 l 25
 300 200 l 25
 300 300 l 25
 262 300 l 25
 262 400 l 25
 300 400 l 25
 300 500 l 25
 375 500 l 25
 375 400 l 25
 488 400 l 25
 488 500 l 25
 412 500 l 25
 412 600 l 25
 375 600 l 25
 375 700 l 25
 338 700 l 25
 338 600 l 25
 262 600 l 25
 262 800 l 25
 375 800 l 25
 375 700 l 25
 450 700 l 25
 450 600 l 25
 525 600 l 25
 525 700 l 25
 562 700 l 25
 562 800 l 25
 638 800 l 25
 638 700 l 25
 675 700 l 25
 675 600 l 25
 750 600 l 25
 750 700 l 25
 825 700 l 25
 825 800 l 25
 938 800 l 25
 938 600 l 25
 862 600 l 25
 862 700 l 25
 825 700 l 25
 825 600 l 25
 788 600 l 25
 788 500 l 25
 712 500 l 25
 712 400 l 25
 825 400 l 25
 825 500 l 25
 900 500 l 25
 900 400 l 25
 938 400 l 25
 938 300 l 25
 900 300 l 25
 900 200 l 25
 825 200 l 25
 825 300 l 25
 712 300 l 25
 712 200 l 25
 788 200 l 25
 788 100 l 25
 825 100 l 25
 825 0 l 25
 862 0 l 25
 862 100 l 25
 938 100 l 25
 938 -100 l 25
 825 -100 l 25
 825 0 l 25
 750 0 l 25
 750 100 l 25
 675 100 l 25
 675 200 l 25
 638 200 l 25
 638 100 l 25
 675 100 l 25
 675 0 l 25
 638 0 l 25
 638 -100 l 25
 562 -100 l 25
 562 0 l 25
 525 0 l 25
 525 100 l 25
 562 100 l 25
 562 200 l 25
 525 200 l 25
 525 100 l 25
 450 100 l 25
 450 0 l 25
 375 0 l 25
 375 -100 l 1
 262 -100 l 25
EndSplineSet
EndChar

StartChar: uni26A0
Encoding: 9888 9888 283
Width: 1050
Flags: HW
HStem: -100 100<338 862> 100 100<562 638> 300 200<412 450 562 638 750 788> 700 100<562 638>
VStem: 262 75<0 100> 300 75<100 200> 338 75<200 300> 375 75<300 400> 412 75<400 500> 450 75<500 600> 488 75<600 700> 562 75<100 200 300 500> 638 75<600 700> 675 75<500 600> 712 75<400 500> 750 75<300 400> 788 75<200 300> 825 75<100 200> 862 75<0 100>
LayerCount: 2
Back
Fore
SplineSet
562 100 m 29xf010
 562 200 l 25
 638 200 l 25
 638 100 l 25
 562 100 l 29xf010
562 300 m 25
 562 500 l 25
 638 500 l 25
 638 300 l 25
 562 300 l 25
562 600 m 25xf028
 525 600 l 25
 525 500 l 25xf040
 488 500 l 25
 488 400 l 25xf080
 450 400 l 25
 450 300 l 25xf1
 412 300 l 25
 412 200 l 25xf2
 375 200 l 25
 375 100 l 25xf4
 338 100 l 25
 338 0 l 25
 862 0 l 25
 862 100 l 25xf80020
 825 100 l 25
 825 200 l 25xf00040
 788 200 l 25
 788 300 l 25xf00080
 750 300 l 25
 750 400 l 25xf001
 712 400 l 25
 712 500 l 25xf002
 675 500 l 25
 675 600 l 25xf004
 638 600 l 25
 638 700 l 25
 562 700 l 25
 562 600 l 25xf028
262 -100 m 25xf80020
 262 100 l 1xf80020
 300 100 l 25
 300 200 l 25xf4
 338 200 l 25
 338 300 l 25xf2
 375 300 l 25
 375 400 l 25xf1
 412 400 l 25
 412 500 l 25xf080
 450 500 l 25
 450 600 l 25xf040
 488 600 l 25
 488 700 l 25xf020
 525 700 l 25
 525 800 l 25
 675 800 l 25
 675 700 l 25xf044
 712 700 l 25
 712 600 l 25xf008
 750 600 l 25
 750 500 l 25xf004
 788 500 l 25
 788 400 l 25xf002
 825 400 l 25
 825 300 l 25xf001
 862 300 l 25
 862 200 l 25xf00080
 900 200 l 25
 900 100 l 25xf00040
 938 100 l 25
 938 -100 l 1
 262 -100 l 25xf80020
EndSplineSet
EndChar

StartChar: u1F642
Encoding: 128578 128578 284
Width: 1062
Flags: HW
HStem: -100 100<462 838> 100 100<538 762> 200 100<462 500 800 838> 500 100<500 575 725 800> 700 100<462 838>
VStem: 350 75<100 600> 388 75<0 100 600 700> 462 75<200 300> 500 75<500 600> 725 75<500 600> 762 75<200 300> 838 75<0 100 600 700> 875 75<100 600>
LayerCount: 2
Back
Fore
SplineSet
725 500 m 25x9840
 725 600 l 25
 800 600 l 25
 800 500 l 25
 725 500 l 25x9840
500 500 m 25x9880
 500 600 l 25
 575 600 l 25
 575 500 l 25
 500 500 l 25x9880
462 200 m 25xb9
 462 300 l 1
 538 300 l 25xb9
 538 200 l 25
 762 200 l 25xd920
 762 300 l 25
 838 300 l 25
 838 200 l 25xb920
 800 200 l 25xb840
 800 100 l 25
 500 100 l 25xd8c0
 500 200 l 1xb8c0
 462 200 l 25xb9
462 0 m 25xda
 838 0 l 25
 838 100 l 25xda10
 875 100 l 25
 875 600 l 25xd808
 838 600 l 25
 838 700 l 25
 462 700 l 25
 462 600 l 25xda10
 425 600 l 25
 425 100 l 25xdc
 462 100 l 25
 462 0 l 25xda
350 100 m 25xdc
 350 600 l 25xdc
 388 600 l 25
 388 700 l 25xda
 425 700 l 25
 425 800 l 25
 875 800 l 25
 875 700 l 25xdc08
 912 700 l 25
 912 600 l 25xd810
 950 600 l 25
 950 100 l 25xd808
 912 100 l 25
 912 0 l 25xd810
 875 0 l 25
 875 -100 l 25
 425 -100 l 25
 425 0 l 25xdc08
 388 0 l 25
 388 100 l 25xda
 350 100 l 25xdc
EndSplineSet
EndChar

StartChar: u1F643
Encoding: 128579 128579 285
Width: 1062
Flags: HW
HStem: -100 100<462 838> 100 100<500 575 725 800> 400 100<462 500 800 838> 500 100<538 762> 700 100<462 838>
VStem: 350 75<100 600> 388 75<0 100 600 700> 462 75<400 500> 500 75<100 200> 725 75<100 200> 762 75<400 500> 838 75<0 100 600 700> 875 75<100 600>
LayerCount: 2
Back
Fore
SplineSet
462 400 m 29xe920
 462 500 l 25xe920
 500 500 l 25xe880
 500 600 l 25
 800 600 l 25xd8c0
 800 500 l 25xe8c0
 838 500 l 25
 838 400 l 25
 762 400 l 25xe820
 762 500 l 25
 538 500 l 25xd920
 538 400 l 25
 462 400 l 29xe920
725 100 m 25xc840
 725 200 l 25
 800 200 l 25
 800 100 l 25
 725 100 l 25xc840
500 100 m 25xc880
 500 200 l 25
 575 200 l 25
 575 100 l 25
 500 100 l 25xc880
462 0 m 25xda
 838 0 l 25
 838 100 l 25xda10
 875 100 l 25
 875 600 l 25xd808
 838 600 l 25
 838 700 l 25
 462 700 l 25
 462 600 l 25xda10
 425 600 l 25
 425 100 l 25xdc
 462 100 l 25
 462 0 l 25xda
350 100 m 25xdc
 350 600 l 25xdc
 388 600 l 25
 388 700 l 25xda
 425 700 l 25
 425 800 l 25
 875 800 l 25
 875 700 l 25xdc08
 912 700 l 25
 912 600 l 25xd810
 950 600 l 25
 950 100 l 25xd808
 912 100 l 25
 912 0 l 25xd810
 875 0 l 25
 875 -100 l 25
 425 -100 l 25
 425 0 l 25xdc08
 388 0 l 25
 388 100 l 25xda
 350 100 l 25xdc
EndSplineSet
EndChar

StartChar: u1F604
Encoding: 128516 128516 286
Width: 1062
Flags: HW
HStem: -100 100<462 838> 100 200<500 800> 200 100<462 500 800 838> 400 100<462 500 575 612 688 725 800 838> 500 100<500 575 725 800> 700 100<462 838>
VStem: 350 75<100 600> 388 75<0 100 600 700> 462 38<400 500> 500 75<500 600> 575 38<400 500> 688 38<400 500> 725 75<500 600> 800 38<400 500> 838 75<0 100 600 700> 875 75<100 600>
LayerCount: 2
Back
Fore
SplineSet
500 100 m 29xc444
 500 200 l 29xa444
 462 200 l 29
 462 300 l 29
 838 300 l 29
 838 200 l 29xa482
 800 200 l 29xa404
 800 100 l 29
 500 100 l 29xc444
688 400 m 25x9410
 688 500 l 25
 725 500 l 25x9410
 725 600 l 25
 800 600 l 25x8c08
 800 500 l 25x9408
 838 500 l 25
 838 400 l 25
 800 400 l 25x9404
 800 500 l 25x9408
 725 500 l 25
 725 400 l 25
 688 400 l 25x9410
462 400 m 25x9480
 462 500 l 25
 500 500 l 25x9480
 500 600 l 25
 575 600 l 25x8c40
 575 500 l 25x9440
 612 500 l 25
 612 400 l 25
 575 400 l 25x9420
 575 500 l 25x9440
 500 500 l 25
 500 400 l 25
 462 400 l 25x9480
462 0 m 25xcd
 838 0 l 25
 838 100 l 25xcd02
 875 100 l 29
 875 600 l 25xcc01
 838 600 l 25
 838 700 l 25
 462 700 l 25
 462 600 l 25xcd02
 425 600 l 25
 425 100 l 25xce
 462 100 l 25
 462 0 l 25xcd
350 100 m 25xce
 350 600 l 25xce
 388 600 l 25
 388 700 l 25xcd
 425 700 l 25
 425 800 l 25
 875 800 l 25
 875 700 l 25xce01
 912 700 l 25
 912 600 l 25xcc02
 950 600 l 25
 950 100 l 25xcc01
 912 100 l 25
 912 0 l 25xcc02
 875 0 l 25
 875 -100 l 25
 425 -100 l 25
 425 0 l 25xce01
 388 0 l 25
 388 100 l 25xcd
 350 100 l 25xce
EndSplineSet
EndChar

StartChar: u1F606
Encoding: 128518 128518 287
Width: 1062
Flags: HW
HStem: -100 100<462 838> 100 200<500 800> 200 100<462 500 800 838> 400 100<538 650 800 838> 500 100<462 500 650 762> 700 100<462 838>
VStem: 350 75<100 600> 388 75<0 100 600 700> 462 75<500 600> 762 75<400 500> 838 75<0 100 600 700> 875 75<100 600>
LayerCount: 2
Back
Fore
SplineSet
462 600 m 29x8d
 538 600 l 25x8c80
 538 500 l 25
 650 500 l 25x9480
 650 600 l 25
 800 600 l 25x8c80
 800 500 l 25
 838 500 l 25
 838 400 l 25
 762 400 l 25x94c0
 762 500 l 25x8cc0
 650 500 l 25
 650 400 l 25
 500 400 l 25x94c0
 500 500 l 25
 462 500 l 25x8cc0
 462 600 l 29x8d
500 100 m 25xc4a0
 500 200 l 25
 462 200 l 25
 462 300 l 25
 838 300 l 25
 838 200 l 25
 800 200 l 25xa4a0
 800 100 l 25
 500 100 l 25xc4a0
875 100 m 1049xc410
462 0 m 25xcd
 838 0 l 25
 838 100 l 25xcd20
 875 100 l 25
 875 600 l 25xcc10
 838 600 l 25
 838 700 l 25
 462 700 l 25
 462 600 l 25xcd20
 425 600 l 25
 425 100 l 25xce
 462 100 l 25
 462 0 l 25xcd
350 100 m 25xce
 350 600 l 25xce
 388 600 l 25
 388 700 l 25xcd
 425 700 l 25
 425 800 l 25
 875 800 l 25
 875 700 l 25xce10
 912 700 l 25
 912 600 l 25xcc20
 950 600 l 25
 950 100 l 25xcc10
 912 100 l 25
 912 0 l 25xcc20
 875 0 l 25
 875 -100 l 25
 425 -100 l 25
 425 0 l 25xce10
 388 0 l 25
 388 100 l 25xcd
 350 100 l 25xce
EndSplineSet
EndChar

StartChar: u1F60E
Encoding: 128526 128526 288
Width: 1062
Flags: HW
HStem: -100 100<462 838> 100 100<538 762> 200 100<462 500 800 838> 400 100<462 500 800 838> 500 100<612 688> 700 100<462 838>
VStem: 350 75<100 500> 388 75<0 100 600 700> 462 75<200 300> 762 75<200 300> 838 75<0 100 600 700> 875 75<100 500>
LayerCount: 2
Back
Fore
SplineSet
462 200 m 29xa4c0
 462 300 l 5
 538 300 l 29xa4c0
 538 200 l 29
 762 200 l 29xc4c0
 762 300 l 29
 838 300 l 29
 838 200 l 29
 800 200 l 29xa4c0
 800 100 l 29
 500 100 l 29xc4c0
 500 200 l 5
 462 200 l 29xa4c0
462 400 m 1x94a0
 462 500 l 25
 500 500 l 25x94a0
 500 600 l 25
 800 600 l 25x8ca0
 800 500 l 25
 838 500 l 25
 838 400 l 25
 688 400 l 25x94a0
 688 500 l 25
 612 500 l 1x8ca0
 612 400 l 25
 462 400 l 1x94a0
462 0 m 25xcd
 838 0 l 25
 838 100 l 25xcd20
 875 100 l 1
 875 500 l 1xcc10
 838 500 l 1
 838 700 l 1
 462 700 l 1x9520
 462 500 l 1x9480
 425 500 l 1
 425 100 l 1xce80
 462 100 l 25
 462 0 l 25xcd
350 100 m 25xce
 350 600 l 25xce
 388 600 l 25
 388 700 l 25xcd
 425 700 l 25
 425 800 l 25
 875 800 l 25
 875 700 l 25xce10
 912 700 l 25
 912 600 l 25xcc20
 950 600 l 25
 950 100 l 25xcc10
 912 100 l 25
 912 0 l 25xcc20
 875 0 l 25
 875 -100 l 25
 425 -100 l 25
 425 0 l 25xce10
 388 0 l 25
 388 100 l 25xcd
 350 100 l 25xce
EndSplineSet
EndChar

StartChar: u1F621
Encoding: 128545 128545 289
Width: 1062
Flags: HW
HStem: -100 100<462 838> 100 100<500 538 762 800> 200 100<575 725> 400 100<575 612 688 725> 500 100<462 538 762 838> 700 100<462 838>
VStem: 350 75<100 600> 388 75<0 100 600 700> 462 112<500 600> 500 75<100 200> 538 75<400 500> 688 75<400 500> 725 112<500 600> 725 75<101 200> 838 75<0 100 600 700> 875 75<100 600>
LayerCount: 2
Back
Fore
SplineSet
500 100 m 25xc444
 500 200 l 25xc444
 538 200 l 25xc420
 538 300 l 25
 762 300 l 25xa430
 762 200 l 25xc430
 800 200 l 25
 800 101 l 25
 725 100 l 25xc404
 725 200 l 25
 575 200 l 25xa444
 575 100 l 25
 500 100 l 25xc444
688 400 m 5x9410
 688 500 l 29x9410
 725 500 l 29x9408
 725 600 l 5
 838 600 l 1
 838 500 l 5x8c08
 762 500 l 5x8c10
 762 400 l 29
 688 400 l 5x9410
538 400 m 29x9420
 538 500 l 5x8c20
 462 500 l 5x8c80
 462 600 l 1x8d
 575 600 l 5x8c80
 575 500 l 29x9480
 612 500 l 29
 612 400 l 29
 538 400 l 29x9420
462 0 m 25xcd
 838 0 l 25
 838 100 l 25xcd02
 875 100 l 25
 875 600 l 25
 838 600 l 29xcc09
 838 700 l 25
 462 700 l 25
 462 600 l 29xcd02
 425 600 l 25
 425 100 l 25xce
 462 100 l 25
 462 0 l 25xcd
350 100 m 25xce
 350 600 l 25xce
 388 600 l 25
 388 700 l 25xcd
 425 700 l 25
 425 800 l 25
 875 800 l 25
 875 700 l 25xce01
 912 700 l 25
 912 600 l 25xcc02
 950 600 l 25
 950 100 l 25xcc01
 912 100 l 25
 912 0 l 25xcc02
 875 0 l 25
 875 -100 l 25
 425 -100 l 25
 425 0 l 25xce01
 388 0 l 25
 388 100 l 25xcd
 350 100 l 25xce
EndSplineSet
EndChar

StartChar: u1F620
Encoding: 128544 128544 290
Width: 1062
Flags: HW
HStem: -100 100<462 838> 100 100<500 538 762 800> 200 100<575 725> 400 100<575 612 688 725> 500 100<500 538 762 800> 700 100<462 838>
VStem: 350 75<100 600> 388 75<0 100 600 700> 500 75<100 200 500 600> 538 75<400 500> 688 75<400 500> 725 75<101 200 500 600> 838 75<0 100 600 700> 875 75<100 600>
LayerCount: 2
Back
Fore
SplineSet
688 400 m 1x9420
 688 500 l 25x9420
 725 500 l 25x9410
 725 600 l 25
 800 600 l 25
 800 500 l 25x8c10
 762 500 l 1x8c20
 762 400 l 25
 688 400 l 1x9420
538 400 m 25x9440
 538 500 l 25x8c40
 500 500 l 25
 500 600 l 25
 575 600 l 25x8c80
 575 500 l 25x9480
 612 500 l 25
 612 400 l 25
 538 400 l 25x9440
500 100 m 29xc490
 500 200 l 29xc490
 538 200 l 29xc440
 538 300 l 29
 762 300 l 29xa460
 762 200 l 29xc460
 800 200 l 29
 800 101 l 29
 725 100 l 29xc410
 725 200 l 29
 575 200 l 29xa490
 575 100 l 29
 500 100 l 29xc490
462 0 m 25xcd
 838 0 l 25
 838 100 l 25xcd08
 875 100 l 25
 875 600 l 25xcc04
 838 600 l 25
 838 700 l 25
 462 700 l 25
 462 600 l 25xcd08
 425 600 l 25
 425 100 l 25xce
 462 100 l 25
 462 0 l 25xcd
350 100 m 25xce
 350 600 l 25xce
 388 600 l 25
 388 700 l 25xcd
 425 700 l 25
 425 800 l 25
 875 800 l 25
 875 700 l 25xce04
 912 700 l 25
 912 600 l 25xcc08
 950 600 l 25
 950 100 l 25xcc04
 912 100 l 25
 912 0 l 25xcc08
 875 0 l 25
 875 -100 l 25
 425 -100 l 25
 425 0 l 25xce04
 388 0 l 25
 388 100 l 25xcd
 350 100 l 25xce
EndSplineSet
EndChar

StartChar: u1F62D
Encoding: 128557 128557 291
Width: 1062
Flags: HW
HStem: -100 100<462 838> 100 200<538 762> 300 100<462 500 800 838> 480 20G<500 538 762 800> 500 100<538 612 688 762> 700 100<462 838>
VStem: 350 75<100 600> 388 75<0 100 600 700> 462 75<300 400> 500 38<400 500> 538 75<500 600> 688 75<500 600> 762 75<300 400> 762 38<400 500> 838 75<0 100 600 700> 875 75<100 600>
LayerCount: 2
Back
Fore
SplineSet
538 100 m 29xc424
 538 300 l 25
 762 300 l 25xc488
 762 100 l 25
 538 100 l 29xc424
762 300 m 25
 762 500 l 25xd410
 800 500 l 25
 800 400 l 25xb404
 838 400 l 25
 838 300 l 25xb408
 762 300 l 25
462 300 m 25xa480
 462 400 l 25xa480
 500 400 l 25
 500 500 l 25
 538 500 l 25xb440
 538 300 l 25xd480
 462 300 l 25xa480
688 500 m 25x8c10
 688 600 l 25
 762 600 l 25x8c10
 762 500 l 25x9410
 688 500 l 25x8c10
538 500 m 25x9440
 538 600 l 25
 612 600 l 25
 612 500 l 25x8c20
 538 500 l 25x9440
462 0 m 25xcd
 838 0 l 25
 838 100 l 25xcd02
 875 100 l 25
 875 600 l 25xcc01
 838 600 l 25
 838 700 l 25
 462 700 l 25
 462 600 l 25xcd02
 425 600 l 25
 425 100 l 25xce
 462 100 l 25
 462 0 l 25xcd
350 100 m 25xce
 350 600 l 25xce
 388 600 l 25
 388 700 l 25xcd
 425 700 l 25
 425 800 l 25
 875 800 l 25
 875 700 l 25xce01
 912 700 l 25
 912 600 l 25xcc02
 950 600 l 25
 950 100 l 25xcc01
 912 100 l 25
 912 0 l 25xcc02
 875 0 l 25
 875 -100 l 25
 425 -100 l 25
 425 0 l 25xce01
 388 0 l 25
 388 100 l 25xcd
 350 100 l 25xce
EndSplineSet
EndChar

StartChar: u1F50C
Encoding: 128268 128268 292
Width: 531
Flags: HW
VStem: 194 75<600 800> 269 112<150 300> 381 75<600 800>
LayerCount: 2
Back
Fore
SplineSet
156 400 m 29x40
 156 600 l 25
 194 600 l 25
 194 800 l 25
 269 800 l 25
 269 600 l 25
 381 600 l 25
 381 800 l 25
 456 800 l 25
 456 600 l 25xa0
 494 600 l 25
 494 400 l 25
 419 400 l 25
 419 300 l 25
 381 300 l 25
 381 150 l 25
 344 150 l 25
 344 -100 l 25
 306 -100 l 25
 306 150 l 25
 269 150 l 25
 269 300 l 25
 231 300 l 25
 231 400 l 25
 156 400 l 29x40
EndSplineSet
EndChar

StartChar: u1F4FA
Encoding: 128250 128250 293
Width: 1050
Flags: HW
HStem: -100 200<412 788> 500 100<412 525 675 788> 700 100<450 525 675 750>
VStem: 338 75<100 500> 450 75<700 800> 675 75<700 800> 788 75<100 500>
LayerCount: 2
Back
Fore
SplineSet
412 100 m 29
 788 100 l 25
 788 500 l 25
 412 500 l 25
 412 100 l 29
338 -100 m 25
 338 600 l 25
 525 600 l 25
 525 700 l 25
 450 700 l 25
 450 800 l 25
 525 800 l 25
 525 700 l 25
 675 700 l 25
 675 800 l 25
 750 800 l 25
 750 700 l 25
 675 700 l 25
 675 600 l 25
 862 600 l 25
 862 -100 l 25
 338 -100 l 25
EndSplineSet
EndChar

StartChar: u1F4FB
Encoding: 128251 128251 294
Width: 1050
Flags: HW
HStem: -100 100<412 788> 150 100<638 675> 200 100<750 788> 300 100<412 712> 700 100<825 862>
VStem: 338 75<0 300> 450 75<50 250> 638 38<150 250> 788 75<0 200 300 500 700 800> 788 38<500 700>
LayerCount: 2
Back
Fore
SplineSet
638 150 m 29xcf
 638 250 l 25
 675 250 l 25
 675 150 l 25
 638 150 l 29xcf
450 50 m 25
 450 250 l 25
 525 250 l 25
 525 50 l 25
 450 50 l 25
412 0 m 25
 788 0 l 25
 788 200 l 25
 712 200 l 25xaf80
 712 300 l 25
 412 300 l 25x9f80
 412 0 l 25
338 -100 m 25
 338 300 l 25
 375 300 l 25
 375 400 l 25
 750 400 l 25x9f80
 750 300 l 25
 788 300 l 25
 788 800 l 25
 862 800 l 25
 862 700 l 25xaf80
 825 700 l 25
 825 500 l 25xaf40
 862 500 l 25
 862 -100 l 25
 338 -100 l 25
EndSplineSet
EndChar

StartChar: u1F4FC
Encoding: 128252 128252 295
Width: 1050
Flags: HW
HStem: 0 100<375 825> 150 100<488 562 638 712> 250 100<412 450 750 788> 350 100<488 562 638 712> 500 100<375 825>
VStem: 300 75<100 500> 412 75<250 350> 562 75<250 350> 712 75<250 350> 825 75<100 500>
LayerCount: 2
Back
Fore
SplineSet
488 250 m 29xdfc0
 562 250 l 25
 562 350 l 25
 488 350 l 25
 488 250 l 29xdfc0
638 250 m 25
 712 250 l 25
 712 350 l 25
 638 350 l 25
 638 250 l 25
450 150 m 25
 450 250 l 25
 412 250 l 25
 412 350 l 25
 450 350 l 25xafc0
 450 450 l 25
 750 450 l 25x9fc0
 750 350 l 25
 788 350 l 25
 788 250 l 25
 750 250 l 25xafc0
 750 150 l 25
 450 150 l 25
375 100 m 25
 825 100 l 25
 825 500 l 25
 375 500 l 25
 375 100 l 25
300 0 m 25
 300 600 l 25
 900 600 l 25
 900 0 l 25
 300 0 l 25
EndSplineSet
EndChar

StartChar: u1F508
Encoding: 128264 128264 296
Width: 525
Flags: HW
HStem: -100 100<412 450> 0 100<338 375> 100 100<262 300> 200 100<150 188> 400 100<150 188> 500 100<262 300> 600 100<338 375> 700 100<412 450>
VStem: 75 188<200 300 400 500> 75 75<300 400> 225 112<100 200 500 600> 300 112<0 100 600 700> 375 150<-100 0 700 800> 450 75<0 700>
LayerCount: 2
Back
Fore
SplineSet
262 200 m 29x2480
 338 200 l 29
 338 100 l 29x5020
 412 100 l 29
 412 0 l 29
 450 0 l 29
 450 700 l 29
 412 700 l 29xa114
 412 600 l 29x0214
 338 600 l 29x0220
 338 500 l 29x0420
 262 500 l 29
 262 200 l 29x2480
150 300 m 29x1840
 188 300 l 29
 188 400 l 29
 150 400 l 29
 150 300 l 29x1840
75 200 m 29x1080
 75 500 l 29x1480
 225 500 l 29x1420
 225 600 l 29x0220
 300 600 l 29
 300 700 l 29x0510
 375 700 l 29x0208
 375 800 l 29
 525 800 l 29
 525 -100 l 29
 375 -100 l 29x8108
 375 0 l 29x4008
 300 0 l 29x4010
 300 100 l 29x2010
 225 100 l 29x2020
 225 200 l 29x1020
 75 200 l 29x1080
EndSplineSet
EndChar

StartChar: u1F507
Encoding: 128263 128263 297
Width: 525
Flags: HW
HStem: -100 100<412 450> 0 100<300 375> 200 100<150 188 225 262 375 412> 400 100<150 188 225 262 375 412> 600 100<300 375> 700 100<412 450>
VStem: 75 112<200 300 400 500> 75 75<300 400> 225 75<200 300 400 500> 300 112<0 100 600 700> 338 75<200 300 400 500> 375 150<-100 0 700 800> 450 75<0 700>
LayerCount: 2
Back
Fore
SplineSet
300 600 m 29x3848
 300 700 l 25x3848
 375 700 l 25x3810
 375 800 l 25
 525 800 l 25
 525 -100 l 25
 375 -100 l 25xb410
 375 0 l 25x7010
 300 0 l 25
 300 100 l 25
 412 100 l 25x7040
 412 0 l 25
 450 0 l 25
 450 700 l 25
 412 700 l 25xb448
 412 600 l 25
 300 600 l 29x3848
225 200 m 25x30a0
 225 300 l 25
 262 300 l 25
 262 400 l 25
 225 400 l 25
 225 500 l 25
 300 500 l 25
 300 400 l 25
 338 400 l 25
 338 500 l 25
 412 500 l 25
 412 400 l 25x30a0
 375 400 l 25
 375 300 l 25x3010
 412 300 l 25
 412 200 l 25
 338 200 l 25
 338 300 l 25
 300 300 l 25
 300 200 l 25
 225 200 l 25x30a0
75 200 m 25x32
 75 500 l 25
 188 500 l 25
 188 400 l 25x32
 150 400 l 25
 150 300 l 25x31
 188 300 l 25
 188 200 l 25
 75 200 l 25x32
EndSplineSet
EndChar

StartChar: u1F509
Encoding: 128265 128265 298
Width: 1012
Flags: HW
HStem: -100 100<488 525> 0 100<412 450> 100 100<338 375> 150 100<638 675> 200 100<225 262> 400 100<225 262> 450 100<638 675> 500 100<338 375> 600 100<412 450> 700 100<488 525>
VStem: 150 188<200 300 400 500> 150 75<300 400> 300 112<100 200 500 600> 375 112<0 100 600 700> 450 150<-100 0 700 800> 525 75<0 700> 638 75<150 250 450 550> 675 75<250 450>
LayerCount: 2
Back
Fore
SplineSet
638 550 m 29x120080
 712 550 l 29
 712 450 l 29x120080
 750 450 l 29
 750 250 l 29x120040
 712 250 l 29
 712 150 l 29
 638 150 l 29
 638 250 l 29x120080
 675 250 l 29
 675 450 l 29x120040
 638 450 l 29
 638 550 l 29x120080
338 200 m 25x2120
 412 200 l 25
 412 100 l 25x4808
 488 100 l 25
 488 0 l 25
 525 0 l 25
 525 700 l 25
 488 700 l 25xa045
 488 600 l 25x0085
 412 600 l 25x0088
 412 500 l 25x0108
 338 500 l 25
 338 200 l 25x2120
225 300 m 25x0c10
 262 300 l 25
 262 400 l 25
 225 400 l 25
 225 300 l 25x0c10
150 200 m 25x0820
 150 500 l 25x0920
 300 500 l 25x0908
 300 600 l 25x0088
 375 600 l 25
 375 700 l 25x0144
 450 700 l 25x0082
 450 800 l 25
 600 800 l 25
 600 -100 l 25
 450 -100 l 25x8042
 450 0 l 25x4002
 375 0 l 25x4004
 375 100 l 25x2004
 300 100 l 25x2008
 300 200 l 25x0808
 150 200 l 25x0820
EndSplineSet
EndChar

StartChar: u1F50A
Encoding: 128266 128266 299
Width: 1050
Flags: HW
HStem: -100 100<562 600> 0 100<488 525> 50 100<825 862> 100 100<412 450> 150 100<712 750> 200 100<300 338> 400 100<300 338> 450 100<712 750> 500 100<412 450> 550 100<825 862> 600 100<488 525> 700 100<562 600>
VStem: 225 188<200 300 400 500> 225 75<300 400> 375 112<100 200 500 600> 450 112<0 100 600 700> 525 150<-100 0 700 800> 600 75<0 700> 712 75<150 250 450 550> 750 75<250 450> 825 75<50 150 550 650> 862 75<150 250 450 550> 900 75<250 450>
LayerCount: 2
Back
Fore
SplineSet
825 550 m 29x004008
 825 650 l 25
 900 650 l 25
 900 550 l 25x004008
 938 550 l 25x004004
 938 450 l 25x010004
 975 450 l 25
 975 250 l 25x090002
 938 250 l 25
 938 150 l 25x090004
 900 150 l 25x090008
 900 50 l 25
 825 50 l 25
 825 150 l 25x200008
 862 150 l 25x200004
 862 250 l 25x080004
 900 250 l 25
 900 450 l 25x090002
 862 450 l 25x090004
 862 550 l 25x004004
 825 550 l 29x004008
712 550 m 25x090020
 788 550 l 25x004020
 788 450 l 25x010020
 825 450 l 25
 825 250 l 25x090010
 788 250 l 25
 788 150 l 25
 712 150 l 25
 712 250 l 25x090020
 750 250 l 25
 750 450 l 25x090010
 712 450 l 25
 712 550 l 25x090020
412 200 m 25x1088
 488 200 l 25
 488 100 l 25x4402
 562 100 l 25
 562 0 l 25
 600 0 l 25
 600 700 l 25
 562 700 l 25x901140
 562 600 l 25x002140
 488 600 l 25x0022
 488 500 l 25x0082
 412 500 l 25
 412 200 l 25x1088
300 300 m 25x0604
 338 300 l 25
 338 400 l 25
 300 400 l 25
 300 300 l 25x0604
225 200 m 25x0408
 225 500 l 25x0488
 375 500 l 25x0482
 375 600 l 25x0022
 450 600 l 25
 450 700 l 25x0091
 525 700 l 25x002080
 525 800 l 25
 675 800 l 25
 675 -100 l 25
 525 -100 l 25x801080
 525 0 l 25x400080
 450 0 l 25x4001
 450 100 l 25x1001
 375 100 l 25x1002
 375 200 l 25x0402
 225 200 l 25x0408
EndSplineSet
EndChar

StartChar: u1F50B
Encoding: 128267 128267 300
Width: 525
Flags: HW
HStem: -100 100<188 412> 100 300<188 262 338 412>
VStem: 112 150<300 400 500 600> 112 75<0 100 400 500> 338 150<300 400 500 600> 412 75<0 100 400 500>
LayerCount: 2
Back
Fore
SplineSet
262 300 m 25xe0
 338 300 l 25
 338 400 l 25xe8
 412 400 l 25
 412 500 l 25xc4
 338 500 l 25
 338 600 l 25
 262 600 l 25
 262 500 l 25xe8
 188 500 l 25
 188 400 l 25xd0
 262 400 l 25
 262 300 l 25xe0
188 0 m 1xd4
 412 0 l 25
 412 100 l 1
 188 100 l 29
 188 0 l 1xd4
112 -100 m 25
 112 700 l 25
 225 700 l 25
 225 800 l 25
 375 800 l 25
 375 700 l 25
 488 700 l 25
 488 -100 l 25
 112 -100 l 25
EndSplineSet
EndChar

StartChar: u1F50D
Encoding: 128269 128269 301
Width: 531
Flags: HW
HStem: 200 100<231 381> 700 100<231 381>
VStem: 119 75<400 600> 156 75<300 400 600 700> 381 75<300 400 600 700> 419 75<400 600> 456 75<-100 0>
LayerCount: 2
Back
Fore
SplineSet
231 300 m 29xd0
 381 300 l 25
 381 400 l 25xd8
 419 400 l 25
 419 600 l 25xc4
 381 600 l 25
 381 700 l 25
 231 700 l 25
 231 600 l 25xd8
 194 600 l 25
 194 400 l 25xe0
 231 400 l 25
 231 300 l 29xd0
119 400 m 25xe0
 119 600 l 25xe0
 156 600 l 25
 156 700 l 25xd0
 194 700 l 25
 194 800 l 25
 419 800 l 25
 419 700 l 25xe4
 456 700 l 25
 456 600 l 25xc8
 494 600 l 25
 494 400 l 25xc4
 456 400 l 25xc8
 456 200 l 25xc2
 494 200 l 25
 494 100 l 25xc4
 531 100 l 25
 531 -100 l 25
 456 -100 l 25
 456 0 l 25xc2
 419 0 l 25
 419 100 l 25xc4
 381 100 l 25
 381 200 l 25
 194 200 l 25
 194 300 l 25xe8
 156 300 l 25
 156 400 l 25xd0
 119 400 l 25xe0
EndSplineSet
EndChar

StartChar: u1F50E
Encoding: 128270 128270 302
Width: 537
Flags: HW
HStem: 200 100<312 425> 700 100<275 425>
VStem: 162 75<-100 0 400 600> 200 112<100 200> 200 75<300 400 600 700> 238 225<200 300 700 800> 425 75<300 400 600 700> 462 75<400 600>
LayerCount: 2
Back
Fore
SplineSet
275 300 m 29xc8
 425 300 l 25
 425 400 l 25xca
 462 400 l 25
 462 600 l 25xc1
 425 600 l 25
 425 700 l 25
 275 700 l 25
 275 600 l 25xca
 238 600 l 25
 238 400 l 25xe0
 275 400 l 25
 275 300 l 29xc8
162 400 m 25xe0
 162 600 l 25xe0
 200 600 l 25
 200 700 l 25xc8
 238 700 l 25
 238 800 l 25
 462 800 l 25
 462 700 l 25xc4
 500 700 l 25
 500 600 l 25xc2
 538 600 l 25
 538 400 l 25xc1
 500 400 l 25
 500 300 l 25xc2
 462 300 l 25
 462 200 l 25xc4
 312 200 l 25
 312 100 l 25xd0
 275 100 l 25
 275 0 l 25xc8
 238 0 l 25
 238 -100 l 25
 162 -100 l 25
 162 100 l 25xe0
 200 100 l 25
 200 200 l 25xd0
 238 200 l 25
 238 300 l 25xc4
 200 300 l 25
 200 400 l 25xc8
 162 400 l 25xe0
EndSplineSet
EndChar

StartChar: u1F512
Encoding: 128274 128274 303
Width: 537
Flags: HW
HStem: 0 100<312 388> 400 100<275 425> 700 100<275 425>
VStem: 162 150<100 300> 162 75<500 600> 200 75<600 700> 388 150<100 300> 425 75<600 700> 462 75<500 600>
LayerCount: 2
Back
Fore
SplineSet
462 500 m 25xe880
 462 600 l 25xe880
 425 600 l 25
 425 700 l 25
 275 700 l 25
 275 600 l 25xe5
 238 600 l 25
 238 500 l 25
 462 500 l 25xe880
312 100 m 29xf0
 388 100 l 29
 388 300 l 29xf2
 425 300 l 29
 425 400 l 29
 275 400 l 29
 275 300 l 29xe5
 312 300 l 29
 312 100 l 29xf0
162 0 m 25xe880
 162 600 l 25xe880
 200 600 l 25
 200 700 l 25xe4
 238 700 l 25
 238 800 l 25
 462 800 l 25
 462 700 l 25xe880
 500 700 l 25
 500 600 l 25xe1
 538 600 l 25
 538 0 l 25
 162 0 l 25xe880
EndSplineSet
EndChar

StartChar: u1F513
Encoding: 128275 128275 304
Width: 537
Flags: HW
HStem: 0 100<312 388> 400 100<275 425> 600 100<462 500> 700 100<275 425>
VStem: 162 150<100 300> 162 75<500 600> 200 75<600 700> 388 150<100 300> 425 112<300 400> 425 75<600 700>
LayerCount: 2
Back
Fore
SplineSet
312 100 m 29xc8
 388 100 l 29
 388 300 l 29xc9
 425 300 l 29
 425 400 l 29
 275 400 l 29
 275 300 l 29xc280
 312 300 l 29
 312 100 l 29xc8
425 600 m 25xe440
 425 700 l 25
 275 700 l 25xd240
 275 600 l 25xe240
 238 600 l 25
 238 500 l 25
 538 500 l 25
 538 0 l 25
 162 0 l 25
 162 600 l 25xe480
 200 600 l 25xe2
 200 700 l 25xd2
 238 700 l 25
 238 800 l 25
 462 800 l 25xd4
 462 700 l 25
 500 700 l 25
 500 600 l 25
 425 600 l 25xe440
EndSplineSet
EndChar

StartChar: u1F514
Encoding: 128276 128276 305
Width: 1056
Flags: HW
HStem: -100 100<606 644>
VStem: 531 75<0 100> 569 112<-100 0 700 800> 644 75<0 100>
LayerCount: 2
Back
Fore
SplineSet
606 0 m 29xd0
 644 0 l 25
 644 100 l 25
 606 100 l 25
 606 0 l 29xd0
381 100 m 25
 381 300 l 25
 419 300 l 25
 419 500 l 25
 456 500 l 25
 456 600 l 25
 494 600 l 25
 494 700 l 25
 569 700 l 25
 569 800 l 25
 681 800 l 25
 681 700 l 25xa0
 756 700 l 25
 756 600 l 25
 794 600 l 25
 794 500 l 25
 831 500 l 25
 831 300 l 25
 869 300 l 25
 869 100 l 25
 719 100 l 25
 719 0 l 25x90
 681 0 l 25
 681 -100 l 25
 569 -100 l 25
 569 0 l 25xa0
 531 0 l 25
 531 100 l 25
 381 100 l 25
EndSplineSet
EndChar

StartChar: u1F515
Encoding: 128277 128277 306
Width: 1056
Flags: HW
HStem: 0 100<531 569 681 719> 100 100<456 494 606 644 756 794> 200 100<531 569 681 719> 600 200<569 681> 600 100<531 569 681 719>
VStem: 381 75<200 300> 419 75<300 500> 456 75<500 600> 531 75<0 100 200 300> 569 112<100 200 700 800> 644 75<0 100 200 300> 719 75<500 600> 756 75<300 500> 794 75<200 300>
LayerCount: 2
Back
Fore
SplineSet
531 0 m 29x80a0
 531 100 l 25x80a0
 569 100 l 25
 569 200 l 25xa040
 531 200 l 25
 531 300 l 25
 606 300 l 25xa080
 606 200 l 25
 644 200 l 25x40a0
 644 300 l 25
 719 300 l 25
 719 200 l 25x20a0
 681 200 l 25
 681 100 l 25xa040
 719 100 l 25
 719 0 l 25
 644 0 l 25xa020
 644 100 l 25
 606 100 l 25x40a0
 606 0 l 25
 531 0 l 29x80a0
569 700 m 25x2a40
 569 800 l 25
 681 800 l 25x1240
 681 700 l 25
 756 700 l 25
 756 600 l 25x0a48
 794 600 l 25
 794 500 l 25x0810
 831 500 l 25
 831 300 l 25x2808
 869 300 l 25x2804
 869 100 l 25x4004
 756 100 l 25
 756 200 l 25x4008
 794 200 l 25x4004
 794 300 l 25x2004
 756 300 l 25
 756 500 l 25x2008
 719 500 l 25
 719 600 l 25
 531 600 l 25
 531 500 l 25x2910
 494 500 l 25
 494 300 l 25x2a
 456 300 l 25x2c
 456 200 l 25x44
 494 200 l 25
 494 100 l 25x42
 381 100 l 25x44
 381 300 l 25x24
 419 300 l 25
 419 500 l 25x22
 456 500 l 25
 456 600 l 25x29
 494 600 l 25
 494 700 l 25
 569 700 l 25x2a40
EndSplineSet
EndChar

StartChar: u1F517
Encoding: 128279 128279 307
Width: 1062
Flags: HW
HStem: -100 100<612 875> 200 100<425 538> 400 100<762 875> 700 100<425 688>
VStem: 350 75<300 700> 538 75<0 200> 688 75<500 700> 875 75<0 400>
LayerCount: 2
Back
Fore
SplineSet
762 400 m 29
 762 300 l 25
 725 300 l 25
 725 200 l 25
 612 200 l 25
 612 0 l 25
 875 0 l 25
 875 400 l 25
 762 400 l 29
425 700 m 25
 425 300 l 25
 538 300 l 25
 538 400 l 25
 575 400 l 25
 575 500 l 25
 688 500 l 25
 688 700 l 25
 425 700 l 25
388 700 m 25
 388 800 l 25
 725 800 l 25
 725 700 l 25
 762 700 l 25
 762 500 l 25
 912 500 l 25
 912 400 l 25
 950 400 l 25
 950 0 l 25
 912 0 l 25
 912 -100 l 25
 575 -100 l 25
 575 0 l 25
 538 0 l 25
 538 200 l 25
 388 200 l 25
 388 300 l 25
 350 300 l 25
 350 700 l 25
 388 700 l 25
EndSplineSet
EndChar

StartChar: u1F51E
Encoding: 128286 128286 308
Width: 525
Flags: HW
HStem: 0 100<262 300> 100 100<188 225 338 375> 200 100<262 300 412 450 488 525> 300 100<188 225 338 375> 400 100<262 300>
VStem: 75 75<0 400> 112 38<400 500> 188 75<100 200 300 400> 225 112<0 100 200 300 400 500> 300 75<100 200 300 400> 412 112<200 300> 450 38<100 200 300 400>
LayerCount: 2
Back
Fore
SplineSet
450 100 m 29x4010
 450 200 l 25x2010
 412 200 l 25
 412 300 l 25x2020
 450 300 l 25
 450 400 l 25
 488 400 l 25
 488 300 l 25x2810
 525 300 l 25
 525 200 l 25x2820
 488 200 l 25x2810
 488 100 l 25
 450 100 l 29x4010
262 300 m 25x2940
 300 300 l 25
 300 400 l 25
 262 400 l 25
 262 300 l 25x2940
262 100 m 25xa140
 300 100 l 25
 300 200 l 25
 262 200 l 25
 262 100 l 25xa140
225 0 m 25x8080
 225 100 l 25x4080
 188 100 l 25
 188 200 l 25x41
 225 200 l 25
 225 300 l 25x5080
 188 300 l 25
 188 400 l 25x51
 225 400 l 25x5080
 225 500 l 25
 338 500 l 25x0880
 338 400 l 25x1080
 375 400 l 25
 375 300 l 25x1040
 338 300 l 25
 338 200 l 25x5080
 375 200 l 25
 375 100 l 25x5040
 338 100 l 25x5080
 338 0 l 25
 225 0 l 25x8080
75 0 m 25x8c
 75 400 l 25x8c
 112 400 l 25
 112 500 l 25
 150 500 l 25x8a
 150 0 l 25
 75 0 l 25x8c
EndSplineSet
EndChar

StartChar: u1F520
Encoding: 128288 128288 309
Width: 518
Flags: HW
HStem: -100 100<144 256 369 406> 200 100<144 256 369 406> 400 100<444 481> 600 100<444 481>
VStem: 69 75<0 200 400 500> 106 112<700 800> 181 75<400 500> 294 150<-100 0 200 300 500 600> 294 112<700 800> 294 75<0 200> 406 75<0 200>
LayerCount: 2
Back
Fore
SplineSet
369 0 m 29xf060
 406 0 l 25
 406 200 l 25
 369 200 l 25
 369 0 l 29xf060
294 -100 m 25xf1
 294 300 l 25
 444 300 l 25
 444 200 l 25xf1
 481 200 l 25
 481 0 l 25xf020
 444 0 l 25
 444 -100 l 25
 294 -100 l 25xf1
256 300 m 25xf2
 256 200 l 25
 144 200 l 25
 144 0 l 25
 256 0 l 25
 256 -100 l 25xfa
 106 -100 l 25
 106 0 l 25xf4
 69 0 l 25
 69 200 l 25xf8
 106 200 l 25
 106 300 l 25xf4
 256 300 l 25xf2
294 400 m 25xf060
 294 800 l 25
 406 800 l 25
 406 700 l 25xf080
 481 700 l 25
 481 600 l 25xf020
 444 600 l 25
 444 500 l 25xf1
 481 500 l 25
 481 400 l 25
 294 400 l 25xf060
69 400 m 25xfa
 69 700 l 25xfa
 106 700 l 25
 106 800 l 25
 219 800 l 25
 219 700 l 25xf4
 256 700 l 25
 256 400 l 25
 181 400 l 25
 181 500 l 25
 144 500 l 25
 144 400 l 25
 69 400 l 25xfa
EndSplineSet
EndChar

StartChar: u1F521
Encoding: 128289 128289 310
Width: 525
Flags: HW
HStem: -100 100<150 262 375 412 488 525> 0 100<75 112 300 338> 100 100<150 262 375 412> 400 100<150 188 262 300 412 450> 500 100<75 112 488 525> 600 100<150 188 412 450>
VStem: 75 75<0 100 500 600> 112 150<-100 0 100 200 600 700> 188 75<500 600> 300 75<0 100> 338 75<500 600 700 800> 412 75<0 100 200 300> 450 75<500 600>
LayerCount: 2
Back
Fore
SplineSet
375 0 m 29xa050
 412 0 l 25
 412 100 l 25
 375 100 l 25
 375 0 l 29xa050
300 0 m 25x4040
 300 100 l 25x4040
 338 100 l 25x4020
 338 200 l 25x2020
 412 200 l 25
 412 300 l 25
 488 300 l 25
 488 0 l 25xa010
 525 0 l 25
 525 -100 l 25
 338 -100 l 25xa028
 338 0 l 25x4028
 300 0 l 25x4040
150 100 m 25x22
 150 0 l 25xa2
 262 0 l 25
 262 -100 l 25
 112 -100 l 25xa1
 112 0 l 25x41
 75 0 l 25
 75 100 l 25x42
 112 100 l 25x41
 112 200 l 25
 262 200 l 25
 262 100 l 25x21
 150 100 l 25x22
412 500 m 25x1428
 450 500 l 25
 450 600 l 25
 412 600 l 25
 412 500 l 25x1428
338 400 m 25
 338 800 l 25
 412 800 l 25
 412 700 l 25x1420
 488 700 l 25x1410
 488 600 l 25x0810
 525 600 l 25
 525 500 l 25x0808
 488 500 l 25x0810
 488 400 l 25x1010
 338 400 l 25
150 500 m 25x1680
 188 500 l 25
 188 600 l 25
 150 600 l 25
 150 500 l 25x1680
75 500 m 25x0a
 75 600 l 25x0a
 112 600 l 25x09
 112 700 l 25
 262 700 l 25x05
 262 500 l 25x1480
 300 500 l 25
 300 400 l 25
 112 400 l 25x1540
 112 500 l 25x0940
 75 500 l 25x0a
EndSplineSet
EndChar

StartChar: u1F522
Encoding: 128290 128290 311
Width: 525
Flags: HW
HStem: -100 100<75 150> 0 100<375 450> 200 100<75 188 375 412> 400 100<338 375 450 525> 600 100<112 150 488 525> 700 100<338 450>
VStem: 112 112<600 700> 150 75<400 600 700 800> 188 75<100 200> 300 75<100 200> 338 75<200 300> 375 75<500 600> 450 75<-100 0 100 200 600 700>
LayerCount: 2
Back
Fore
SplineSet
412 300 m 29x7020
 412 200 l 25x7020
 375 200 l 25
 375 100 l 25
 450 100 l 25x7048
 450 200 l 25
 525 200 l 25
 525 -100 l 25
 450 -100 l 25xb048
 450 0 l 25
 300 0 l 25
 300 200 l 25x7048
 338 200 l 25
 338 300 l 25
 412 300 l 29x7020
75 200 m 25
 75 300 l 25
 262 300 l 25
 262 0 l 25x7080
 225 0 l 25x71
 225 -100 l 25
 75 -100 l 25
 75 0 l 25
 150 0 l 25xb1
 150 100 l 25x71
 188 100 l 25
 188 200 l 25x7080
 75 200 l 25
338 400 m 25x3828
 338 500 l 25x3828
 375 500 l 25
 375 600 l 25
 450 600 l 25x3810
 450 700 l 25
 338 700 l 25
 338 800 l 25
 488 800 l 25x3428
 488 700 l 25
 525 700 l 25
 525 600 l 25x3828
 450 600 l 25
 450 500 l 25x3810
 525 500 l 25
 525 400 l 25
 338 400 l 25x3828
150 400 m 25x35
 150 600 l 25x39
 112 600 l 25
 112 700 l 25x3a
 150 700 l 25x39
 150 800 l 25
 225 800 l 25
 225 400 l 25
 150 400 l 25x35
EndSplineSet
EndChar

